%TF.GenerationSoftware,KiCad,Pcbnew,10.0.4*%
%TF.CreationDate,2026-07-23T12:40:38+02:00*%
%TF.ProjectId,DSP-hw,4453502d-6877-42e6-9b69-6361645f7063,rev?*%
%TF.SameCoordinates,Original*%
%TF.FileFunction,Paste,Top*%
%TF.FilePolarity,Positive*%
%FSLAX46Y46*%
G04 Gerber Fmt 4.6, Leading zero omitted, Abs format (unit mm)*
G04 Created by KiCad (PCBNEW 10.0.4) date 2026-07-23 12:40:38*
%MOMM*%
%LPD*%
G01*
G04 APERTURE LIST*
G04 Aperture macros list*
%AMRoundRect*
0 Rectangle with rounded corners*
0 $1 Rounding radius*
0 $2 $3 $4 $5 $6 $7 $8 $9 X,Y pos of 4 corners*
0 Add a 4 corners polygon primitive as box body*
4,1,4,$2,$3,$4,$5,$6,$7,$8,$9,$2,$3,0*
0 Add four circle primitives for the rounded corners*
1,1,$1+$1,$2,$3*
1,1,$1+$1,$4,$5*
1,1,$1+$1,$6,$7*
1,1,$1+$1,$8,$9*
0 Add four rect primitives between the rounded corners*
20,1,$1+$1,$2,$3,$4,$5,0*
20,1,$1+$1,$4,$5,$6,$7,0*
20,1,$1+$1,$6,$7,$8,$9,0*
20,1,$1+$1,$8,$9,$2,$3,0*%
G04 Aperture macros list end*
%ADD10RoundRect,0.200000X-0.200000X-0.275000X0.200000X-0.275000X0.200000X0.275000X-0.200000X0.275000X0*%
%ADD11RoundRect,0.225000X-0.225000X-0.250000X0.225000X-0.250000X0.225000X0.250000X-0.225000X0.250000X0*%
%ADD12RoundRect,0.250000X-2.000000X-0.750000X2.000000X-0.750000X2.000000X0.750000X-2.000000X0.750000X0*%
%ADD13RoundRect,0.075000X-0.662500X-0.075000X0.662500X-0.075000X0.662500X0.075000X-0.662500X0.075000X0*%
%ADD14RoundRect,0.075000X-0.075000X-0.662500X0.075000X-0.662500X0.075000X0.662500X-0.075000X0.662500X0*%
%ADD15RoundRect,0.375000X0.375000X-0.625000X0.375000X0.625000X-0.375000X0.625000X-0.375000X-0.625000X0*%
%ADD16RoundRect,0.500000X1.400000X-0.500000X1.400000X0.500000X-1.400000X0.500000X-1.400000X-0.500000X0*%
%ADD17RoundRect,0.150000X-0.825000X-0.150000X0.825000X-0.150000X0.825000X0.150000X-0.825000X0.150000X0*%
%ADD18RoundRect,0.250000X0.400000X-0.525000X0.400000X0.525000X-0.400000X0.525000X-0.400000X-0.525000X0*%
%ADD19RoundRect,0.150000X-0.587500X-0.150000X0.587500X-0.150000X0.587500X0.150000X-0.587500X0.150000X0*%
%ADD20RoundRect,0.250000X-0.375000X-1.075000X0.375000X-1.075000X0.375000X1.075000X-0.375000X1.075000X0*%
G04 APERTURE END LIST*
D10*
%TO.C,R8*%
X214845000Y-79330000D03*
X213195000Y-79330000D03*
%TD*%
D11*
%TO.C,C21*%
X206775000Y-89370000D03*
X205225000Y-89370000D03*
%TD*%
%TO.C,C22*%
X206775000Y-91880000D03*
X205225000Y-91880000D03*
%TD*%
%TO.C,C19*%
X206775000Y-84350000D03*
X205225000Y-84350000D03*
%TD*%
%TO.C,C20*%
X206775000Y-86860000D03*
X205225000Y-86860000D03*
%TD*%
%TO.C,C18*%
X206775000Y-81840000D03*
X205225000Y-81840000D03*
%TD*%
%TO.C,C17*%
X206775000Y-79330000D03*
X205225000Y-79330000D03*
%TD*%
%TO.C,C23*%
X206775000Y-94390000D03*
X205225000Y-94390000D03*
%TD*%
%TO.C,C16*%
X202765000Y-96900000D03*
X201215000Y-96900000D03*
%TD*%
%TO.C,C46*%
X206775000Y-96900000D03*
X205225000Y-96900000D03*
%TD*%
%TO.C,C47*%
X210785000Y-79330000D03*
X209235000Y-79330000D03*
%TD*%
D10*
%TO.C,R4*%
X210835000Y-89370000D03*
X209185000Y-89370000D03*
%TD*%
%TO.C,R5*%
X210835000Y-91880000D03*
X209185000Y-91880000D03*
%TD*%
%TO.C,R2*%
X210835000Y-84350000D03*
X209185000Y-84350000D03*
%TD*%
%TO.C,R1*%
X210835000Y-81840000D03*
X209185000Y-81840000D03*
%TD*%
%TO.C,R3*%
X210835000Y-86860000D03*
X209185000Y-86860000D03*
%TD*%
%TO.C,R6*%
X210835000Y-94390000D03*
X209185000Y-94390000D03*
%TD*%
%TO.C,R7*%
X210835000Y-96900000D03*
X209185000Y-96900000D03*
%TD*%
D11*
%TO.C,C2*%
X198755000Y-81840000D03*
X197205000Y-81840000D03*
%TD*%
%TO.C,C1*%
X198755000Y-79330000D03*
X197205000Y-79330000D03*
%TD*%
%TO.C,C5*%
X198755000Y-89370000D03*
X197205000Y-89370000D03*
%TD*%
%TO.C,C3*%
X198755000Y-84350000D03*
X197205000Y-84350000D03*
%TD*%
%TO.C,C4*%
X198755000Y-86860000D03*
X197205000Y-86860000D03*
%TD*%
%TO.C,C11*%
X202765000Y-84350000D03*
X201215000Y-84350000D03*
%TD*%
%TO.C,C14*%
X202765000Y-91880000D03*
X201215000Y-91880000D03*
%TD*%
%TO.C,C6*%
X198755000Y-91880000D03*
X197205000Y-91880000D03*
%TD*%
%TO.C,C7*%
X198755000Y-94390000D03*
X197205000Y-94390000D03*
%TD*%
%TO.C,C8*%
X198755000Y-96900000D03*
X197205000Y-96900000D03*
%TD*%
%TO.C,C9*%
X202765000Y-79330000D03*
X201215000Y-79330000D03*
%TD*%
%TO.C,C12*%
X202765000Y-86860000D03*
X201215000Y-86860000D03*
%TD*%
%TO.C,C10*%
X202765000Y-81840000D03*
X201215000Y-81840000D03*
%TD*%
%TO.C,C13*%
X202765000Y-89370000D03*
X201215000Y-89370000D03*
%TD*%
%TO.C,C15*%
X202765000Y-94390000D03*
X201215000Y-94390000D03*
%TD*%
D10*
%TO.C,R34*%
X214845000Y-89370000D03*
X213195000Y-89370000D03*
%TD*%
%TO.C,R32*%
X214845000Y-84350000D03*
X213195000Y-84350000D03*
%TD*%
%TO.C,R30*%
X214845000Y-81840000D03*
X213195000Y-81840000D03*
%TD*%
%TO.C,R33*%
X214845000Y-86860000D03*
X213195000Y-86860000D03*
%TD*%
%TO.C,R35*%
X214845000Y-91880000D03*
X213195000Y-91880000D03*
%TD*%
D12*
%TO.C,Y1*%
X172250000Y-74200000D03*
X180750000Y-74200000D03*
%TD*%
D13*
%TO.C,U4*%
X127787500Y-64187500D03*
X127787500Y-64687500D03*
X127787500Y-65187500D03*
X127787500Y-65687500D03*
X127787500Y-66187500D03*
X127787500Y-66687500D03*
X127787500Y-67187500D03*
X127787500Y-67687500D03*
X127787500Y-68187500D03*
X127787500Y-68687500D03*
X127787500Y-69187500D03*
X127787500Y-69687500D03*
D14*
X129200000Y-71100000D03*
X129700000Y-71100000D03*
X130200000Y-71100000D03*
X130700000Y-71100000D03*
X131200000Y-71100000D03*
X131700000Y-71100000D03*
X132200000Y-71100000D03*
X132700000Y-71100000D03*
X133200000Y-71100000D03*
X133700000Y-71100000D03*
X134200000Y-71100000D03*
X134700000Y-71100000D03*
D13*
X136112500Y-69687500D03*
X136112500Y-69187500D03*
X136112500Y-68687500D03*
X136112500Y-68187500D03*
X136112500Y-67687500D03*
X136112500Y-67187500D03*
X136112500Y-66687500D03*
X136112500Y-66187500D03*
X136112500Y-65687500D03*
X136112500Y-65187500D03*
X136112500Y-64687500D03*
X136112500Y-64187500D03*
D14*
X134700000Y-62775000D03*
X134200000Y-62775000D03*
X133700000Y-62775000D03*
X133200000Y-62775000D03*
X132700000Y-62775000D03*
X132200000Y-62775000D03*
X131700000Y-62775000D03*
X131200000Y-62775000D03*
X130700000Y-62775000D03*
X130200000Y-62775000D03*
X129700000Y-62775000D03*
X129200000Y-62775000D03*
%TD*%
D15*
%TO.C,U3*%
X102800000Y-76700000D03*
X105100000Y-76700000D03*
D16*
X105100000Y-70400000D03*
D15*
X107400000Y-76700000D03*
%TD*%
D17*
%TO.C,U2*%
X161200000Y-59460000D03*
X161200000Y-60730000D03*
X161200000Y-62000000D03*
X161200000Y-63270000D03*
X166150000Y-63270000D03*
X166150000Y-62000000D03*
X166150000Y-60730000D03*
X166150000Y-59460000D03*
%TD*%
D13*
%TO.C,U1*%
X172337500Y-58550000D03*
X172337500Y-59050000D03*
X172337500Y-59550000D03*
X172337500Y-60050000D03*
X172337500Y-60550000D03*
X172337500Y-61050000D03*
X172337500Y-61550000D03*
X172337500Y-62050000D03*
X172337500Y-62550000D03*
X172337500Y-63050000D03*
X172337500Y-63550000D03*
X172337500Y-64050000D03*
D14*
X173750000Y-65462500D03*
X174250000Y-65462500D03*
X174750000Y-65462500D03*
X175250000Y-65462500D03*
X175750000Y-65462500D03*
X176250000Y-65462500D03*
X176750000Y-65462500D03*
X177250000Y-65462500D03*
X177750000Y-65462500D03*
X178250000Y-65462500D03*
X178750000Y-65462500D03*
X179250000Y-65462500D03*
D13*
X180662500Y-64050000D03*
X180662500Y-63550000D03*
X180662500Y-63050000D03*
X180662500Y-62550000D03*
X180662500Y-62050000D03*
X180662500Y-61550000D03*
X180662500Y-61050000D03*
X180662500Y-60550000D03*
X180662500Y-60050000D03*
X180662500Y-59550000D03*
X180662500Y-59050000D03*
X180662500Y-58550000D03*
D14*
X179250000Y-57137500D03*
X178750000Y-57137500D03*
X178250000Y-57137500D03*
X177750000Y-57137500D03*
X177250000Y-57137500D03*
X176750000Y-57137500D03*
X176250000Y-57137500D03*
X175750000Y-57137500D03*
X175250000Y-57137500D03*
X174750000Y-57137500D03*
X174250000Y-57137500D03*
X173750000Y-57137500D03*
%TD*%
D18*
%TO.C,SW8*%
X218400000Y-91460000D03*
X218400000Y-83500000D03*
X222900000Y-91460000D03*
X222900000Y-83500000D03*
%TD*%
%TO.C,SW1*%
X226500000Y-75100000D03*
X226500000Y-67140000D03*
X231000000Y-75100000D03*
X231000000Y-67140000D03*
%TD*%
D10*
%TO.C,R31*%
X149760000Y-69640000D03*
X151410000Y-69640000D03*
%TD*%
%TO.C,R29*%
X149760000Y-67130000D03*
X151410000Y-67130000D03*
%TD*%
%TO.C,R28*%
X149760000Y-64620000D03*
X151410000Y-64620000D03*
%TD*%
%TO.C,R27*%
X149760000Y-62110000D03*
X151410000Y-62110000D03*
%TD*%
%TO.C,R26*%
X149760000Y-59600000D03*
X151410000Y-59600000D03*
%TD*%
%TO.C,R25*%
X145750000Y-72150000D03*
X147400000Y-72150000D03*
%TD*%
%TO.C,R24*%
X95830000Y-65730000D03*
X97480000Y-65730000D03*
%TD*%
%TO.C,R22*%
X95830000Y-63220000D03*
X97480000Y-63220000D03*
%TD*%
%TO.C,R21*%
X95830000Y-60710000D03*
X97480000Y-60710000D03*
%TD*%
%TO.C,R19*%
X95830000Y-58200000D03*
X97480000Y-58200000D03*
%TD*%
%TO.C,R18*%
X91820000Y-70750000D03*
X93470000Y-70750000D03*
%TD*%
%TO.C,R16*%
X91820000Y-68240000D03*
X93470000Y-68240000D03*
%TD*%
%TO.C,R15*%
X91820000Y-65730000D03*
X93470000Y-65730000D03*
%TD*%
%TO.C,R13*%
X91820000Y-63220000D03*
X93470000Y-63220000D03*
%TD*%
%TO.C,R12*%
X91820000Y-60710000D03*
X93470000Y-60710000D03*
%TD*%
%TO.C,R11*%
X91820000Y-58200000D03*
X93470000Y-58200000D03*
%TD*%
%TO.C,R10*%
X87810000Y-70750000D03*
X89460000Y-70750000D03*
%TD*%
%TO.C,R9*%
X87810000Y-68240000D03*
X89460000Y-68240000D03*
%TD*%
D19*
%TO.C,Q2*%
X163262500Y-73950000D03*
X163262500Y-75850000D03*
X165137500Y-74900000D03*
%TD*%
D20*
%TO.C,D4*%
X212200000Y-63000000D03*
X215000000Y-63000000D03*
%TD*%
%TO.C,D3*%
X203800000Y-63400000D03*
X206600000Y-63400000D03*
%TD*%
%TO.C,D2*%
X146015000Y-79840000D03*
X148815000Y-79840000D03*
%TD*%
%TO.C,D1*%
X146015000Y-75550000D03*
X148815000Y-75550000D03*
%TD*%
D11*
%TO.C,C44*%
X145800000Y-69640000D03*
X147350000Y-69640000D03*
%TD*%
%TO.C,C43*%
X145800000Y-67130000D03*
X147350000Y-67130000D03*
%TD*%
%TO.C,C42*%
X145800000Y-64620000D03*
X147350000Y-64620000D03*
%TD*%
%TO.C,C41*%
X145800000Y-62110000D03*
X147350000Y-62110000D03*
%TD*%
%TO.C,C40*%
X145800000Y-59600000D03*
X147350000Y-59600000D03*
%TD*%
%TO.C,C37*%
X87860000Y-65730000D03*
X89410000Y-65730000D03*
%TD*%
%TO.C,C35*%
X87860000Y-63220000D03*
X89410000Y-63220000D03*
%TD*%
%TO.C,C34*%
X87860000Y-60710000D03*
X89410000Y-60710000D03*
%TD*%
%TO.C,C32*%
X87860000Y-58200000D03*
X89410000Y-58200000D03*
%TD*%
%TO.C,C31*%
X83850000Y-70750000D03*
X85400000Y-70750000D03*
%TD*%
%TO.C,C29*%
X83850000Y-68240000D03*
X85400000Y-68240000D03*
%TD*%
%TO.C,C28*%
X83850000Y-65730000D03*
X85400000Y-65730000D03*
%TD*%
%TO.C,C26*%
X83850000Y-63220000D03*
X85400000Y-63220000D03*
%TD*%
%TO.C,C25*%
X83850000Y-60710000D03*
X85400000Y-60710000D03*
%TD*%
%TO.C,C24*%
X83850000Y-58200000D03*
X85400000Y-58200000D03*
%TD*%
M02*
