%TF.GenerationSoftware,KiCad,Pcbnew,10.0.4*%
%TF.CreationDate,2026-07-23T12:40:38+02:00*%
%TF.ProjectId,DSP-hw,4453502d-6877-42e6-9b69-6361645f7063,rev?*%
%TF.SameCoordinates,Original*%
%TF.FileFunction,Copper,L3,Inr*%
%TF.FilePolarity,Positive*%
%FSLAX46Y46*%
G04 Gerber Fmt 4.6, Leading zero omitted, Abs format (unit mm)*
G04 Created by KiCad (PCBNEW 10.0.4) date 2026-07-23 12:40:38*
%MOMM*%
%LPD*%
G01*
G04 APERTURE LIST*
G04 Aperture macros list*
%AMRoundRect*
0 Rectangle with rounded corners*
0 $1 Rounding radius*
0 $2 $3 $4 $5 $6 $7 $8 $9 X,Y pos of 4 corners*
0 Add a 4 corners polygon primitive as box body*
4,1,4,$2,$3,$4,$5,$6,$7,$8,$9,$2,$3,0*
0 Add four circle primitives for the rounded corners*
1,1,$1+$1,$2,$3*
1,1,$1+$1,$4,$5*
1,1,$1+$1,$6,$7*
1,1,$1+$1,$8,$9*
0 Add four rect primitives between the rounded corners*
20,1,$1+$1,$2,$3,$4,$5,0*
20,1,$1+$1,$4,$5,$6,$7,0*
20,1,$1+$1,$6,$7,$8,$9,0*
20,1,$1+$1,$8,$9,$2,$3,0*%
G04 Aperture macros list end*
%TA.AperFunction,ComponentPad*%
%ADD10C,3.400000*%
%TD*%
%TA.AperFunction,ComponentPad*%
%ADD11C,2.700000*%
%TD*%
%TA.AperFunction,ComponentPad*%
%ADD12C,3.200000*%
%TD*%
%TA.AperFunction,ComponentPad*%
%ADD13C,2.900000*%
%TD*%
%TA.AperFunction,ComponentPad*%
%ADD14O,2.200000X1.200000*%
%TD*%
%TA.AperFunction,ComponentPad*%
%ADD15O,1.200000X2.200000*%
%TD*%
%TA.AperFunction,ComponentPad*%
%ADD16RoundRect,0.250000X0.550000X-0.550000X0.550000X0.550000X-0.550000X0.550000X-0.550000X-0.550000X0*%
%TD*%
%TA.AperFunction,ComponentPad*%
%ADD17C,1.600000*%
%TD*%
%TA.AperFunction,ComponentPad*%
%ADD18R,1.800000X1.800000*%
%TD*%
%TA.AperFunction,ComponentPad*%
%ADD19C,1.800000*%
%TD*%
%TA.AperFunction,ComponentPad*%
%ADD20R,1.050000X1.500000*%
%TD*%
%TA.AperFunction,ComponentPad*%
%ADD21O,1.050000X1.500000*%
%TD*%
%TA.AperFunction,ComponentPad*%
%ADD22RoundRect,0.250000X-0.600000X-0.725000X0.600000X-0.725000X0.600000X0.725000X-0.600000X0.725000X0*%
%TD*%
%TA.AperFunction,ComponentPad*%
%ADD23O,1.700000X1.950000*%
%TD*%
%TA.AperFunction,ComponentPad*%
%ADD24RoundRect,0.250000X0.725000X-0.600000X0.725000X0.600000X-0.725000X0.600000X-0.725000X-0.600000X0*%
%TD*%
%TA.AperFunction,ComponentPad*%
%ADD25O,1.950000X1.700000*%
%TD*%
%TA.AperFunction,ComponentPad*%
%ADD26C,0.700000*%
%TD*%
%TA.AperFunction,ComponentPad*%
%ADD27O,0.900000X2.400000*%
%TD*%
%TA.AperFunction,ComponentPad*%
%ADD28O,0.900000X1.700000*%
%TD*%
G04 APERTURE END LIST*
D10*
%TO.N,Net-(C25-Pad1)*%
%TO.C,J5*%
X225860000Y-44425000D03*
X216970000Y-44425000D03*
D11*
%TO.N,Net-(J5-Pad1)*%
X218557500Y-51410000D03*
%TO.N,Net-(SW7-B)*%
X224272500Y-51410000D03*
D12*
%TO.N,Net-(J5-Pad1)*%
X213160000Y-35535000D03*
D11*
%TO.N,Net-(SW7-B)*%
X221415000Y-52045000D03*
D13*
%TO.N,Net-(C25-Pad1)*%
X228400000Y-47600000D03*
%TO.N,Net-(J5-Pad1)*%
X214430000Y-46965000D03*
%TD*%
D14*
%TO.N,Net-(C37-Pad1)*%
%TO.C,J11*%
X73700000Y-77000000D03*
D15*
%TO.N,GND*%
X68700000Y-82000000D03*
D14*
%TO.N,Net-(C34-Pad1)*%
X73700000Y-87000000D03*
%TD*%
%TO.N,Net-(C31-Pad1)*%
%TO.C,J10*%
X73700000Y-64000000D03*
D15*
%TO.N,GND*%
X68700000Y-69000000D03*
D14*
%TO.N,Net-(C28-Pad1)*%
X73700000Y-74000000D03*
%TD*%
D16*
%TO.N,GND*%
%TO.C,SW7*%
X221300000Y-63220000D03*
D17*
%TO.N,Net-(SW7-B)*%
X221300000Y-55600000D03*
%TD*%
D16*
%TO.N,GND*%
%TO.C,SW6*%
X195400000Y-64320000D03*
D17*
%TO.N,Net-(SW6-B)*%
X195400000Y-56700000D03*
%TD*%
D18*
%TO.N,+3V3*%
%TO.C,RV2*%
X97600000Y-85750000D03*
D19*
%TO.N,/MP9*%
X100100000Y-85750000D03*
%TO.N,GND*%
X102600000Y-85750000D03*
%TD*%
D18*
%TO.N,+3V3*%
%TO.C,RV1*%
X81100000Y-85750000D03*
D19*
%TO.N,/MP8*%
X83600000Y-85750000D03*
%TO.N,GND*%
X86100000Y-85750000D03*
%TD*%
D20*
%TO.N,Net-(Q1-C)*%
%TO.C,Q1*%
X161435000Y-67840000D03*
D21*
%TO.N,+3V3*%
X162705000Y-67840000D03*
X163975000Y-67840000D03*
%TD*%
D22*
%TO.N,GND*%
%TO.C,J9*%
X129100000Y-88300000D03*
D23*
%TO.N,/Micro/SWDIO*%
X131600000Y-88300000D03*
%TO.N,/Micro/SWCLK*%
X134100000Y-88300000D03*
%TO.N,/Micro/UART1_TX*%
X136600000Y-88300000D03*
%TO.N,/Micro/UART1_RX*%
X139100000Y-88300000D03*
%TO.N,+3V3*%
X141600000Y-88300000D03*
%TD*%
D24*
%TO.N,GND*%
%TO.C,J8*%
X231100000Y-90500000D03*
D25*
%TO.N,/SCL*%
X231100000Y-88000000D03*
%TO.N,/SDA*%
X231100000Y-85500000D03*
%TO.N,+3V3*%
X231100000Y-83000000D03*
%TD*%
D26*
%TO.N,GND*%
%TO.C,J7*%
X113050000Y-88340000D03*
%TO.N,+5V*%
X113900000Y-88340000D03*
%TO.N,Net-(J7-CC1)*%
X114750000Y-88340000D03*
%TO.N,/Micro/D+*%
X115600000Y-88340000D03*
%TO.N,/Micro/D-*%
X116450000Y-88340000D03*
%TO.N,unconnected-(J7-SBU1-PadA8)*%
X117300000Y-88340000D03*
%TO.N,+5V*%
X118150000Y-88340000D03*
%TO.N,GND*%
X119000000Y-88340000D03*
X119000000Y-89690000D03*
%TO.N,+5V*%
X118150000Y-89690000D03*
%TO.N,Net-(J7-CC2)*%
X117300000Y-89690000D03*
%TO.N,/Micro/D+*%
X116450000Y-89690000D03*
%TO.N,/Micro/D-*%
X115600000Y-89690000D03*
%TO.N,unconnected-(J7-SBU2-PadB8)*%
X114750000Y-89690000D03*
%TO.N,+5V*%
X113900000Y-89690000D03*
%TO.N,GND*%
X113050000Y-89690000D03*
D27*
X111700000Y-89320000D03*
D28*
X111700000Y-92700000D03*
D27*
X120350000Y-89320000D03*
D28*
X120350000Y-92700000D03*
%TD*%
D13*
%TO.N,Net-(J6-Pad1)*%
%TO.C,J6*%
X185500000Y-47065000D03*
%TO.N,Net-(C24-Pad1)*%
X199470000Y-47700000D03*
D11*
%TO.N,Net-(SW6-B)*%
X192485000Y-52145000D03*
D12*
%TO.N,Net-(J6-Pad1)*%
X184230000Y-35635000D03*
D11*
%TO.N,Net-(SW6-B)*%
X195342500Y-51510000D03*
%TO.N,Net-(J6-Pad1)*%
X189627500Y-51510000D03*
D10*
%TO.N,Net-(C24-Pad1)*%
X188040000Y-44525000D03*
X196930000Y-44525000D03*
%TD*%
%TO.N,GND*%
%TO.C,J4*%
X169220000Y-47000000D03*
%TO.N,Net-(C37-Pad1)*%
X161600000Y-47000000D03*
D13*
%TO.N,GND*%
X165410000Y-47000000D03*
X165410000Y-41920000D03*
%TD*%
D10*
%TO.N,GND*%
%TO.C,J3*%
X140820000Y-46900000D03*
%TO.N,Net-(C34-Pad1)*%
X133200000Y-46900000D03*
D13*
%TO.N,GND*%
X137010000Y-46900000D03*
X137010000Y-41820000D03*
%TD*%
D10*
%TO.N,GND*%
%TO.C,J2*%
X110700000Y-46800000D03*
%TO.N,Net-(C31-Pad1)*%
X103080000Y-46800000D03*
D13*
%TO.N,GND*%
X106890000Y-46800000D03*
X106890000Y-41720000D03*
%TD*%
D10*
%TO.N,GND*%
%TO.C,J1*%
X82600000Y-47100000D03*
%TO.N,Net-(C28-Pad1)*%
X74980000Y-47100000D03*
D13*
%TO.N,GND*%
X78790000Y-47100000D03*
X78790000Y-42020000D03*
%TD*%
M02*
