%TF.GenerationSoftware,KiCad,Pcbnew,10.0.4*%
%TF.CreationDate,2026-07-23T12:40:38+02:00*%
%TF.ProjectId,DSP-hw,4453502d-6877-42e6-9b69-6361645f7063,rev?*%
%TF.SameCoordinates,Original*%
%TF.FileFunction,Legend,Top*%
%TF.FilePolarity,Positive*%
%FSLAX46Y46*%
G04 Gerber Fmt 4.6, Leading zero omitted, Abs format (unit mm)*
G04 Created by KiCad (PCBNEW 10.0.4) date 2026-07-23 12:40:38*
%MOMM*%
%LPD*%
G01*
G04 APERTURE LIST*
%ADD10C,0.150000*%
%ADD11C,0.120000*%
G04 APERTURE END LIST*
D10*
X213853333Y-78354819D02*
X213520000Y-77878628D01*
X213281905Y-78354819D02*
X213281905Y-77354819D01*
X213281905Y-77354819D02*
X213662857Y-77354819D01*
X213662857Y-77354819D02*
X213758095Y-77402438D01*
X213758095Y-77402438D02*
X213805714Y-77450057D01*
X213805714Y-77450057D02*
X213853333Y-77545295D01*
X213853333Y-77545295D02*
X213853333Y-77688152D01*
X213853333Y-77688152D02*
X213805714Y-77783390D01*
X213805714Y-77783390D02*
X213758095Y-77831009D01*
X213758095Y-77831009D02*
X213662857Y-77878628D01*
X213662857Y-77878628D02*
X213281905Y-77878628D01*
X214424762Y-77783390D02*
X214329524Y-77735771D01*
X214329524Y-77735771D02*
X214281905Y-77688152D01*
X214281905Y-77688152D02*
X214234286Y-77592914D01*
X214234286Y-77592914D02*
X214234286Y-77545295D01*
X214234286Y-77545295D02*
X214281905Y-77450057D01*
X214281905Y-77450057D02*
X214329524Y-77402438D01*
X214329524Y-77402438D02*
X214424762Y-77354819D01*
X214424762Y-77354819D02*
X214615238Y-77354819D01*
X214615238Y-77354819D02*
X214710476Y-77402438D01*
X214710476Y-77402438D02*
X214758095Y-77450057D01*
X214758095Y-77450057D02*
X214805714Y-77545295D01*
X214805714Y-77545295D02*
X214805714Y-77592914D01*
X214805714Y-77592914D02*
X214758095Y-77688152D01*
X214758095Y-77688152D02*
X214710476Y-77735771D01*
X214710476Y-77735771D02*
X214615238Y-77783390D01*
X214615238Y-77783390D02*
X214424762Y-77783390D01*
X214424762Y-77783390D02*
X214329524Y-77831009D01*
X214329524Y-77831009D02*
X214281905Y-77878628D01*
X214281905Y-77878628D02*
X214234286Y-77973866D01*
X214234286Y-77973866D02*
X214234286Y-78164342D01*
X214234286Y-78164342D02*
X214281905Y-78259580D01*
X214281905Y-78259580D02*
X214329524Y-78307200D01*
X214329524Y-78307200D02*
X214424762Y-78354819D01*
X214424762Y-78354819D02*
X214615238Y-78354819D01*
X214615238Y-78354819D02*
X214710476Y-78307200D01*
X214710476Y-78307200D02*
X214758095Y-78259580D01*
X214758095Y-78259580D02*
X214805714Y-78164342D01*
X214805714Y-78164342D02*
X214805714Y-77973866D01*
X214805714Y-77973866D02*
X214758095Y-77878628D01*
X214758095Y-77878628D02*
X214710476Y-77831009D01*
X214710476Y-77831009D02*
X214615238Y-77783390D01*
X205357142Y-88299580D02*
X205309523Y-88347200D01*
X205309523Y-88347200D02*
X205166666Y-88394819D01*
X205166666Y-88394819D02*
X205071428Y-88394819D01*
X205071428Y-88394819D02*
X204928571Y-88347200D01*
X204928571Y-88347200D02*
X204833333Y-88251961D01*
X204833333Y-88251961D02*
X204785714Y-88156723D01*
X204785714Y-88156723D02*
X204738095Y-87966247D01*
X204738095Y-87966247D02*
X204738095Y-87823390D01*
X204738095Y-87823390D02*
X204785714Y-87632914D01*
X204785714Y-87632914D02*
X204833333Y-87537676D01*
X204833333Y-87537676D02*
X204928571Y-87442438D01*
X204928571Y-87442438D02*
X205071428Y-87394819D01*
X205071428Y-87394819D02*
X205166666Y-87394819D01*
X205166666Y-87394819D02*
X205309523Y-87442438D01*
X205309523Y-87442438D02*
X205357142Y-87490057D01*
X205738095Y-87490057D02*
X205785714Y-87442438D01*
X205785714Y-87442438D02*
X205880952Y-87394819D01*
X205880952Y-87394819D02*
X206119047Y-87394819D01*
X206119047Y-87394819D02*
X206214285Y-87442438D01*
X206214285Y-87442438D02*
X206261904Y-87490057D01*
X206261904Y-87490057D02*
X206309523Y-87585295D01*
X206309523Y-87585295D02*
X206309523Y-87680533D01*
X206309523Y-87680533D02*
X206261904Y-87823390D01*
X206261904Y-87823390D02*
X205690476Y-88394819D01*
X205690476Y-88394819D02*
X206309523Y-88394819D01*
X207261904Y-88394819D02*
X206690476Y-88394819D01*
X206976190Y-88394819D02*
X206976190Y-87394819D01*
X206976190Y-87394819D02*
X206880952Y-87537676D01*
X206880952Y-87537676D02*
X206785714Y-87632914D01*
X206785714Y-87632914D02*
X206690476Y-87680533D01*
X205357142Y-90809580D02*
X205309523Y-90857200D01*
X205309523Y-90857200D02*
X205166666Y-90904819D01*
X205166666Y-90904819D02*
X205071428Y-90904819D01*
X205071428Y-90904819D02*
X204928571Y-90857200D01*
X204928571Y-90857200D02*
X204833333Y-90761961D01*
X204833333Y-90761961D02*
X204785714Y-90666723D01*
X204785714Y-90666723D02*
X204738095Y-90476247D01*
X204738095Y-90476247D02*
X204738095Y-90333390D01*
X204738095Y-90333390D02*
X204785714Y-90142914D01*
X204785714Y-90142914D02*
X204833333Y-90047676D01*
X204833333Y-90047676D02*
X204928571Y-89952438D01*
X204928571Y-89952438D02*
X205071428Y-89904819D01*
X205071428Y-89904819D02*
X205166666Y-89904819D01*
X205166666Y-89904819D02*
X205309523Y-89952438D01*
X205309523Y-89952438D02*
X205357142Y-90000057D01*
X205738095Y-90000057D02*
X205785714Y-89952438D01*
X205785714Y-89952438D02*
X205880952Y-89904819D01*
X205880952Y-89904819D02*
X206119047Y-89904819D01*
X206119047Y-89904819D02*
X206214285Y-89952438D01*
X206214285Y-89952438D02*
X206261904Y-90000057D01*
X206261904Y-90000057D02*
X206309523Y-90095295D01*
X206309523Y-90095295D02*
X206309523Y-90190533D01*
X206309523Y-90190533D02*
X206261904Y-90333390D01*
X206261904Y-90333390D02*
X205690476Y-90904819D01*
X205690476Y-90904819D02*
X206309523Y-90904819D01*
X206690476Y-90000057D02*
X206738095Y-89952438D01*
X206738095Y-89952438D02*
X206833333Y-89904819D01*
X206833333Y-89904819D02*
X207071428Y-89904819D01*
X207071428Y-89904819D02*
X207166666Y-89952438D01*
X207166666Y-89952438D02*
X207214285Y-90000057D01*
X207214285Y-90000057D02*
X207261904Y-90095295D01*
X207261904Y-90095295D02*
X207261904Y-90190533D01*
X207261904Y-90190533D02*
X207214285Y-90333390D01*
X207214285Y-90333390D02*
X206642857Y-90904819D01*
X206642857Y-90904819D02*
X207261904Y-90904819D01*
X205357142Y-83279580D02*
X205309523Y-83327200D01*
X205309523Y-83327200D02*
X205166666Y-83374819D01*
X205166666Y-83374819D02*
X205071428Y-83374819D01*
X205071428Y-83374819D02*
X204928571Y-83327200D01*
X204928571Y-83327200D02*
X204833333Y-83231961D01*
X204833333Y-83231961D02*
X204785714Y-83136723D01*
X204785714Y-83136723D02*
X204738095Y-82946247D01*
X204738095Y-82946247D02*
X204738095Y-82803390D01*
X204738095Y-82803390D02*
X204785714Y-82612914D01*
X204785714Y-82612914D02*
X204833333Y-82517676D01*
X204833333Y-82517676D02*
X204928571Y-82422438D01*
X204928571Y-82422438D02*
X205071428Y-82374819D01*
X205071428Y-82374819D02*
X205166666Y-82374819D01*
X205166666Y-82374819D02*
X205309523Y-82422438D01*
X205309523Y-82422438D02*
X205357142Y-82470057D01*
X206309523Y-83374819D02*
X205738095Y-83374819D01*
X206023809Y-83374819D02*
X206023809Y-82374819D01*
X206023809Y-82374819D02*
X205928571Y-82517676D01*
X205928571Y-82517676D02*
X205833333Y-82612914D01*
X205833333Y-82612914D02*
X205738095Y-82660533D01*
X206785714Y-83374819D02*
X206976190Y-83374819D01*
X206976190Y-83374819D02*
X207071428Y-83327200D01*
X207071428Y-83327200D02*
X207119047Y-83279580D01*
X207119047Y-83279580D02*
X207214285Y-83136723D01*
X207214285Y-83136723D02*
X207261904Y-82946247D01*
X207261904Y-82946247D02*
X207261904Y-82565295D01*
X207261904Y-82565295D02*
X207214285Y-82470057D01*
X207214285Y-82470057D02*
X207166666Y-82422438D01*
X207166666Y-82422438D02*
X207071428Y-82374819D01*
X207071428Y-82374819D02*
X206880952Y-82374819D01*
X206880952Y-82374819D02*
X206785714Y-82422438D01*
X206785714Y-82422438D02*
X206738095Y-82470057D01*
X206738095Y-82470057D02*
X206690476Y-82565295D01*
X206690476Y-82565295D02*
X206690476Y-82803390D01*
X206690476Y-82803390D02*
X206738095Y-82898628D01*
X206738095Y-82898628D02*
X206785714Y-82946247D01*
X206785714Y-82946247D02*
X206880952Y-82993866D01*
X206880952Y-82993866D02*
X207071428Y-82993866D01*
X207071428Y-82993866D02*
X207166666Y-82946247D01*
X207166666Y-82946247D02*
X207214285Y-82898628D01*
X207214285Y-82898628D02*
X207261904Y-82803390D01*
X205357142Y-85789580D02*
X205309523Y-85837200D01*
X205309523Y-85837200D02*
X205166666Y-85884819D01*
X205166666Y-85884819D02*
X205071428Y-85884819D01*
X205071428Y-85884819D02*
X204928571Y-85837200D01*
X204928571Y-85837200D02*
X204833333Y-85741961D01*
X204833333Y-85741961D02*
X204785714Y-85646723D01*
X204785714Y-85646723D02*
X204738095Y-85456247D01*
X204738095Y-85456247D02*
X204738095Y-85313390D01*
X204738095Y-85313390D02*
X204785714Y-85122914D01*
X204785714Y-85122914D02*
X204833333Y-85027676D01*
X204833333Y-85027676D02*
X204928571Y-84932438D01*
X204928571Y-84932438D02*
X205071428Y-84884819D01*
X205071428Y-84884819D02*
X205166666Y-84884819D01*
X205166666Y-84884819D02*
X205309523Y-84932438D01*
X205309523Y-84932438D02*
X205357142Y-84980057D01*
X205738095Y-84980057D02*
X205785714Y-84932438D01*
X205785714Y-84932438D02*
X205880952Y-84884819D01*
X205880952Y-84884819D02*
X206119047Y-84884819D01*
X206119047Y-84884819D02*
X206214285Y-84932438D01*
X206214285Y-84932438D02*
X206261904Y-84980057D01*
X206261904Y-84980057D02*
X206309523Y-85075295D01*
X206309523Y-85075295D02*
X206309523Y-85170533D01*
X206309523Y-85170533D02*
X206261904Y-85313390D01*
X206261904Y-85313390D02*
X205690476Y-85884819D01*
X205690476Y-85884819D02*
X206309523Y-85884819D01*
X206928571Y-84884819D02*
X207023809Y-84884819D01*
X207023809Y-84884819D02*
X207119047Y-84932438D01*
X207119047Y-84932438D02*
X207166666Y-84980057D01*
X207166666Y-84980057D02*
X207214285Y-85075295D01*
X207214285Y-85075295D02*
X207261904Y-85265771D01*
X207261904Y-85265771D02*
X207261904Y-85503866D01*
X207261904Y-85503866D02*
X207214285Y-85694342D01*
X207214285Y-85694342D02*
X207166666Y-85789580D01*
X207166666Y-85789580D02*
X207119047Y-85837200D01*
X207119047Y-85837200D02*
X207023809Y-85884819D01*
X207023809Y-85884819D02*
X206928571Y-85884819D01*
X206928571Y-85884819D02*
X206833333Y-85837200D01*
X206833333Y-85837200D02*
X206785714Y-85789580D01*
X206785714Y-85789580D02*
X206738095Y-85694342D01*
X206738095Y-85694342D02*
X206690476Y-85503866D01*
X206690476Y-85503866D02*
X206690476Y-85265771D01*
X206690476Y-85265771D02*
X206738095Y-85075295D01*
X206738095Y-85075295D02*
X206785714Y-84980057D01*
X206785714Y-84980057D02*
X206833333Y-84932438D01*
X206833333Y-84932438D02*
X206928571Y-84884819D01*
X205357142Y-80769580D02*
X205309523Y-80817200D01*
X205309523Y-80817200D02*
X205166666Y-80864819D01*
X205166666Y-80864819D02*
X205071428Y-80864819D01*
X205071428Y-80864819D02*
X204928571Y-80817200D01*
X204928571Y-80817200D02*
X204833333Y-80721961D01*
X204833333Y-80721961D02*
X204785714Y-80626723D01*
X204785714Y-80626723D02*
X204738095Y-80436247D01*
X204738095Y-80436247D02*
X204738095Y-80293390D01*
X204738095Y-80293390D02*
X204785714Y-80102914D01*
X204785714Y-80102914D02*
X204833333Y-80007676D01*
X204833333Y-80007676D02*
X204928571Y-79912438D01*
X204928571Y-79912438D02*
X205071428Y-79864819D01*
X205071428Y-79864819D02*
X205166666Y-79864819D01*
X205166666Y-79864819D02*
X205309523Y-79912438D01*
X205309523Y-79912438D02*
X205357142Y-79960057D01*
X206309523Y-80864819D02*
X205738095Y-80864819D01*
X206023809Y-80864819D02*
X206023809Y-79864819D01*
X206023809Y-79864819D02*
X205928571Y-80007676D01*
X205928571Y-80007676D02*
X205833333Y-80102914D01*
X205833333Y-80102914D02*
X205738095Y-80150533D01*
X206880952Y-80293390D02*
X206785714Y-80245771D01*
X206785714Y-80245771D02*
X206738095Y-80198152D01*
X206738095Y-80198152D02*
X206690476Y-80102914D01*
X206690476Y-80102914D02*
X206690476Y-80055295D01*
X206690476Y-80055295D02*
X206738095Y-79960057D01*
X206738095Y-79960057D02*
X206785714Y-79912438D01*
X206785714Y-79912438D02*
X206880952Y-79864819D01*
X206880952Y-79864819D02*
X207071428Y-79864819D01*
X207071428Y-79864819D02*
X207166666Y-79912438D01*
X207166666Y-79912438D02*
X207214285Y-79960057D01*
X207214285Y-79960057D02*
X207261904Y-80055295D01*
X207261904Y-80055295D02*
X207261904Y-80102914D01*
X207261904Y-80102914D02*
X207214285Y-80198152D01*
X207214285Y-80198152D02*
X207166666Y-80245771D01*
X207166666Y-80245771D02*
X207071428Y-80293390D01*
X207071428Y-80293390D02*
X206880952Y-80293390D01*
X206880952Y-80293390D02*
X206785714Y-80341009D01*
X206785714Y-80341009D02*
X206738095Y-80388628D01*
X206738095Y-80388628D02*
X206690476Y-80483866D01*
X206690476Y-80483866D02*
X206690476Y-80674342D01*
X206690476Y-80674342D02*
X206738095Y-80769580D01*
X206738095Y-80769580D02*
X206785714Y-80817200D01*
X206785714Y-80817200D02*
X206880952Y-80864819D01*
X206880952Y-80864819D02*
X207071428Y-80864819D01*
X207071428Y-80864819D02*
X207166666Y-80817200D01*
X207166666Y-80817200D02*
X207214285Y-80769580D01*
X207214285Y-80769580D02*
X207261904Y-80674342D01*
X207261904Y-80674342D02*
X207261904Y-80483866D01*
X207261904Y-80483866D02*
X207214285Y-80388628D01*
X207214285Y-80388628D02*
X207166666Y-80341009D01*
X207166666Y-80341009D02*
X207071428Y-80293390D01*
X205357142Y-78259580D02*
X205309523Y-78307200D01*
X205309523Y-78307200D02*
X205166666Y-78354819D01*
X205166666Y-78354819D02*
X205071428Y-78354819D01*
X205071428Y-78354819D02*
X204928571Y-78307200D01*
X204928571Y-78307200D02*
X204833333Y-78211961D01*
X204833333Y-78211961D02*
X204785714Y-78116723D01*
X204785714Y-78116723D02*
X204738095Y-77926247D01*
X204738095Y-77926247D02*
X204738095Y-77783390D01*
X204738095Y-77783390D02*
X204785714Y-77592914D01*
X204785714Y-77592914D02*
X204833333Y-77497676D01*
X204833333Y-77497676D02*
X204928571Y-77402438D01*
X204928571Y-77402438D02*
X205071428Y-77354819D01*
X205071428Y-77354819D02*
X205166666Y-77354819D01*
X205166666Y-77354819D02*
X205309523Y-77402438D01*
X205309523Y-77402438D02*
X205357142Y-77450057D01*
X206309523Y-78354819D02*
X205738095Y-78354819D01*
X206023809Y-78354819D02*
X206023809Y-77354819D01*
X206023809Y-77354819D02*
X205928571Y-77497676D01*
X205928571Y-77497676D02*
X205833333Y-77592914D01*
X205833333Y-77592914D02*
X205738095Y-77640533D01*
X206642857Y-77354819D02*
X207309523Y-77354819D01*
X207309523Y-77354819D02*
X206880952Y-78354819D01*
X205357142Y-93319580D02*
X205309523Y-93367200D01*
X205309523Y-93367200D02*
X205166666Y-93414819D01*
X205166666Y-93414819D02*
X205071428Y-93414819D01*
X205071428Y-93414819D02*
X204928571Y-93367200D01*
X204928571Y-93367200D02*
X204833333Y-93271961D01*
X204833333Y-93271961D02*
X204785714Y-93176723D01*
X204785714Y-93176723D02*
X204738095Y-92986247D01*
X204738095Y-92986247D02*
X204738095Y-92843390D01*
X204738095Y-92843390D02*
X204785714Y-92652914D01*
X204785714Y-92652914D02*
X204833333Y-92557676D01*
X204833333Y-92557676D02*
X204928571Y-92462438D01*
X204928571Y-92462438D02*
X205071428Y-92414819D01*
X205071428Y-92414819D02*
X205166666Y-92414819D01*
X205166666Y-92414819D02*
X205309523Y-92462438D01*
X205309523Y-92462438D02*
X205357142Y-92510057D01*
X205738095Y-92510057D02*
X205785714Y-92462438D01*
X205785714Y-92462438D02*
X205880952Y-92414819D01*
X205880952Y-92414819D02*
X206119047Y-92414819D01*
X206119047Y-92414819D02*
X206214285Y-92462438D01*
X206214285Y-92462438D02*
X206261904Y-92510057D01*
X206261904Y-92510057D02*
X206309523Y-92605295D01*
X206309523Y-92605295D02*
X206309523Y-92700533D01*
X206309523Y-92700533D02*
X206261904Y-92843390D01*
X206261904Y-92843390D02*
X205690476Y-93414819D01*
X205690476Y-93414819D02*
X206309523Y-93414819D01*
X206642857Y-92414819D02*
X207261904Y-92414819D01*
X207261904Y-92414819D02*
X206928571Y-92795771D01*
X206928571Y-92795771D02*
X207071428Y-92795771D01*
X207071428Y-92795771D02*
X207166666Y-92843390D01*
X207166666Y-92843390D02*
X207214285Y-92891009D01*
X207214285Y-92891009D02*
X207261904Y-92986247D01*
X207261904Y-92986247D02*
X207261904Y-93224342D01*
X207261904Y-93224342D02*
X207214285Y-93319580D01*
X207214285Y-93319580D02*
X207166666Y-93367200D01*
X207166666Y-93367200D02*
X207071428Y-93414819D01*
X207071428Y-93414819D02*
X206785714Y-93414819D01*
X206785714Y-93414819D02*
X206690476Y-93367200D01*
X206690476Y-93367200D02*
X206642857Y-93319580D01*
X201347142Y-95829580D02*
X201299523Y-95877200D01*
X201299523Y-95877200D02*
X201156666Y-95924819D01*
X201156666Y-95924819D02*
X201061428Y-95924819D01*
X201061428Y-95924819D02*
X200918571Y-95877200D01*
X200918571Y-95877200D02*
X200823333Y-95781961D01*
X200823333Y-95781961D02*
X200775714Y-95686723D01*
X200775714Y-95686723D02*
X200728095Y-95496247D01*
X200728095Y-95496247D02*
X200728095Y-95353390D01*
X200728095Y-95353390D02*
X200775714Y-95162914D01*
X200775714Y-95162914D02*
X200823333Y-95067676D01*
X200823333Y-95067676D02*
X200918571Y-94972438D01*
X200918571Y-94972438D02*
X201061428Y-94924819D01*
X201061428Y-94924819D02*
X201156666Y-94924819D01*
X201156666Y-94924819D02*
X201299523Y-94972438D01*
X201299523Y-94972438D02*
X201347142Y-95020057D01*
X202299523Y-95924819D02*
X201728095Y-95924819D01*
X202013809Y-95924819D02*
X202013809Y-94924819D01*
X202013809Y-94924819D02*
X201918571Y-95067676D01*
X201918571Y-95067676D02*
X201823333Y-95162914D01*
X201823333Y-95162914D02*
X201728095Y-95210533D01*
X203156666Y-94924819D02*
X202966190Y-94924819D01*
X202966190Y-94924819D02*
X202870952Y-94972438D01*
X202870952Y-94972438D02*
X202823333Y-95020057D01*
X202823333Y-95020057D02*
X202728095Y-95162914D01*
X202728095Y-95162914D02*
X202680476Y-95353390D01*
X202680476Y-95353390D02*
X202680476Y-95734342D01*
X202680476Y-95734342D02*
X202728095Y-95829580D01*
X202728095Y-95829580D02*
X202775714Y-95877200D01*
X202775714Y-95877200D02*
X202870952Y-95924819D01*
X202870952Y-95924819D02*
X203061428Y-95924819D01*
X203061428Y-95924819D02*
X203156666Y-95877200D01*
X203156666Y-95877200D02*
X203204285Y-95829580D01*
X203204285Y-95829580D02*
X203251904Y-95734342D01*
X203251904Y-95734342D02*
X203251904Y-95496247D01*
X203251904Y-95496247D02*
X203204285Y-95401009D01*
X203204285Y-95401009D02*
X203156666Y-95353390D01*
X203156666Y-95353390D02*
X203061428Y-95305771D01*
X203061428Y-95305771D02*
X202870952Y-95305771D01*
X202870952Y-95305771D02*
X202775714Y-95353390D01*
X202775714Y-95353390D02*
X202728095Y-95401009D01*
X202728095Y-95401009D02*
X202680476Y-95496247D01*
X205357142Y-95829580D02*
X205309523Y-95877200D01*
X205309523Y-95877200D02*
X205166666Y-95924819D01*
X205166666Y-95924819D02*
X205071428Y-95924819D01*
X205071428Y-95924819D02*
X204928571Y-95877200D01*
X204928571Y-95877200D02*
X204833333Y-95781961D01*
X204833333Y-95781961D02*
X204785714Y-95686723D01*
X204785714Y-95686723D02*
X204738095Y-95496247D01*
X204738095Y-95496247D02*
X204738095Y-95353390D01*
X204738095Y-95353390D02*
X204785714Y-95162914D01*
X204785714Y-95162914D02*
X204833333Y-95067676D01*
X204833333Y-95067676D02*
X204928571Y-94972438D01*
X204928571Y-94972438D02*
X205071428Y-94924819D01*
X205071428Y-94924819D02*
X205166666Y-94924819D01*
X205166666Y-94924819D02*
X205309523Y-94972438D01*
X205309523Y-94972438D02*
X205357142Y-95020057D01*
X206214285Y-95258152D02*
X206214285Y-95924819D01*
X205976190Y-94877200D02*
X205738095Y-95591485D01*
X205738095Y-95591485D02*
X206357142Y-95591485D01*
X207166666Y-94924819D02*
X206976190Y-94924819D01*
X206976190Y-94924819D02*
X206880952Y-94972438D01*
X206880952Y-94972438D02*
X206833333Y-95020057D01*
X206833333Y-95020057D02*
X206738095Y-95162914D01*
X206738095Y-95162914D02*
X206690476Y-95353390D01*
X206690476Y-95353390D02*
X206690476Y-95734342D01*
X206690476Y-95734342D02*
X206738095Y-95829580D01*
X206738095Y-95829580D02*
X206785714Y-95877200D01*
X206785714Y-95877200D02*
X206880952Y-95924819D01*
X206880952Y-95924819D02*
X207071428Y-95924819D01*
X207071428Y-95924819D02*
X207166666Y-95877200D01*
X207166666Y-95877200D02*
X207214285Y-95829580D01*
X207214285Y-95829580D02*
X207261904Y-95734342D01*
X207261904Y-95734342D02*
X207261904Y-95496247D01*
X207261904Y-95496247D02*
X207214285Y-95401009D01*
X207214285Y-95401009D02*
X207166666Y-95353390D01*
X207166666Y-95353390D02*
X207071428Y-95305771D01*
X207071428Y-95305771D02*
X206880952Y-95305771D01*
X206880952Y-95305771D02*
X206785714Y-95353390D01*
X206785714Y-95353390D02*
X206738095Y-95401009D01*
X206738095Y-95401009D02*
X206690476Y-95496247D01*
X209367142Y-78259580D02*
X209319523Y-78307200D01*
X209319523Y-78307200D02*
X209176666Y-78354819D01*
X209176666Y-78354819D02*
X209081428Y-78354819D01*
X209081428Y-78354819D02*
X208938571Y-78307200D01*
X208938571Y-78307200D02*
X208843333Y-78211961D01*
X208843333Y-78211961D02*
X208795714Y-78116723D01*
X208795714Y-78116723D02*
X208748095Y-77926247D01*
X208748095Y-77926247D02*
X208748095Y-77783390D01*
X208748095Y-77783390D02*
X208795714Y-77592914D01*
X208795714Y-77592914D02*
X208843333Y-77497676D01*
X208843333Y-77497676D02*
X208938571Y-77402438D01*
X208938571Y-77402438D02*
X209081428Y-77354819D01*
X209081428Y-77354819D02*
X209176666Y-77354819D01*
X209176666Y-77354819D02*
X209319523Y-77402438D01*
X209319523Y-77402438D02*
X209367142Y-77450057D01*
X210224285Y-77688152D02*
X210224285Y-78354819D01*
X209986190Y-77307200D02*
X209748095Y-78021485D01*
X209748095Y-78021485D02*
X210367142Y-78021485D01*
X210652857Y-77354819D02*
X211319523Y-77354819D01*
X211319523Y-77354819D02*
X210890952Y-78354819D01*
X209843333Y-88394819D02*
X209510000Y-87918628D01*
X209271905Y-88394819D02*
X209271905Y-87394819D01*
X209271905Y-87394819D02*
X209652857Y-87394819D01*
X209652857Y-87394819D02*
X209748095Y-87442438D01*
X209748095Y-87442438D02*
X209795714Y-87490057D01*
X209795714Y-87490057D02*
X209843333Y-87585295D01*
X209843333Y-87585295D02*
X209843333Y-87728152D01*
X209843333Y-87728152D02*
X209795714Y-87823390D01*
X209795714Y-87823390D02*
X209748095Y-87871009D01*
X209748095Y-87871009D02*
X209652857Y-87918628D01*
X209652857Y-87918628D02*
X209271905Y-87918628D01*
X210700476Y-87728152D02*
X210700476Y-88394819D01*
X210462381Y-87347200D02*
X210224286Y-88061485D01*
X210224286Y-88061485D02*
X210843333Y-88061485D01*
X209843333Y-90904819D02*
X209510000Y-90428628D01*
X209271905Y-90904819D02*
X209271905Y-89904819D01*
X209271905Y-89904819D02*
X209652857Y-89904819D01*
X209652857Y-89904819D02*
X209748095Y-89952438D01*
X209748095Y-89952438D02*
X209795714Y-90000057D01*
X209795714Y-90000057D02*
X209843333Y-90095295D01*
X209843333Y-90095295D02*
X209843333Y-90238152D01*
X209843333Y-90238152D02*
X209795714Y-90333390D01*
X209795714Y-90333390D02*
X209748095Y-90381009D01*
X209748095Y-90381009D02*
X209652857Y-90428628D01*
X209652857Y-90428628D02*
X209271905Y-90428628D01*
X210748095Y-89904819D02*
X210271905Y-89904819D01*
X210271905Y-89904819D02*
X210224286Y-90381009D01*
X210224286Y-90381009D02*
X210271905Y-90333390D01*
X210271905Y-90333390D02*
X210367143Y-90285771D01*
X210367143Y-90285771D02*
X210605238Y-90285771D01*
X210605238Y-90285771D02*
X210700476Y-90333390D01*
X210700476Y-90333390D02*
X210748095Y-90381009D01*
X210748095Y-90381009D02*
X210795714Y-90476247D01*
X210795714Y-90476247D02*
X210795714Y-90714342D01*
X210795714Y-90714342D02*
X210748095Y-90809580D01*
X210748095Y-90809580D02*
X210700476Y-90857200D01*
X210700476Y-90857200D02*
X210605238Y-90904819D01*
X210605238Y-90904819D02*
X210367143Y-90904819D01*
X210367143Y-90904819D02*
X210271905Y-90857200D01*
X210271905Y-90857200D02*
X210224286Y-90809580D01*
X209843333Y-83374819D02*
X209510000Y-82898628D01*
X209271905Y-83374819D02*
X209271905Y-82374819D01*
X209271905Y-82374819D02*
X209652857Y-82374819D01*
X209652857Y-82374819D02*
X209748095Y-82422438D01*
X209748095Y-82422438D02*
X209795714Y-82470057D01*
X209795714Y-82470057D02*
X209843333Y-82565295D01*
X209843333Y-82565295D02*
X209843333Y-82708152D01*
X209843333Y-82708152D02*
X209795714Y-82803390D01*
X209795714Y-82803390D02*
X209748095Y-82851009D01*
X209748095Y-82851009D02*
X209652857Y-82898628D01*
X209652857Y-82898628D02*
X209271905Y-82898628D01*
X210224286Y-82470057D02*
X210271905Y-82422438D01*
X210271905Y-82422438D02*
X210367143Y-82374819D01*
X210367143Y-82374819D02*
X210605238Y-82374819D01*
X210605238Y-82374819D02*
X210700476Y-82422438D01*
X210700476Y-82422438D02*
X210748095Y-82470057D01*
X210748095Y-82470057D02*
X210795714Y-82565295D01*
X210795714Y-82565295D02*
X210795714Y-82660533D01*
X210795714Y-82660533D02*
X210748095Y-82803390D01*
X210748095Y-82803390D02*
X210176667Y-83374819D01*
X210176667Y-83374819D02*
X210795714Y-83374819D01*
X209843333Y-80864819D02*
X209510000Y-80388628D01*
X209271905Y-80864819D02*
X209271905Y-79864819D01*
X209271905Y-79864819D02*
X209652857Y-79864819D01*
X209652857Y-79864819D02*
X209748095Y-79912438D01*
X209748095Y-79912438D02*
X209795714Y-79960057D01*
X209795714Y-79960057D02*
X209843333Y-80055295D01*
X209843333Y-80055295D02*
X209843333Y-80198152D01*
X209843333Y-80198152D02*
X209795714Y-80293390D01*
X209795714Y-80293390D02*
X209748095Y-80341009D01*
X209748095Y-80341009D02*
X209652857Y-80388628D01*
X209652857Y-80388628D02*
X209271905Y-80388628D01*
X210795714Y-80864819D02*
X210224286Y-80864819D01*
X210510000Y-80864819D02*
X210510000Y-79864819D01*
X210510000Y-79864819D02*
X210414762Y-80007676D01*
X210414762Y-80007676D02*
X210319524Y-80102914D01*
X210319524Y-80102914D02*
X210224286Y-80150533D01*
X209843333Y-85884819D02*
X209510000Y-85408628D01*
X209271905Y-85884819D02*
X209271905Y-84884819D01*
X209271905Y-84884819D02*
X209652857Y-84884819D01*
X209652857Y-84884819D02*
X209748095Y-84932438D01*
X209748095Y-84932438D02*
X209795714Y-84980057D01*
X209795714Y-84980057D02*
X209843333Y-85075295D01*
X209843333Y-85075295D02*
X209843333Y-85218152D01*
X209843333Y-85218152D02*
X209795714Y-85313390D01*
X209795714Y-85313390D02*
X209748095Y-85361009D01*
X209748095Y-85361009D02*
X209652857Y-85408628D01*
X209652857Y-85408628D02*
X209271905Y-85408628D01*
X210176667Y-84884819D02*
X210795714Y-84884819D01*
X210795714Y-84884819D02*
X210462381Y-85265771D01*
X210462381Y-85265771D02*
X210605238Y-85265771D01*
X210605238Y-85265771D02*
X210700476Y-85313390D01*
X210700476Y-85313390D02*
X210748095Y-85361009D01*
X210748095Y-85361009D02*
X210795714Y-85456247D01*
X210795714Y-85456247D02*
X210795714Y-85694342D01*
X210795714Y-85694342D02*
X210748095Y-85789580D01*
X210748095Y-85789580D02*
X210700476Y-85837200D01*
X210700476Y-85837200D02*
X210605238Y-85884819D01*
X210605238Y-85884819D02*
X210319524Y-85884819D01*
X210319524Y-85884819D02*
X210224286Y-85837200D01*
X210224286Y-85837200D02*
X210176667Y-85789580D01*
X209843333Y-93414819D02*
X209510000Y-92938628D01*
X209271905Y-93414819D02*
X209271905Y-92414819D01*
X209271905Y-92414819D02*
X209652857Y-92414819D01*
X209652857Y-92414819D02*
X209748095Y-92462438D01*
X209748095Y-92462438D02*
X209795714Y-92510057D01*
X209795714Y-92510057D02*
X209843333Y-92605295D01*
X209843333Y-92605295D02*
X209843333Y-92748152D01*
X209843333Y-92748152D02*
X209795714Y-92843390D01*
X209795714Y-92843390D02*
X209748095Y-92891009D01*
X209748095Y-92891009D02*
X209652857Y-92938628D01*
X209652857Y-92938628D02*
X209271905Y-92938628D01*
X210700476Y-92414819D02*
X210510000Y-92414819D01*
X210510000Y-92414819D02*
X210414762Y-92462438D01*
X210414762Y-92462438D02*
X210367143Y-92510057D01*
X210367143Y-92510057D02*
X210271905Y-92652914D01*
X210271905Y-92652914D02*
X210224286Y-92843390D01*
X210224286Y-92843390D02*
X210224286Y-93224342D01*
X210224286Y-93224342D02*
X210271905Y-93319580D01*
X210271905Y-93319580D02*
X210319524Y-93367200D01*
X210319524Y-93367200D02*
X210414762Y-93414819D01*
X210414762Y-93414819D02*
X210605238Y-93414819D01*
X210605238Y-93414819D02*
X210700476Y-93367200D01*
X210700476Y-93367200D02*
X210748095Y-93319580D01*
X210748095Y-93319580D02*
X210795714Y-93224342D01*
X210795714Y-93224342D02*
X210795714Y-92986247D01*
X210795714Y-92986247D02*
X210748095Y-92891009D01*
X210748095Y-92891009D02*
X210700476Y-92843390D01*
X210700476Y-92843390D02*
X210605238Y-92795771D01*
X210605238Y-92795771D02*
X210414762Y-92795771D01*
X210414762Y-92795771D02*
X210319524Y-92843390D01*
X210319524Y-92843390D02*
X210271905Y-92891009D01*
X210271905Y-92891009D02*
X210224286Y-92986247D01*
X209843333Y-95924819D02*
X209510000Y-95448628D01*
X209271905Y-95924819D02*
X209271905Y-94924819D01*
X209271905Y-94924819D02*
X209652857Y-94924819D01*
X209652857Y-94924819D02*
X209748095Y-94972438D01*
X209748095Y-94972438D02*
X209795714Y-95020057D01*
X209795714Y-95020057D02*
X209843333Y-95115295D01*
X209843333Y-95115295D02*
X209843333Y-95258152D01*
X209843333Y-95258152D02*
X209795714Y-95353390D01*
X209795714Y-95353390D02*
X209748095Y-95401009D01*
X209748095Y-95401009D02*
X209652857Y-95448628D01*
X209652857Y-95448628D02*
X209271905Y-95448628D01*
X210176667Y-94924819D02*
X210843333Y-94924819D01*
X210843333Y-94924819D02*
X210414762Y-95924819D01*
X197813333Y-80769580D02*
X197765714Y-80817200D01*
X197765714Y-80817200D02*
X197622857Y-80864819D01*
X197622857Y-80864819D02*
X197527619Y-80864819D01*
X197527619Y-80864819D02*
X197384762Y-80817200D01*
X197384762Y-80817200D02*
X197289524Y-80721961D01*
X197289524Y-80721961D02*
X197241905Y-80626723D01*
X197241905Y-80626723D02*
X197194286Y-80436247D01*
X197194286Y-80436247D02*
X197194286Y-80293390D01*
X197194286Y-80293390D02*
X197241905Y-80102914D01*
X197241905Y-80102914D02*
X197289524Y-80007676D01*
X197289524Y-80007676D02*
X197384762Y-79912438D01*
X197384762Y-79912438D02*
X197527619Y-79864819D01*
X197527619Y-79864819D02*
X197622857Y-79864819D01*
X197622857Y-79864819D02*
X197765714Y-79912438D01*
X197765714Y-79912438D02*
X197813333Y-79960057D01*
X198194286Y-79960057D02*
X198241905Y-79912438D01*
X198241905Y-79912438D02*
X198337143Y-79864819D01*
X198337143Y-79864819D02*
X198575238Y-79864819D01*
X198575238Y-79864819D02*
X198670476Y-79912438D01*
X198670476Y-79912438D02*
X198718095Y-79960057D01*
X198718095Y-79960057D02*
X198765714Y-80055295D01*
X198765714Y-80055295D02*
X198765714Y-80150533D01*
X198765714Y-80150533D02*
X198718095Y-80293390D01*
X198718095Y-80293390D02*
X198146667Y-80864819D01*
X198146667Y-80864819D02*
X198765714Y-80864819D01*
X197813333Y-78259580D02*
X197765714Y-78307200D01*
X197765714Y-78307200D02*
X197622857Y-78354819D01*
X197622857Y-78354819D02*
X197527619Y-78354819D01*
X197527619Y-78354819D02*
X197384762Y-78307200D01*
X197384762Y-78307200D02*
X197289524Y-78211961D01*
X197289524Y-78211961D02*
X197241905Y-78116723D01*
X197241905Y-78116723D02*
X197194286Y-77926247D01*
X197194286Y-77926247D02*
X197194286Y-77783390D01*
X197194286Y-77783390D02*
X197241905Y-77592914D01*
X197241905Y-77592914D02*
X197289524Y-77497676D01*
X197289524Y-77497676D02*
X197384762Y-77402438D01*
X197384762Y-77402438D02*
X197527619Y-77354819D01*
X197527619Y-77354819D02*
X197622857Y-77354819D01*
X197622857Y-77354819D02*
X197765714Y-77402438D01*
X197765714Y-77402438D02*
X197813333Y-77450057D01*
X198765714Y-78354819D02*
X198194286Y-78354819D01*
X198480000Y-78354819D02*
X198480000Y-77354819D01*
X198480000Y-77354819D02*
X198384762Y-77497676D01*
X198384762Y-77497676D02*
X198289524Y-77592914D01*
X198289524Y-77592914D02*
X198194286Y-77640533D01*
X197813333Y-88299580D02*
X197765714Y-88347200D01*
X197765714Y-88347200D02*
X197622857Y-88394819D01*
X197622857Y-88394819D02*
X197527619Y-88394819D01*
X197527619Y-88394819D02*
X197384762Y-88347200D01*
X197384762Y-88347200D02*
X197289524Y-88251961D01*
X197289524Y-88251961D02*
X197241905Y-88156723D01*
X197241905Y-88156723D02*
X197194286Y-87966247D01*
X197194286Y-87966247D02*
X197194286Y-87823390D01*
X197194286Y-87823390D02*
X197241905Y-87632914D01*
X197241905Y-87632914D02*
X197289524Y-87537676D01*
X197289524Y-87537676D02*
X197384762Y-87442438D01*
X197384762Y-87442438D02*
X197527619Y-87394819D01*
X197527619Y-87394819D02*
X197622857Y-87394819D01*
X197622857Y-87394819D02*
X197765714Y-87442438D01*
X197765714Y-87442438D02*
X197813333Y-87490057D01*
X198718095Y-87394819D02*
X198241905Y-87394819D01*
X198241905Y-87394819D02*
X198194286Y-87871009D01*
X198194286Y-87871009D02*
X198241905Y-87823390D01*
X198241905Y-87823390D02*
X198337143Y-87775771D01*
X198337143Y-87775771D02*
X198575238Y-87775771D01*
X198575238Y-87775771D02*
X198670476Y-87823390D01*
X198670476Y-87823390D02*
X198718095Y-87871009D01*
X198718095Y-87871009D02*
X198765714Y-87966247D01*
X198765714Y-87966247D02*
X198765714Y-88204342D01*
X198765714Y-88204342D02*
X198718095Y-88299580D01*
X198718095Y-88299580D02*
X198670476Y-88347200D01*
X198670476Y-88347200D02*
X198575238Y-88394819D01*
X198575238Y-88394819D02*
X198337143Y-88394819D01*
X198337143Y-88394819D02*
X198241905Y-88347200D01*
X198241905Y-88347200D02*
X198194286Y-88299580D01*
X197813333Y-83279580D02*
X197765714Y-83327200D01*
X197765714Y-83327200D02*
X197622857Y-83374819D01*
X197622857Y-83374819D02*
X197527619Y-83374819D01*
X197527619Y-83374819D02*
X197384762Y-83327200D01*
X197384762Y-83327200D02*
X197289524Y-83231961D01*
X197289524Y-83231961D02*
X197241905Y-83136723D01*
X197241905Y-83136723D02*
X197194286Y-82946247D01*
X197194286Y-82946247D02*
X197194286Y-82803390D01*
X197194286Y-82803390D02*
X197241905Y-82612914D01*
X197241905Y-82612914D02*
X197289524Y-82517676D01*
X197289524Y-82517676D02*
X197384762Y-82422438D01*
X197384762Y-82422438D02*
X197527619Y-82374819D01*
X197527619Y-82374819D02*
X197622857Y-82374819D01*
X197622857Y-82374819D02*
X197765714Y-82422438D01*
X197765714Y-82422438D02*
X197813333Y-82470057D01*
X198146667Y-82374819D02*
X198765714Y-82374819D01*
X198765714Y-82374819D02*
X198432381Y-82755771D01*
X198432381Y-82755771D02*
X198575238Y-82755771D01*
X198575238Y-82755771D02*
X198670476Y-82803390D01*
X198670476Y-82803390D02*
X198718095Y-82851009D01*
X198718095Y-82851009D02*
X198765714Y-82946247D01*
X198765714Y-82946247D02*
X198765714Y-83184342D01*
X198765714Y-83184342D02*
X198718095Y-83279580D01*
X198718095Y-83279580D02*
X198670476Y-83327200D01*
X198670476Y-83327200D02*
X198575238Y-83374819D01*
X198575238Y-83374819D02*
X198289524Y-83374819D01*
X198289524Y-83374819D02*
X198194286Y-83327200D01*
X198194286Y-83327200D02*
X198146667Y-83279580D01*
X197813333Y-85789580D02*
X197765714Y-85837200D01*
X197765714Y-85837200D02*
X197622857Y-85884819D01*
X197622857Y-85884819D02*
X197527619Y-85884819D01*
X197527619Y-85884819D02*
X197384762Y-85837200D01*
X197384762Y-85837200D02*
X197289524Y-85741961D01*
X197289524Y-85741961D02*
X197241905Y-85646723D01*
X197241905Y-85646723D02*
X197194286Y-85456247D01*
X197194286Y-85456247D02*
X197194286Y-85313390D01*
X197194286Y-85313390D02*
X197241905Y-85122914D01*
X197241905Y-85122914D02*
X197289524Y-85027676D01*
X197289524Y-85027676D02*
X197384762Y-84932438D01*
X197384762Y-84932438D02*
X197527619Y-84884819D01*
X197527619Y-84884819D02*
X197622857Y-84884819D01*
X197622857Y-84884819D02*
X197765714Y-84932438D01*
X197765714Y-84932438D02*
X197813333Y-84980057D01*
X198670476Y-85218152D02*
X198670476Y-85884819D01*
X198432381Y-84837200D02*
X198194286Y-85551485D01*
X198194286Y-85551485D02*
X198813333Y-85551485D01*
X201347142Y-83279580D02*
X201299523Y-83327200D01*
X201299523Y-83327200D02*
X201156666Y-83374819D01*
X201156666Y-83374819D02*
X201061428Y-83374819D01*
X201061428Y-83374819D02*
X200918571Y-83327200D01*
X200918571Y-83327200D02*
X200823333Y-83231961D01*
X200823333Y-83231961D02*
X200775714Y-83136723D01*
X200775714Y-83136723D02*
X200728095Y-82946247D01*
X200728095Y-82946247D02*
X200728095Y-82803390D01*
X200728095Y-82803390D02*
X200775714Y-82612914D01*
X200775714Y-82612914D02*
X200823333Y-82517676D01*
X200823333Y-82517676D02*
X200918571Y-82422438D01*
X200918571Y-82422438D02*
X201061428Y-82374819D01*
X201061428Y-82374819D02*
X201156666Y-82374819D01*
X201156666Y-82374819D02*
X201299523Y-82422438D01*
X201299523Y-82422438D02*
X201347142Y-82470057D01*
X202299523Y-83374819D02*
X201728095Y-83374819D01*
X202013809Y-83374819D02*
X202013809Y-82374819D01*
X202013809Y-82374819D02*
X201918571Y-82517676D01*
X201918571Y-82517676D02*
X201823333Y-82612914D01*
X201823333Y-82612914D02*
X201728095Y-82660533D01*
X203251904Y-83374819D02*
X202680476Y-83374819D01*
X202966190Y-83374819D02*
X202966190Y-82374819D01*
X202966190Y-82374819D02*
X202870952Y-82517676D01*
X202870952Y-82517676D02*
X202775714Y-82612914D01*
X202775714Y-82612914D02*
X202680476Y-82660533D01*
X201347142Y-90809580D02*
X201299523Y-90857200D01*
X201299523Y-90857200D02*
X201156666Y-90904819D01*
X201156666Y-90904819D02*
X201061428Y-90904819D01*
X201061428Y-90904819D02*
X200918571Y-90857200D01*
X200918571Y-90857200D02*
X200823333Y-90761961D01*
X200823333Y-90761961D02*
X200775714Y-90666723D01*
X200775714Y-90666723D02*
X200728095Y-90476247D01*
X200728095Y-90476247D02*
X200728095Y-90333390D01*
X200728095Y-90333390D02*
X200775714Y-90142914D01*
X200775714Y-90142914D02*
X200823333Y-90047676D01*
X200823333Y-90047676D02*
X200918571Y-89952438D01*
X200918571Y-89952438D02*
X201061428Y-89904819D01*
X201061428Y-89904819D02*
X201156666Y-89904819D01*
X201156666Y-89904819D02*
X201299523Y-89952438D01*
X201299523Y-89952438D02*
X201347142Y-90000057D01*
X202299523Y-90904819D02*
X201728095Y-90904819D01*
X202013809Y-90904819D02*
X202013809Y-89904819D01*
X202013809Y-89904819D02*
X201918571Y-90047676D01*
X201918571Y-90047676D02*
X201823333Y-90142914D01*
X201823333Y-90142914D02*
X201728095Y-90190533D01*
X203156666Y-90238152D02*
X203156666Y-90904819D01*
X202918571Y-89857200D02*
X202680476Y-90571485D01*
X202680476Y-90571485D02*
X203299523Y-90571485D01*
X197813333Y-90809580D02*
X197765714Y-90857200D01*
X197765714Y-90857200D02*
X197622857Y-90904819D01*
X197622857Y-90904819D02*
X197527619Y-90904819D01*
X197527619Y-90904819D02*
X197384762Y-90857200D01*
X197384762Y-90857200D02*
X197289524Y-90761961D01*
X197289524Y-90761961D02*
X197241905Y-90666723D01*
X197241905Y-90666723D02*
X197194286Y-90476247D01*
X197194286Y-90476247D02*
X197194286Y-90333390D01*
X197194286Y-90333390D02*
X197241905Y-90142914D01*
X197241905Y-90142914D02*
X197289524Y-90047676D01*
X197289524Y-90047676D02*
X197384762Y-89952438D01*
X197384762Y-89952438D02*
X197527619Y-89904819D01*
X197527619Y-89904819D02*
X197622857Y-89904819D01*
X197622857Y-89904819D02*
X197765714Y-89952438D01*
X197765714Y-89952438D02*
X197813333Y-90000057D01*
X198670476Y-89904819D02*
X198480000Y-89904819D01*
X198480000Y-89904819D02*
X198384762Y-89952438D01*
X198384762Y-89952438D02*
X198337143Y-90000057D01*
X198337143Y-90000057D02*
X198241905Y-90142914D01*
X198241905Y-90142914D02*
X198194286Y-90333390D01*
X198194286Y-90333390D02*
X198194286Y-90714342D01*
X198194286Y-90714342D02*
X198241905Y-90809580D01*
X198241905Y-90809580D02*
X198289524Y-90857200D01*
X198289524Y-90857200D02*
X198384762Y-90904819D01*
X198384762Y-90904819D02*
X198575238Y-90904819D01*
X198575238Y-90904819D02*
X198670476Y-90857200D01*
X198670476Y-90857200D02*
X198718095Y-90809580D01*
X198718095Y-90809580D02*
X198765714Y-90714342D01*
X198765714Y-90714342D02*
X198765714Y-90476247D01*
X198765714Y-90476247D02*
X198718095Y-90381009D01*
X198718095Y-90381009D02*
X198670476Y-90333390D01*
X198670476Y-90333390D02*
X198575238Y-90285771D01*
X198575238Y-90285771D02*
X198384762Y-90285771D01*
X198384762Y-90285771D02*
X198289524Y-90333390D01*
X198289524Y-90333390D02*
X198241905Y-90381009D01*
X198241905Y-90381009D02*
X198194286Y-90476247D01*
X197813333Y-93319580D02*
X197765714Y-93367200D01*
X197765714Y-93367200D02*
X197622857Y-93414819D01*
X197622857Y-93414819D02*
X197527619Y-93414819D01*
X197527619Y-93414819D02*
X197384762Y-93367200D01*
X197384762Y-93367200D02*
X197289524Y-93271961D01*
X197289524Y-93271961D02*
X197241905Y-93176723D01*
X197241905Y-93176723D02*
X197194286Y-92986247D01*
X197194286Y-92986247D02*
X197194286Y-92843390D01*
X197194286Y-92843390D02*
X197241905Y-92652914D01*
X197241905Y-92652914D02*
X197289524Y-92557676D01*
X197289524Y-92557676D02*
X197384762Y-92462438D01*
X197384762Y-92462438D02*
X197527619Y-92414819D01*
X197527619Y-92414819D02*
X197622857Y-92414819D01*
X197622857Y-92414819D02*
X197765714Y-92462438D01*
X197765714Y-92462438D02*
X197813333Y-92510057D01*
X198146667Y-92414819D02*
X198813333Y-92414819D01*
X198813333Y-92414819D02*
X198384762Y-93414819D01*
X197813333Y-95829580D02*
X197765714Y-95877200D01*
X197765714Y-95877200D02*
X197622857Y-95924819D01*
X197622857Y-95924819D02*
X197527619Y-95924819D01*
X197527619Y-95924819D02*
X197384762Y-95877200D01*
X197384762Y-95877200D02*
X197289524Y-95781961D01*
X197289524Y-95781961D02*
X197241905Y-95686723D01*
X197241905Y-95686723D02*
X197194286Y-95496247D01*
X197194286Y-95496247D02*
X197194286Y-95353390D01*
X197194286Y-95353390D02*
X197241905Y-95162914D01*
X197241905Y-95162914D02*
X197289524Y-95067676D01*
X197289524Y-95067676D02*
X197384762Y-94972438D01*
X197384762Y-94972438D02*
X197527619Y-94924819D01*
X197527619Y-94924819D02*
X197622857Y-94924819D01*
X197622857Y-94924819D02*
X197765714Y-94972438D01*
X197765714Y-94972438D02*
X197813333Y-95020057D01*
X198384762Y-95353390D02*
X198289524Y-95305771D01*
X198289524Y-95305771D02*
X198241905Y-95258152D01*
X198241905Y-95258152D02*
X198194286Y-95162914D01*
X198194286Y-95162914D02*
X198194286Y-95115295D01*
X198194286Y-95115295D02*
X198241905Y-95020057D01*
X198241905Y-95020057D02*
X198289524Y-94972438D01*
X198289524Y-94972438D02*
X198384762Y-94924819D01*
X198384762Y-94924819D02*
X198575238Y-94924819D01*
X198575238Y-94924819D02*
X198670476Y-94972438D01*
X198670476Y-94972438D02*
X198718095Y-95020057D01*
X198718095Y-95020057D02*
X198765714Y-95115295D01*
X198765714Y-95115295D02*
X198765714Y-95162914D01*
X198765714Y-95162914D02*
X198718095Y-95258152D01*
X198718095Y-95258152D02*
X198670476Y-95305771D01*
X198670476Y-95305771D02*
X198575238Y-95353390D01*
X198575238Y-95353390D02*
X198384762Y-95353390D01*
X198384762Y-95353390D02*
X198289524Y-95401009D01*
X198289524Y-95401009D02*
X198241905Y-95448628D01*
X198241905Y-95448628D02*
X198194286Y-95543866D01*
X198194286Y-95543866D02*
X198194286Y-95734342D01*
X198194286Y-95734342D02*
X198241905Y-95829580D01*
X198241905Y-95829580D02*
X198289524Y-95877200D01*
X198289524Y-95877200D02*
X198384762Y-95924819D01*
X198384762Y-95924819D02*
X198575238Y-95924819D01*
X198575238Y-95924819D02*
X198670476Y-95877200D01*
X198670476Y-95877200D02*
X198718095Y-95829580D01*
X198718095Y-95829580D02*
X198765714Y-95734342D01*
X198765714Y-95734342D02*
X198765714Y-95543866D01*
X198765714Y-95543866D02*
X198718095Y-95448628D01*
X198718095Y-95448628D02*
X198670476Y-95401009D01*
X198670476Y-95401009D02*
X198575238Y-95353390D01*
X201823333Y-78259580D02*
X201775714Y-78307200D01*
X201775714Y-78307200D02*
X201632857Y-78354819D01*
X201632857Y-78354819D02*
X201537619Y-78354819D01*
X201537619Y-78354819D02*
X201394762Y-78307200D01*
X201394762Y-78307200D02*
X201299524Y-78211961D01*
X201299524Y-78211961D02*
X201251905Y-78116723D01*
X201251905Y-78116723D02*
X201204286Y-77926247D01*
X201204286Y-77926247D02*
X201204286Y-77783390D01*
X201204286Y-77783390D02*
X201251905Y-77592914D01*
X201251905Y-77592914D02*
X201299524Y-77497676D01*
X201299524Y-77497676D02*
X201394762Y-77402438D01*
X201394762Y-77402438D02*
X201537619Y-77354819D01*
X201537619Y-77354819D02*
X201632857Y-77354819D01*
X201632857Y-77354819D02*
X201775714Y-77402438D01*
X201775714Y-77402438D02*
X201823333Y-77450057D01*
X202299524Y-78354819D02*
X202490000Y-78354819D01*
X202490000Y-78354819D02*
X202585238Y-78307200D01*
X202585238Y-78307200D02*
X202632857Y-78259580D01*
X202632857Y-78259580D02*
X202728095Y-78116723D01*
X202728095Y-78116723D02*
X202775714Y-77926247D01*
X202775714Y-77926247D02*
X202775714Y-77545295D01*
X202775714Y-77545295D02*
X202728095Y-77450057D01*
X202728095Y-77450057D02*
X202680476Y-77402438D01*
X202680476Y-77402438D02*
X202585238Y-77354819D01*
X202585238Y-77354819D02*
X202394762Y-77354819D01*
X202394762Y-77354819D02*
X202299524Y-77402438D01*
X202299524Y-77402438D02*
X202251905Y-77450057D01*
X202251905Y-77450057D02*
X202204286Y-77545295D01*
X202204286Y-77545295D02*
X202204286Y-77783390D01*
X202204286Y-77783390D02*
X202251905Y-77878628D01*
X202251905Y-77878628D02*
X202299524Y-77926247D01*
X202299524Y-77926247D02*
X202394762Y-77973866D01*
X202394762Y-77973866D02*
X202585238Y-77973866D01*
X202585238Y-77973866D02*
X202680476Y-77926247D01*
X202680476Y-77926247D02*
X202728095Y-77878628D01*
X202728095Y-77878628D02*
X202775714Y-77783390D01*
X201347142Y-85789580D02*
X201299523Y-85837200D01*
X201299523Y-85837200D02*
X201156666Y-85884819D01*
X201156666Y-85884819D02*
X201061428Y-85884819D01*
X201061428Y-85884819D02*
X200918571Y-85837200D01*
X200918571Y-85837200D02*
X200823333Y-85741961D01*
X200823333Y-85741961D02*
X200775714Y-85646723D01*
X200775714Y-85646723D02*
X200728095Y-85456247D01*
X200728095Y-85456247D02*
X200728095Y-85313390D01*
X200728095Y-85313390D02*
X200775714Y-85122914D01*
X200775714Y-85122914D02*
X200823333Y-85027676D01*
X200823333Y-85027676D02*
X200918571Y-84932438D01*
X200918571Y-84932438D02*
X201061428Y-84884819D01*
X201061428Y-84884819D02*
X201156666Y-84884819D01*
X201156666Y-84884819D02*
X201299523Y-84932438D01*
X201299523Y-84932438D02*
X201347142Y-84980057D01*
X202299523Y-85884819D02*
X201728095Y-85884819D01*
X202013809Y-85884819D02*
X202013809Y-84884819D01*
X202013809Y-84884819D02*
X201918571Y-85027676D01*
X201918571Y-85027676D02*
X201823333Y-85122914D01*
X201823333Y-85122914D02*
X201728095Y-85170533D01*
X202680476Y-84980057D02*
X202728095Y-84932438D01*
X202728095Y-84932438D02*
X202823333Y-84884819D01*
X202823333Y-84884819D02*
X203061428Y-84884819D01*
X203061428Y-84884819D02*
X203156666Y-84932438D01*
X203156666Y-84932438D02*
X203204285Y-84980057D01*
X203204285Y-84980057D02*
X203251904Y-85075295D01*
X203251904Y-85075295D02*
X203251904Y-85170533D01*
X203251904Y-85170533D02*
X203204285Y-85313390D01*
X203204285Y-85313390D02*
X202632857Y-85884819D01*
X202632857Y-85884819D02*
X203251904Y-85884819D01*
X201347142Y-80769580D02*
X201299523Y-80817200D01*
X201299523Y-80817200D02*
X201156666Y-80864819D01*
X201156666Y-80864819D02*
X201061428Y-80864819D01*
X201061428Y-80864819D02*
X200918571Y-80817200D01*
X200918571Y-80817200D02*
X200823333Y-80721961D01*
X200823333Y-80721961D02*
X200775714Y-80626723D01*
X200775714Y-80626723D02*
X200728095Y-80436247D01*
X200728095Y-80436247D02*
X200728095Y-80293390D01*
X200728095Y-80293390D02*
X200775714Y-80102914D01*
X200775714Y-80102914D02*
X200823333Y-80007676D01*
X200823333Y-80007676D02*
X200918571Y-79912438D01*
X200918571Y-79912438D02*
X201061428Y-79864819D01*
X201061428Y-79864819D02*
X201156666Y-79864819D01*
X201156666Y-79864819D02*
X201299523Y-79912438D01*
X201299523Y-79912438D02*
X201347142Y-79960057D01*
X202299523Y-80864819D02*
X201728095Y-80864819D01*
X202013809Y-80864819D02*
X202013809Y-79864819D01*
X202013809Y-79864819D02*
X201918571Y-80007676D01*
X201918571Y-80007676D02*
X201823333Y-80102914D01*
X201823333Y-80102914D02*
X201728095Y-80150533D01*
X202918571Y-79864819D02*
X203013809Y-79864819D01*
X203013809Y-79864819D02*
X203109047Y-79912438D01*
X203109047Y-79912438D02*
X203156666Y-79960057D01*
X203156666Y-79960057D02*
X203204285Y-80055295D01*
X203204285Y-80055295D02*
X203251904Y-80245771D01*
X203251904Y-80245771D02*
X203251904Y-80483866D01*
X203251904Y-80483866D02*
X203204285Y-80674342D01*
X203204285Y-80674342D02*
X203156666Y-80769580D01*
X203156666Y-80769580D02*
X203109047Y-80817200D01*
X203109047Y-80817200D02*
X203013809Y-80864819D01*
X203013809Y-80864819D02*
X202918571Y-80864819D01*
X202918571Y-80864819D02*
X202823333Y-80817200D01*
X202823333Y-80817200D02*
X202775714Y-80769580D01*
X202775714Y-80769580D02*
X202728095Y-80674342D01*
X202728095Y-80674342D02*
X202680476Y-80483866D01*
X202680476Y-80483866D02*
X202680476Y-80245771D01*
X202680476Y-80245771D02*
X202728095Y-80055295D01*
X202728095Y-80055295D02*
X202775714Y-79960057D01*
X202775714Y-79960057D02*
X202823333Y-79912438D01*
X202823333Y-79912438D02*
X202918571Y-79864819D01*
X201347142Y-88299580D02*
X201299523Y-88347200D01*
X201299523Y-88347200D02*
X201156666Y-88394819D01*
X201156666Y-88394819D02*
X201061428Y-88394819D01*
X201061428Y-88394819D02*
X200918571Y-88347200D01*
X200918571Y-88347200D02*
X200823333Y-88251961D01*
X200823333Y-88251961D02*
X200775714Y-88156723D01*
X200775714Y-88156723D02*
X200728095Y-87966247D01*
X200728095Y-87966247D02*
X200728095Y-87823390D01*
X200728095Y-87823390D02*
X200775714Y-87632914D01*
X200775714Y-87632914D02*
X200823333Y-87537676D01*
X200823333Y-87537676D02*
X200918571Y-87442438D01*
X200918571Y-87442438D02*
X201061428Y-87394819D01*
X201061428Y-87394819D02*
X201156666Y-87394819D01*
X201156666Y-87394819D02*
X201299523Y-87442438D01*
X201299523Y-87442438D02*
X201347142Y-87490057D01*
X202299523Y-88394819D02*
X201728095Y-88394819D01*
X202013809Y-88394819D02*
X202013809Y-87394819D01*
X202013809Y-87394819D02*
X201918571Y-87537676D01*
X201918571Y-87537676D02*
X201823333Y-87632914D01*
X201823333Y-87632914D02*
X201728095Y-87680533D01*
X202632857Y-87394819D02*
X203251904Y-87394819D01*
X203251904Y-87394819D02*
X202918571Y-87775771D01*
X202918571Y-87775771D02*
X203061428Y-87775771D01*
X203061428Y-87775771D02*
X203156666Y-87823390D01*
X203156666Y-87823390D02*
X203204285Y-87871009D01*
X203204285Y-87871009D02*
X203251904Y-87966247D01*
X203251904Y-87966247D02*
X203251904Y-88204342D01*
X203251904Y-88204342D02*
X203204285Y-88299580D01*
X203204285Y-88299580D02*
X203156666Y-88347200D01*
X203156666Y-88347200D02*
X203061428Y-88394819D01*
X203061428Y-88394819D02*
X202775714Y-88394819D01*
X202775714Y-88394819D02*
X202680476Y-88347200D01*
X202680476Y-88347200D02*
X202632857Y-88299580D01*
X201347142Y-93319580D02*
X201299523Y-93367200D01*
X201299523Y-93367200D02*
X201156666Y-93414819D01*
X201156666Y-93414819D02*
X201061428Y-93414819D01*
X201061428Y-93414819D02*
X200918571Y-93367200D01*
X200918571Y-93367200D02*
X200823333Y-93271961D01*
X200823333Y-93271961D02*
X200775714Y-93176723D01*
X200775714Y-93176723D02*
X200728095Y-92986247D01*
X200728095Y-92986247D02*
X200728095Y-92843390D01*
X200728095Y-92843390D02*
X200775714Y-92652914D01*
X200775714Y-92652914D02*
X200823333Y-92557676D01*
X200823333Y-92557676D02*
X200918571Y-92462438D01*
X200918571Y-92462438D02*
X201061428Y-92414819D01*
X201061428Y-92414819D02*
X201156666Y-92414819D01*
X201156666Y-92414819D02*
X201299523Y-92462438D01*
X201299523Y-92462438D02*
X201347142Y-92510057D01*
X202299523Y-93414819D02*
X201728095Y-93414819D01*
X202013809Y-93414819D02*
X202013809Y-92414819D01*
X202013809Y-92414819D02*
X201918571Y-92557676D01*
X201918571Y-92557676D02*
X201823333Y-92652914D01*
X201823333Y-92652914D02*
X201728095Y-92700533D01*
X203204285Y-92414819D02*
X202728095Y-92414819D01*
X202728095Y-92414819D02*
X202680476Y-92891009D01*
X202680476Y-92891009D02*
X202728095Y-92843390D01*
X202728095Y-92843390D02*
X202823333Y-92795771D01*
X202823333Y-92795771D02*
X203061428Y-92795771D01*
X203061428Y-92795771D02*
X203156666Y-92843390D01*
X203156666Y-92843390D02*
X203204285Y-92891009D01*
X203204285Y-92891009D02*
X203251904Y-92986247D01*
X203251904Y-92986247D02*
X203251904Y-93224342D01*
X203251904Y-93224342D02*
X203204285Y-93319580D01*
X203204285Y-93319580D02*
X203156666Y-93367200D01*
X203156666Y-93367200D02*
X203061428Y-93414819D01*
X203061428Y-93414819D02*
X202823333Y-93414819D01*
X202823333Y-93414819D02*
X202728095Y-93367200D01*
X202728095Y-93367200D02*
X202680476Y-93319580D01*
X213377142Y-88394819D02*
X213043809Y-87918628D01*
X212805714Y-88394819D02*
X212805714Y-87394819D01*
X212805714Y-87394819D02*
X213186666Y-87394819D01*
X213186666Y-87394819D02*
X213281904Y-87442438D01*
X213281904Y-87442438D02*
X213329523Y-87490057D01*
X213329523Y-87490057D02*
X213377142Y-87585295D01*
X213377142Y-87585295D02*
X213377142Y-87728152D01*
X213377142Y-87728152D02*
X213329523Y-87823390D01*
X213329523Y-87823390D02*
X213281904Y-87871009D01*
X213281904Y-87871009D02*
X213186666Y-87918628D01*
X213186666Y-87918628D02*
X212805714Y-87918628D01*
X213710476Y-87394819D02*
X214329523Y-87394819D01*
X214329523Y-87394819D02*
X213996190Y-87775771D01*
X213996190Y-87775771D02*
X214139047Y-87775771D01*
X214139047Y-87775771D02*
X214234285Y-87823390D01*
X214234285Y-87823390D02*
X214281904Y-87871009D01*
X214281904Y-87871009D02*
X214329523Y-87966247D01*
X214329523Y-87966247D02*
X214329523Y-88204342D01*
X214329523Y-88204342D02*
X214281904Y-88299580D01*
X214281904Y-88299580D02*
X214234285Y-88347200D01*
X214234285Y-88347200D02*
X214139047Y-88394819D01*
X214139047Y-88394819D02*
X213853333Y-88394819D01*
X213853333Y-88394819D02*
X213758095Y-88347200D01*
X213758095Y-88347200D02*
X213710476Y-88299580D01*
X215186666Y-87728152D02*
X215186666Y-88394819D01*
X214948571Y-87347200D02*
X214710476Y-88061485D01*
X214710476Y-88061485D02*
X215329523Y-88061485D01*
X213377142Y-83374819D02*
X213043809Y-82898628D01*
X212805714Y-83374819D02*
X212805714Y-82374819D01*
X212805714Y-82374819D02*
X213186666Y-82374819D01*
X213186666Y-82374819D02*
X213281904Y-82422438D01*
X213281904Y-82422438D02*
X213329523Y-82470057D01*
X213329523Y-82470057D02*
X213377142Y-82565295D01*
X213377142Y-82565295D02*
X213377142Y-82708152D01*
X213377142Y-82708152D02*
X213329523Y-82803390D01*
X213329523Y-82803390D02*
X213281904Y-82851009D01*
X213281904Y-82851009D02*
X213186666Y-82898628D01*
X213186666Y-82898628D02*
X212805714Y-82898628D01*
X213710476Y-82374819D02*
X214329523Y-82374819D01*
X214329523Y-82374819D02*
X213996190Y-82755771D01*
X213996190Y-82755771D02*
X214139047Y-82755771D01*
X214139047Y-82755771D02*
X214234285Y-82803390D01*
X214234285Y-82803390D02*
X214281904Y-82851009D01*
X214281904Y-82851009D02*
X214329523Y-82946247D01*
X214329523Y-82946247D02*
X214329523Y-83184342D01*
X214329523Y-83184342D02*
X214281904Y-83279580D01*
X214281904Y-83279580D02*
X214234285Y-83327200D01*
X214234285Y-83327200D02*
X214139047Y-83374819D01*
X214139047Y-83374819D02*
X213853333Y-83374819D01*
X213853333Y-83374819D02*
X213758095Y-83327200D01*
X213758095Y-83327200D02*
X213710476Y-83279580D01*
X214710476Y-82470057D02*
X214758095Y-82422438D01*
X214758095Y-82422438D02*
X214853333Y-82374819D01*
X214853333Y-82374819D02*
X215091428Y-82374819D01*
X215091428Y-82374819D02*
X215186666Y-82422438D01*
X215186666Y-82422438D02*
X215234285Y-82470057D01*
X215234285Y-82470057D02*
X215281904Y-82565295D01*
X215281904Y-82565295D02*
X215281904Y-82660533D01*
X215281904Y-82660533D02*
X215234285Y-82803390D01*
X215234285Y-82803390D02*
X214662857Y-83374819D01*
X214662857Y-83374819D02*
X215281904Y-83374819D01*
X213377142Y-80864819D02*
X213043809Y-80388628D01*
X212805714Y-80864819D02*
X212805714Y-79864819D01*
X212805714Y-79864819D02*
X213186666Y-79864819D01*
X213186666Y-79864819D02*
X213281904Y-79912438D01*
X213281904Y-79912438D02*
X213329523Y-79960057D01*
X213329523Y-79960057D02*
X213377142Y-80055295D01*
X213377142Y-80055295D02*
X213377142Y-80198152D01*
X213377142Y-80198152D02*
X213329523Y-80293390D01*
X213329523Y-80293390D02*
X213281904Y-80341009D01*
X213281904Y-80341009D02*
X213186666Y-80388628D01*
X213186666Y-80388628D02*
X212805714Y-80388628D01*
X213710476Y-79864819D02*
X214329523Y-79864819D01*
X214329523Y-79864819D02*
X213996190Y-80245771D01*
X213996190Y-80245771D02*
X214139047Y-80245771D01*
X214139047Y-80245771D02*
X214234285Y-80293390D01*
X214234285Y-80293390D02*
X214281904Y-80341009D01*
X214281904Y-80341009D02*
X214329523Y-80436247D01*
X214329523Y-80436247D02*
X214329523Y-80674342D01*
X214329523Y-80674342D02*
X214281904Y-80769580D01*
X214281904Y-80769580D02*
X214234285Y-80817200D01*
X214234285Y-80817200D02*
X214139047Y-80864819D01*
X214139047Y-80864819D02*
X213853333Y-80864819D01*
X213853333Y-80864819D02*
X213758095Y-80817200D01*
X213758095Y-80817200D02*
X213710476Y-80769580D01*
X214948571Y-79864819D02*
X215043809Y-79864819D01*
X215043809Y-79864819D02*
X215139047Y-79912438D01*
X215139047Y-79912438D02*
X215186666Y-79960057D01*
X215186666Y-79960057D02*
X215234285Y-80055295D01*
X215234285Y-80055295D02*
X215281904Y-80245771D01*
X215281904Y-80245771D02*
X215281904Y-80483866D01*
X215281904Y-80483866D02*
X215234285Y-80674342D01*
X215234285Y-80674342D02*
X215186666Y-80769580D01*
X215186666Y-80769580D02*
X215139047Y-80817200D01*
X215139047Y-80817200D02*
X215043809Y-80864819D01*
X215043809Y-80864819D02*
X214948571Y-80864819D01*
X214948571Y-80864819D02*
X214853333Y-80817200D01*
X214853333Y-80817200D02*
X214805714Y-80769580D01*
X214805714Y-80769580D02*
X214758095Y-80674342D01*
X214758095Y-80674342D02*
X214710476Y-80483866D01*
X214710476Y-80483866D02*
X214710476Y-80245771D01*
X214710476Y-80245771D02*
X214758095Y-80055295D01*
X214758095Y-80055295D02*
X214805714Y-79960057D01*
X214805714Y-79960057D02*
X214853333Y-79912438D01*
X214853333Y-79912438D02*
X214948571Y-79864819D01*
X213377142Y-85884819D02*
X213043809Y-85408628D01*
X212805714Y-85884819D02*
X212805714Y-84884819D01*
X212805714Y-84884819D02*
X213186666Y-84884819D01*
X213186666Y-84884819D02*
X213281904Y-84932438D01*
X213281904Y-84932438D02*
X213329523Y-84980057D01*
X213329523Y-84980057D02*
X213377142Y-85075295D01*
X213377142Y-85075295D02*
X213377142Y-85218152D01*
X213377142Y-85218152D02*
X213329523Y-85313390D01*
X213329523Y-85313390D02*
X213281904Y-85361009D01*
X213281904Y-85361009D02*
X213186666Y-85408628D01*
X213186666Y-85408628D02*
X212805714Y-85408628D01*
X213710476Y-84884819D02*
X214329523Y-84884819D01*
X214329523Y-84884819D02*
X213996190Y-85265771D01*
X213996190Y-85265771D02*
X214139047Y-85265771D01*
X214139047Y-85265771D02*
X214234285Y-85313390D01*
X214234285Y-85313390D02*
X214281904Y-85361009D01*
X214281904Y-85361009D02*
X214329523Y-85456247D01*
X214329523Y-85456247D02*
X214329523Y-85694342D01*
X214329523Y-85694342D02*
X214281904Y-85789580D01*
X214281904Y-85789580D02*
X214234285Y-85837200D01*
X214234285Y-85837200D02*
X214139047Y-85884819D01*
X214139047Y-85884819D02*
X213853333Y-85884819D01*
X213853333Y-85884819D02*
X213758095Y-85837200D01*
X213758095Y-85837200D02*
X213710476Y-85789580D01*
X214662857Y-84884819D02*
X215281904Y-84884819D01*
X215281904Y-84884819D02*
X214948571Y-85265771D01*
X214948571Y-85265771D02*
X215091428Y-85265771D01*
X215091428Y-85265771D02*
X215186666Y-85313390D01*
X215186666Y-85313390D02*
X215234285Y-85361009D01*
X215234285Y-85361009D02*
X215281904Y-85456247D01*
X215281904Y-85456247D02*
X215281904Y-85694342D01*
X215281904Y-85694342D02*
X215234285Y-85789580D01*
X215234285Y-85789580D02*
X215186666Y-85837200D01*
X215186666Y-85837200D02*
X215091428Y-85884819D01*
X215091428Y-85884819D02*
X214805714Y-85884819D01*
X214805714Y-85884819D02*
X214710476Y-85837200D01*
X214710476Y-85837200D02*
X214662857Y-85789580D01*
X213377142Y-90904819D02*
X213043809Y-90428628D01*
X212805714Y-90904819D02*
X212805714Y-89904819D01*
X212805714Y-89904819D02*
X213186666Y-89904819D01*
X213186666Y-89904819D02*
X213281904Y-89952438D01*
X213281904Y-89952438D02*
X213329523Y-90000057D01*
X213329523Y-90000057D02*
X213377142Y-90095295D01*
X213377142Y-90095295D02*
X213377142Y-90238152D01*
X213377142Y-90238152D02*
X213329523Y-90333390D01*
X213329523Y-90333390D02*
X213281904Y-90381009D01*
X213281904Y-90381009D02*
X213186666Y-90428628D01*
X213186666Y-90428628D02*
X212805714Y-90428628D01*
X213710476Y-89904819D02*
X214329523Y-89904819D01*
X214329523Y-89904819D02*
X213996190Y-90285771D01*
X213996190Y-90285771D02*
X214139047Y-90285771D01*
X214139047Y-90285771D02*
X214234285Y-90333390D01*
X214234285Y-90333390D02*
X214281904Y-90381009D01*
X214281904Y-90381009D02*
X214329523Y-90476247D01*
X214329523Y-90476247D02*
X214329523Y-90714342D01*
X214329523Y-90714342D02*
X214281904Y-90809580D01*
X214281904Y-90809580D02*
X214234285Y-90857200D01*
X214234285Y-90857200D02*
X214139047Y-90904819D01*
X214139047Y-90904819D02*
X213853333Y-90904819D01*
X213853333Y-90904819D02*
X213758095Y-90857200D01*
X213758095Y-90857200D02*
X213710476Y-90809580D01*
X215234285Y-89904819D02*
X214758095Y-89904819D01*
X214758095Y-89904819D02*
X214710476Y-90381009D01*
X214710476Y-90381009D02*
X214758095Y-90333390D01*
X214758095Y-90333390D02*
X214853333Y-90285771D01*
X214853333Y-90285771D02*
X215091428Y-90285771D01*
X215091428Y-90285771D02*
X215186666Y-90333390D01*
X215186666Y-90333390D02*
X215234285Y-90381009D01*
X215234285Y-90381009D02*
X215281904Y-90476247D01*
X215281904Y-90476247D02*
X215281904Y-90714342D01*
X215281904Y-90714342D02*
X215234285Y-90809580D01*
X215234285Y-90809580D02*
X215186666Y-90857200D01*
X215186666Y-90857200D02*
X215091428Y-90904819D01*
X215091428Y-90904819D02*
X214853333Y-90904819D01*
X214853333Y-90904819D02*
X214758095Y-90857200D01*
X214758095Y-90857200D02*
X214710476Y-90809580D01*
X206884819Y-38283333D02*
X207599104Y-38283333D01*
X207599104Y-38283333D02*
X207741961Y-38330952D01*
X207741961Y-38330952D02*
X207837200Y-38426190D01*
X207837200Y-38426190D02*
X207884819Y-38569047D01*
X207884819Y-38569047D02*
X207884819Y-38664285D01*
X206884819Y-37330952D02*
X206884819Y-37807142D01*
X206884819Y-37807142D02*
X207361009Y-37854761D01*
X207361009Y-37854761D02*
X207313390Y-37807142D01*
X207313390Y-37807142D02*
X207265771Y-37711904D01*
X207265771Y-37711904D02*
X207265771Y-37473809D01*
X207265771Y-37473809D02*
X207313390Y-37378571D01*
X207313390Y-37378571D02*
X207361009Y-37330952D01*
X207361009Y-37330952D02*
X207456247Y-37283333D01*
X207456247Y-37283333D02*
X207694342Y-37283333D01*
X207694342Y-37283333D02*
X207789580Y-37330952D01*
X207789580Y-37330952D02*
X207837200Y-37378571D01*
X207837200Y-37378571D02*
X207884819Y-37473809D01*
X207884819Y-37473809D02*
X207884819Y-37711904D01*
X207884819Y-37711904D02*
X207837200Y-37807142D01*
X207837200Y-37807142D02*
X207789580Y-37854761D01*
X76954819Y-82809523D02*
X77669104Y-82809523D01*
X77669104Y-82809523D02*
X77811961Y-82857142D01*
X77811961Y-82857142D02*
X77907200Y-82952380D01*
X77907200Y-82952380D02*
X77954819Y-83095237D01*
X77954819Y-83095237D02*
X77954819Y-83190475D01*
X77954819Y-81809523D02*
X77954819Y-82380951D01*
X77954819Y-82095237D02*
X76954819Y-82095237D01*
X76954819Y-82095237D02*
X77097676Y-82190475D01*
X77097676Y-82190475D02*
X77192914Y-82285713D01*
X77192914Y-82285713D02*
X77240533Y-82380951D01*
X77954819Y-80857142D02*
X77954819Y-81428570D01*
X77954819Y-81142856D02*
X76954819Y-81142856D01*
X76954819Y-81142856D02*
X77097676Y-81238094D01*
X77097676Y-81238094D02*
X77192914Y-81333332D01*
X77192914Y-81333332D02*
X77240533Y-81428570D01*
X76954819Y-69809523D02*
X77669104Y-69809523D01*
X77669104Y-69809523D02*
X77811961Y-69857142D01*
X77811961Y-69857142D02*
X77907200Y-69952380D01*
X77907200Y-69952380D02*
X77954819Y-70095237D01*
X77954819Y-70095237D02*
X77954819Y-70190475D01*
X77954819Y-68809523D02*
X77954819Y-69380951D01*
X77954819Y-69095237D02*
X76954819Y-69095237D01*
X76954819Y-69095237D02*
X77097676Y-69190475D01*
X77097676Y-69190475D02*
X77192914Y-69285713D01*
X77192914Y-69285713D02*
X77240533Y-69380951D01*
X76954819Y-68190475D02*
X76954819Y-68095237D01*
X76954819Y-68095237D02*
X77002438Y-67999999D01*
X77002438Y-67999999D02*
X77050057Y-67952380D01*
X77050057Y-67952380D02*
X77145295Y-67904761D01*
X77145295Y-67904761D02*
X77335771Y-67857142D01*
X77335771Y-67857142D02*
X77573866Y-67857142D01*
X77573866Y-67857142D02*
X77764342Y-67904761D01*
X77764342Y-67904761D02*
X77859580Y-67952380D01*
X77859580Y-67952380D02*
X77907200Y-67999999D01*
X77907200Y-67999999D02*
X77954819Y-68095237D01*
X77954819Y-68095237D02*
X77954819Y-68190475D01*
X77954819Y-68190475D02*
X77907200Y-68285713D01*
X77907200Y-68285713D02*
X77859580Y-68333332D01*
X77859580Y-68333332D02*
X77764342Y-68380951D01*
X77764342Y-68380951D02*
X77573866Y-68428570D01*
X77573866Y-68428570D02*
X77335771Y-68428570D01*
X77335771Y-68428570D02*
X77145295Y-68380951D01*
X77145295Y-68380951D02*
X77050057Y-68333332D01*
X77050057Y-68333332D02*
X77002438Y-68285713D01*
X77002438Y-68285713D02*
X76954819Y-68190475D01*
X176023809Y-70628628D02*
X176023809Y-71104819D01*
X175690476Y-70104819D02*
X176023809Y-70628628D01*
X176023809Y-70628628D02*
X176357142Y-70104819D01*
X177214285Y-71104819D02*
X176642857Y-71104819D01*
X176928571Y-71104819D02*
X176928571Y-70104819D01*
X176928571Y-70104819D02*
X176833333Y-70247676D01*
X176833333Y-70247676D02*
X176738095Y-70342914D01*
X176738095Y-70342914D02*
X176642857Y-70390533D01*
X131188095Y-60542319D02*
X131188095Y-61351842D01*
X131188095Y-61351842D02*
X131235714Y-61447080D01*
X131235714Y-61447080D02*
X131283333Y-61494700D01*
X131283333Y-61494700D02*
X131378571Y-61542319D01*
X131378571Y-61542319D02*
X131569047Y-61542319D01*
X131569047Y-61542319D02*
X131664285Y-61494700D01*
X131664285Y-61494700D02*
X131711904Y-61447080D01*
X131711904Y-61447080D02*
X131759523Y-61351842D01*
X131759523Y-61351842D02*
X131759523Y-60542319D01*
X132664285Y-60875652D02*
X132664285Y-61542319D01*
X132426190Y-60494700D02*
X132188095Y-61208985D01*
X132188095Y-61208985D02*
X132807142Y-61208985D01*
X100054819Y-74311904D02*
X100864342Y-74311904D01*
X100864342Y-74311904D02*
X100959580Y-74264285D01*
X100959580Y-74264285D02*
X101007200Y-74216666D01*
X101007200Y-74216666D02*
X101054819Y-74121428D01*
X101054819Y-74121428D02*
X101054819Y-73930952D01*
X101054819Y-73930952D02*
X101007200Y-73835714D01*
X101007200Y-73835714D02*
X100959580Y-73788095D01*
X100959580Y-73788095D02*
X100864342Y-73740476D01*
X100864342Y-73740476D02*
X100054819Y-73740476D01*
X100054819Y-73359523D02*
X100054819Y-72740476D01*
X100054819Y-72740476D02*
X100435771Y-73073809D01*
X100435771Y-73073809D02*
X100435771Y-72930952D01*
X100435771Y-72930952D02*
X100483390Y-72835714D01*
X100483390Y-72835714D02*
X100531009Y-72788095D01*
X100531009Y-72788095D02*
X100626247Y-72740476D01*
X100626247Y-72740476D02*
X100864342Y-72740476D01*
X100864342Y-72740476D02*
X100959580Y-72788095D01*
X100959580Y-72788095D02*
X101007200Y-72835714D01*
X101007200Y-72835714D02*
X101054819Y-72930952D01*
X101054819Y-72930952D02*
X101054819Y-73216666D01*
X101054819Y-73216666D02*
X101007200Y-73311904D01*
X101007200Y-73311904D02*
X100959580Y-73359523D01*
X162913095Y-57419819D02*
X162913095Y-58229342D01*
X162913095Y-58229342D02*
X162960714Y-58324580D01*
X162960714Y-58324580D02*
X163008333Y-58372200D01*
X163008333Y-58372200D02*
X163103571Y-58419819D01*
X163103571Y-58419819D02*
X163294047Y-58419819D01*
X163294047Y-58419819D02*
X163389285Y-58372200D01*
X163389285Y-58372200D02*
X163436904Y-58324580D01*
X163436904Y-58324580D02*
X163484523Y-58229342D01*
X163484523Y-58229342D02*
X163484523Y-57419819D01*
X163913095Y-57515057D02*
X163960714Y-57467438D01*
X163960714Y-57467438D02*
X164055952Y-57419819D01*
X164055952Y-57419819D02*
X164294047Y-57419819D01*
X164294047Y-57419819D02*
X164389285Y-57467438D01*
X164389285Y-57467438D02*
X164436904Y-57515057D01*
X164436904Y-57515057D02*
X164484523Y-57610295D01*
X164484523Y-57610295D02*
X164484523Y-57705533D01*
X164484523Y-57705533D02*
X164436904Y-57848390D01*
X164436904Y-57848390D02*
X163865476Y-58419819D01*
X163865476Y-58419819D02*
X164484523Y-58419819D01*
X175738095Y-54904819D02*
X175738095Y-55714342D01*
X175738095Y-55714342D02*
X175785714Y-55809580D01*
X175785714Y-55809580D02*
X175833333Y-55857200D01*
X175833333Y-55857200D02*
X175928571Y-55904819D01*
X175928571Y-55904819D02*
X176119047Y-55904819D01*
X176119047Y-55904819D02*
X176214285Y-55857200D01*
X176214285Y-55857200D02*
X176261904Y-55809580D01*
X176261904Y-55809580D02*
X176309523Y-55714342D01*
X176309523Y-55714342D02*
X176309523Y-54904819D01*
X177309523Y-55904819D02*
X176738095Y-55904819D01*
X177023809Y-55904819D02*
X177023809Y-54904819D01*
X177023809Y-54904819D02*
X176928571Y-55047676D01*
X176928571Y-55047676D02*
X176833333Y-55142914D01*
X176833333Y-55142914D02*
X176738095Y-55190533D01*
X217007200Y-88813332D02*
X217054819Y-88670475D01*
X217054819Y-88670475D02*
X217054819Y-88432380D01*
X217054819Y-88432380D02*
X217007200Y-88337142D01*
X217007200Y-88337142D02*
X216959580Y-88289523D01*
X216959580Y-88289523D02*
X216864342Y-88241904D01*
X216864342Y-88241904D02*
X216769104Y-88241904D01*
X216769104Y-88241904D02*
X216673866Y-88289523D01*
X216673866Y-88289523D02*
X216626247Y-88337142D01*
X216626247Y-88337142D02*
X216578628Y-88432380D01*
X216578628Y-88432380D02*
X216531009Y-88622856D01*
X216531009Y-88622856D02*
X216483390Y-88718094D01*
X216483390Y-88718094D02*
X216435771Y-88765713D01*
X216435771Y-88765713D02*
X216340533Y-88813332D01*
X216340533Y-88813332D02*
X216245295Y-88813332D01*
X216245295Y-88813332D02*
X216150057Y-88765713D01*
X216150057Y-88765713D02*
X216102438Y-88718094D01*
X216102438Y-88718094D02*
X216054819Y-88622856D01*
X216054819Y-88622856D02*
X216054819Y-88384761D01*
X216054819Y-88384761D02*
X216102438Y-88241904D01*
X216054819Y-87908570D02*
X217054819Y-87670475D01*
X217054819Y-87670475D02*
X216340533Y-87479999D01*
X216340533Y-87479999D02*
X217054819Y-87289523D01*
X217054819Y-87289523D02*
X216054819Y-87051428D01*
X216483390Y-86527618D02*
X216435771Y-86622856D01*
X216435771Y-86622856D02*
X216388152Y-86670475D01*
X216388152Y-86670475D02*
X216292914Y-86718094D01*
X216292914Y-86718094D02*
X216245295Y-86718094D01*
X216245295Y-86718094D02*
X216150057Y-86670475D01*
X216150057Y-86670475D02*
X216102438Y-86622856D01*
X216102438Y-86622856D02*
X216054819Y-86527618D01*
X216054819Y-86527618D02*
X216054819Y-86337142D01*
X216054819Y-86337142D02*
X216102438Y-86241904D01*
X216102438Y-86241904D02*
X216150057Y-86194285D01*
X216150057Y-86194285D02*
X216245295Y-86146666D01*
X216245295Y-86146666D02*
X216292914Y-86146666D01*
X216292914Y-86146666D02*
X216388152Y-86194285D01*
X216388152Y-86194285D02*
X216435771Y-86241904D01*
X216435771Y-86241904D02*
X216483390Y-86337142D01*
X216483390Y-86337142D02*
X216483390Y-86527618D01*
X216483390Y-86527618D02*
X216531009Y-86622856D01*
X216531009Y-86622856D02*
X216578628Y-86670475D01*
X216578628Y-86670475D02*
X216673866Y-86718094D01*
X216673866Y-86718094D02*
X216864342Y-86718094D01*
X216864342Y-86718094D02*
X216959580Y-86670475D01*
X216959580Y-86670475D02*
X217007200Y-86622856D01*
X217007200Y-86622856D02*
X217054819Y-86527618D01*
X217054819Y-86527618D02*
X217054819Y-86337142D01*
X217054819Y-86337142D02*
X217007200Y-86241904D01*
X217007200Y-86241904D02*
X216959580Y-86194285D01*
X216959580Y-86194285D02*
X216864342Y-86146666D01*
X216864342Y-86146666D02*
X216673866Y-86146666D01*
X216673866Y-86146666D02*
X216578628Y-86194285D01*
X216578628Y-86194285D02*
X216531009Y-86241904D01*
X216531009Y-86241904D02*
X216483390Y-86337142D01*
X218287200Y-60743332D02*
X218334819Y-60600475D01*
X218334819Y-60600475D02*
X218334819Y-60362380D01*
X218334819Y-60362380D02*
X218287200Y-60267142D01*
X218287200Y-60267142D02*
X218239580Y-60219523D01*
X218239580Y-60219523D02*
X218144342Y-60171904D01*
X218144342Y-60171904D02*
X218049104Y-60171904D01*
X218049104Y-60171904D02*
X217953866Y-60219523D01*
X217953866Y-60219523D02*
X217906247Y-60267142D01*
X217906247Y-60267142D02*
X217858628Y-60362380D01*
X217858628Y-60362380D02*
X217811009Y-60552856D01*
X217811009Y-60552856D02*
X217763390Y-60648094D01*
X217763390Y-60648094D02*
X217715771Y-60695713D01*
X217715771Y-60695713D02*
X217620533Y-60743332D01*
X217620533Y-60743332D02*
X217525295Y-60743332D01*
X217525295Y-60743332D02*
X217430057Y-60695713D01*
X217430057Y-60695713D02*
X217382438Y-60648094D01*
X217382438Y-60648094D02*
X217334819Y-60552856D01*
X217334819Y-60552856D02*
X217334819Y-60314761D01*
X217334819Y-60314761D02*
X217382438Y-60171904D01*
X217334819Y-59838570D02*
X218334819Y-59600475D01*
X218334819Y-59600475D02*
X217620533Y-59409999D01*
X217620533Y-59409999D02*
X218334819Y-59219523D01*
X218334819Y-59219523D02*
X217334819Y-58981428D01*
X217334819Y-58695713D02*
X217334819Y-58029047D01*
X217334819Y-58029047D02*
X218334819Y-58457618D01*
X192387200Y-61843332D02*
X192434819Y-61700475D01*
X192434819Y-61700475D02*
X192434819Y-61462380D01*
X192434819Y-61462380D02*
X192387200Y-61367142D01*
X192387200Y-61367142D02*
X192339580Y-61319523D01*
X192339580Y-61319523D02*
X192244342Y-61271904D01*
X192244342Y-61271904D02*
X192149104Y-61271904D01*
X192149104Y-61271904D02*
X192053866Y-61319523D01*
X192053866Y-61319523D02*
X192006247Y-61367142D01*
X192006247Y-61367142D02*
X191958628Y-61462380D01*
X191958628Y-61462380D02*
X191911009Y-61652856D01*
X191911009Y-61652856D02*
X191863390Y-61748094D01*
X191863390Y-61748094D02*
X191815771Y-61795713D01*
X191815771Y-61795713D02*
X191720533Y-61843332D01*
X191720533Y-61843332D02*
X191625295Y-61843332D01*
X191625295Y-61843332D02*
X191530057Y-61795713D01*
X191530057Y-61795713D02*
X191482438Y-61748094D01*
X191482438Y-61748094D02*
X191434819Y-61652856D01*
X191434819Y-61652856D02*
X191434819Y-61414761D01*
X191434819Y-61414761D02*
X191482438Y-61271904D01*
X191434819Y-60938570D02*
X192434819Y-60700475D01*
X192434819Y-60700475D02*
X191720533Y-60509999D01*
X191720533Y-60509999D02*
X192434819Y-60319523D01*
X192434819Y-60319523D02*
X191434819Y-60081428D01*
X191434819Y-59271904D02*
X191434819Y-59462380D01*
X191434819Y-59462380D02*
X191482438Y-59557618D01*
X191482438Y-59557618D02*
X191530057Y-59605237D01*
X191530057Y-59605237D02*
X191672914Y-59700475D01*
X191672914Y-59700475D02*
X191863390Y-59748094D01*
X191863390Y-59748094D02*
X192244342Y-59748094D01*
X192244342Y-59748094D02*
X192339580Y-59700475D01*
X192339580Y-59700475D02*
X192387200Y-59652856D01*
X192387200Y-59652856D02*
X192434819Y-59557618D01*
X192434819Y-59557618D02*
X192434819Y-59367142D01*
X192434819Y-59367142D02*
X192387200Y-59271904D01*
X192387200Y-59271904D02*
X192339580Y-59224285D01*
X192339580Y-59224285D02*
X192244342Y-59176666D01*
X192244342Y-59176666D02*
X192006247Y-59176666D01*
X192006247Y-59176666D02*
X191911009Y-59224285D01*
X191911009Y-59224285D02*
X191863390Y-59271904D01*
X191863390Y-59271904D02*
X191815771Y-59367142D01*
X191815771Y-59367142D02*
X191815771Y-59557618D01*
X191815771Y-59557618D02*
X191863390Y-59652856D01*
X191863390Y-59652856D02*
X191911009Y-59700475D01*
X191911009Y-59700475D02*
X192006247Y-59748094D01*
X225107200Y-72453332D02*
X225154819Y-72310475D01*
X225154819Y-72310475D02*
X225154819Y-72072380D01*
X225154819Y-72072380D02*
X225107200Y-71977142D01*
X225107200Y-71977142D02*
X225059580Y-71929523D01*
X225059580Y-71929523D02*
X224964342Y-71881904D01*
X224964342Y-71881904D02*
X224869104Y-71881904D01*
X224869104Y-71881904D02*
X224773866Y-71929523D01*
X224773866Y-71929523D02*
X224726247Y-71977142D01*
X224726247Y-71977142D02*
X224678628Y-72072380D01*
X224678628Y-72072380D02*
X224631009Y-72262856D01*
X224631009Y-72262856D02*
X224583390Y-72358094D01*
X224583390Y-72358094D02*
X224535771Y-72405713D01*
X224535771Y-72405713D02*
X224440533Y-72453332D01*
X224440533Y-72453332D02*
X224345295Y-72453332D01*
X224345295Y-72453332D02*
X224250057Y-72405713D01*
X224250057Y-72405713D02*
X224202438Y-72358094D01*
X224202438Y-72358094D02*
X224154819Y-72262856D01*
X224154819Y-72262856D02*
X224154819Y-72024761D01*
X224154819Y-72024761D02*
X224202438Y-71881904D01*
X224154819Y-71548570D02*
X225154819Y-71310475D01*
X225154819Y-71310475D02*
X224440533Y-71119999D01*
X224440533Y-71119999D02*
X225154819Y-70929523D01*
X225154819Y-70929523D02*
X224154819Y-70691428D01*
X225154819Y-69786666D02*
X225154819Y-70358094D01*
X225154819Y-70072380D02*
X224154819Y-70072380D01*
X224154819Y-70072380D02*
X224297676Y-70167618D01*
X224297676Y-70167618D02*
X224392914Y-70262856D01*
X224392914Y-70262856D02*
X224440533Y-70358094D01*
X106554819Y-86345238D02*
X106078628Y-86678571D01*
X106554819Y-86916666D02*
X105554819Y-86916666D01*
X105554819Y-86916666D02*
X105554819Y-86535714D01*
X105554819Y-86535714D02*
X105602438Y-86440476D01*
X105602438Y-86440476D02*
X105650057Y-86392857D01*
X105650057Y-86392857D02*
X105745295Y-86345238D01*
X105745295Y-86345238D02*
X105888152Y-86345238D01*
X105888152Y-86345238D02*
X105983390Y-86392857D01*
X105983390Y-86392857D02*
X106031009Y-86440476D01*
X106031009Y-86440476D02*
X106078628Y-86535714D01*
X106078628Y-86535714D02*
X106078628Y-86916666D01*
X105554819Y-86059523D02*
X106554819Y-85726190D01*
X106554819Y-85726190D02*
X105554819Y-85392857D01*
X105650057Y-85107142D02*
X105602438Y-85059523D01*
X105602438Y-85059523D02*
X105554819Y-84964285D01*
X105554819Y-84964285D02*
X105554819Y-84726190D01*
X105554819Y-84726190D02*
X105602438Y-84630952D01*
X105602438Y-84630952D02*
X105650057Y-84583333D01*
X105650057Y-84583333D02*
X105745295Y-84535714D01*
X105745295Y-84535714D02*
X105840533Y-84535714D01*
X105840533Y-84535714D02*
X105983390Y-84583333D01*
X105983390Y-84583333D02*
X106554819Y-85154761D01*
X106554819Y-85154761D02*
X106554819Y-84535714D01*
X90054819Y-86345238D02*
X89578628Y-86678571D01*
X90054819Y-86916666D02*
X89054819Y-86916666D01*
X89054819Y-86916666D02*
X89054819Y-86535714D01*
X89054819Y-86535714D02*
X89102438Y-86440476D01*
X89102438Y-86440476D02*
X89150057Y-86392857D01*
X89150057Y-86392857D02*
X89245295Y-86345238D01*
X89245295Y-86345238D02*
X89388152Y-86345238D01*
X89388152Y-86345238D02*
X89483390Y-86392857D01*
X89483390Y-86392857D02*
X89531009Y-86440476D01*
X89531009Y-86440476D02*
X89578628Y-86535714D01*
X89578628Y-86535714D02*
X89578628Y-86916666D01*
X89054819Y-86059523D02*
X90054819Y-85726190D01*
X90054819Y-85726190D02*
X89054819Y-85392857D01*
X90054819Y-84535714D02*
X90054819Y-85107142D01*
X90054819Y-84821428D02*
X89054819Y-84821428D01*
X89054819Y-84821428D02*
X89197676Y-84916666D01*
X89197676Y-84916666D02*
X89292914Y-85011904D01*
X89292914Y-85011904D02*
X89340533Y-85107142D01*
X149942142Y-68664819D02*
X149608809Y-68188628D01*
X149370714Y-68664819D02*
X149370714Y-67664819D01*
X149370714Y-67664819D02*
X149751666Y-67664819D01*
X149751666Y-67664819D02*
X149846904Y-67712438D01*
X149846904Y-67712438D02*
X149894523Y-67760057D01*
X149894523Y-67760057D02*
X149942142Y-67855295D01*
X149942142Y-67855295D02*
X149942142Y-67998152D01*
X149942142Y-67998152D02*
X149894523Y-68093390D01*
X149894523Y-68093390D02*
X149846904Y-68141009D01*
X149846904Y-68141009D02*
X149751666Y-68188628D01*
X149751666Y-68188628D02*
X149370714Y-68188628D01*
X150275476Y-67664819D02*
X150894523Y-67664819D01*
X150894523Y-67664819D02*
X150561190Y-68045771D01*
X150561190Y-68045771D02*
X150704047Y-68045771D01*
X150704047Y-68045771D02*
X150799285Y-68093390D01*
X150799285Y-68093390D02*
X150846904Y-68141009D01*
X150846904Y-68141009D02*
X150894523Y-68236247D01*
X150894523Y-68236247D02*
X150894523Y-68474342D01*
X150894523Y-68474342D02*
X150846904Y-68569580D01*
X150846904Y-68569580D02*
X150799285Y-68617200D01*
X150799285Y-68617200D02*
X150704047Y-68664819D01*
X150704047Y-68664819D02*
X150418333Y-68664819D01*
X150418333Y-68664819D02*
X150323095Y-68617200D01*
X150323095Y-68617200D02*
X150275476Y-68569580D01*
X151846904Y-68664819D02*
X151275476Y-68664819D01*
X151561190Y-68664819D02*
X151561190Y-67664819D01*
X151561190Y-67664819D02*
X151465952Y-67807676D01*
X151465952Y-67807676D02*
X151370714Y-67902914D01*
X151370714Y-67902914D02*
X151275476Y-67950533D01*
X149942142Y-66154819D02*
X149608809Y-65678628D01*
X149370714Y-66154819D02*
X149370714Y-65154819D01*
X149370714Y-65154819D02*
X149751666Y-65154819D01*
X149751666Y-65154819D02*
X149846904Y-65202438D01*
X149846904Y-65202438D02*
X149894523Y-65250057D01*
X149894523Y-65250057D02*
X149942142Y-65345295D01*
X149942142Y-65345295D02*
X149942142Y-65488152D01*
X149942142Y-65488152D02*
X149894523Y-65583390D01*
X149894523Y-65583390D02*
X149846904Y-65631009D01*
X149846904Y-65631009D02*
X149751666Y-65678628D01*
X149751666Y-65678628D02*
X149370714Y-65678628D01*
X150323095Y-65250057D02*
X150370714Y-65202438D01*
X150370714Y-65202438D02*
X150465952Y-65154819D01*
X150465952Y-65154819D02*
X150704047Y-65154819D01*
X150704047Y-65154819D02*
X150799285Y-65202438D01*
X150799285Y-65202438D02*
X150846904Y-65250057D01*
X150846904Y-65250057D02*
X150894523Y-65345295D01*
X150894523Y-65345295D02*
X150894523Y-65440533D01*
X150894523Y-65440533D02*
X150846904Y-65583390D01*
X150846904Y-65583390D02*
X150275476Y-66154819D01*
X150275476Y-66154819D02*
X150894523Y-66154819D01*
X151370714Y-66154819D02*
X151561190Y-66154819D01*
X151561190Y-66154819D02*
X151656428Y-66107200D01*
X151656428Y-66107200D02*
X151704047Y-66059580D01*
X151704047Y-66059580D02*
X151799285Y-65916723D01*
X151799285Y-65916723D02*
X151846904Y-65726247D01*
X151846904Y-65726247D02*
X151846904Y-65345295D01*
X151846904Y-65345295D02*
X151799285Y-65250057D01*
X151799285Y-65250057D02*
X151751666Y-65202438D01*
X151751666Y-65202438D02*
X151656428Y-65154819D01*
X151656428Y-65154819D02*
X151465952Y-65154819D01*
X151465952Y-65154819D02*
X151370714Y-65202438D01*
X151370714Y-65202438D02*
X151323095Y-65250057D01*
X151323095Y-65250057D02*
X151275476Y-65345295D01*
X151275476Y-65345295D02*
X151275476Y-65583390D01*
X151275476Y-65583390D02*
X151323095Y-65678628D01*
X151323095Y-65678628D02*
X151370714Y-65726247D01*
X151370714Y-65726247D02*
X151465952Y-65773866D01*
X151465952Y-65773866D02*
X151656428Y-65773866D01*
X151656428Y-65773866D02*
X151751666Y-65726247D01*
X151751666Y-65726247D02*
X151799285Y-65678628D01*
X151799285Y-65678628D02*
X151846904Y-65583390D01*
X149942142Y-63644819D02*
X149608809Y-63168628D01*
X149370714Y-63644819D02*
X149370714Y-62644819D01*
X149370714Y-62644819D02*
X149751666Y-62644819D01*
X149751666Y-62644819D02*
X149846904Y-62692438D01*
X149846904Y-62692438D02*
X149894523Y-62740057D01*
X149894523Y-62740057D02*
X149942142Y-62835295D01*
X149942142Y-62835295D02*
X149942142Y-62978152D01*
X149942142Y-62978152D02*
X149894523Y-63073390D01*
X149894523Y-63073390D02*
X149846904Y-63121009D01*
X149846904Y-63121009D02*
X149751666Y-63168628D01*
X149751666Y-63168628D02*
X149370714Y-63168628D01*
X150323095Y-62740057D02*
X150370714Y-62692438D01*
X150370714Y-62692438D02*
X150465952Y-62644819D01*
X150465952Y-62644819D02*
X150704047Y-62644819D01*
X150704047Y-62644819D02*
X150799285Y-62692438D01*
X150799285Y-62692438D02*
X150846904Y-62740057D01*
X150846904Y-62740057D02*
X150894523Y-62835295D01*
X150894523Y-62835295D02*
X150894523Y-62930533D01*
X150894523Y-62930533D02*
X150846904Y-63073390D01*
X150846904Y-63073390D02*
X150275476Y-63644819D01*
X150275476Y-63644819D02*
X150894523Y-63644819D01*
X151465952Y-63073390D02*
X151370714Y-63025771D01*
X151370714Y-63025771D02*
X151323095Y-62978152D01*
X151323095Y-62978152D02*
X151275476Y-62882914D01*
X151275476Y-62882914D02*
X151275476Y-62835295D01*
X151275476Y-62835295D02*
X151323095Y-62740057D01*
X151323095Y-62740057D02*
X151370714Y-62692438D01*
X151370714Y-62692438D02*
X151465952Y-62644819D01*
X151465952Y-62644819D02*
X151656428Y-62644819D01*
X151656428Y-62644819D02*
X151751666Y-62692438D01*
X151751666Y-62692438D02*
X151799285Y-62740057D01*
X151799285Y-62740057D02*
X151846904Y-62835295D01*
X151846904Y-62835295D02*
X151846904Y-62882914D01*
X151846904Y-62882914D02*
X151799285Y-62978152D01*
X151799285Y-62978152D02*
X151751666Y-63025771D01*
X151751666Y-63025771D02*
X151656428Y-63073390D01*
X151656428Y-63073390D02*
X151465952Y-63073390D01*
X151465952Y-63073390D02*
X151370714Y-63121009D01*
X151370714Y-63121009D02*
X151323095Y-63168628D01*
X151323095Y-63168628D02*
X151275476Y-63263866D01*
X151275476Y-63263866D02*
X151275476Y-63454342D01*
X151275476Y-63454342D02*
X151323095Y-63549580D01*
X151323095Y-63549580D02*
X151370714Y-63597200D01*
X151370714Y-63597200D02*
X151465952Y-63644819D01*
X151465952Y-63644819D02*
X151656428Y-63644819D01*
X151656428Y-63644819D02*
X151751666Y-63597200D01*
X151751666Y-63597200D02*
X151799285Y-63549580D01*
X151799285Y-63549580D02*
X151846904Y-63454342D01*
X151846904Y-63454342D02*
X151846904Y-63263866D01*
X151846904Y-63263866D02*
X151799285Y-63168628D01*
X151799285Y-63168628D02*
X151751666Y-63121009D01*
X151751666Y-63121009D02*
X151656428Y-63073390D01*
X149942142Y-61134819D02*
X149608809Y-60658628D01*
X149370714Y-61134819D02*
X149370714Y-60134819D01*
X149370714Y-60134819D02*
X149751666Y-60134819D01*
X149751666Y-60134819D02*
X149846904Y-60182438D01*
X149846904Y-60182438D02*
X149894523Y-60230057D01*
X149894523Y-60230057D02*
X149942142Y-60325295D01*
X149942142Y-60325295D02*
X149942142Y-60468152D01*
X149942142Y-60468152D02*
X149894523Y-60563390D01*
X149894523Y-60563390D02*
X149846904Y-60611009D01*
X149846904Y-60611009D02*
X149751666Y-60658628D01*
X149751666Y-60658628D02*
X149370714Y-60658628D01*
X150323095Y-60230057D02*
X150370714Y-60182438D01*
X150370714Y-60182438D02*
X150465952Y-60134819D01*
X150465952Y-60134819D02*
X150704047Y-60134819D01*
X150704047Y-60134819D02*
X150799285Y-60182438D01*
X150799285Y-60182438D02*
X150846904Y-60230057D01*
X150846904Y-60230057D02*
X150894523Y-60325295D01*
X150894523Y-60325295D02*
X150894523Y-60420533D01*
X150894523Y-60420533D02*
X150846904Y-60563390D01*
X150846904Y-60563390D02*
X150275476Y-61134819D01*
X150275476Y-61134819D02*
X150894523Y-61134819D01*
X151227857Y-60134819D02*
X151894523Y-60134819D01*
X151894523Y-60134819D02*
X151465952Y-61134819D01*
X149942142Y-58624819D02*
X149608809Y-58148628D01*
X149370714Y-58624819D02*
X149370714Y-57624819D01*
X149370714Y-57624819D02*
X149751666Y-57624819D01*
X149751666Y-57624819D02*
X149846904Y-57672438D01*
X149846904Y-57672438D02*
X149894523Y-57720057D01*
X149894523Y-57720057D02*
X149942142Y-57815295D01*
X149942142Y-57815295D02*
X149942142Y-57958152D01*
X149942142Y-57958152D02*
X149894523Y-58053390D01*
X149894523Y-58053390D02*
X149846904Y-58101009D01*
X149846904Y-58101009D02*
X149751666Y-58148628D01*
X149751666Y-58148628D02*
X149370714Y-58148628D01*
X150323095Y-57720057D02*
X150370714Y-57672438D01*
X150370714Y-57672438D02*
X150465952Y-57624819D01*
X150465952Y-57624819D02*
X150704047Y-57624819D01*
X150704047Y-57624819D02*
X150799285Y-57672438D01*
X150799285Y-57672438D02*
X150846904Y-57720057D01*
X150846904Y-57720057D02*
X150894523Y-57815295D01*
X150894523Y-57815295D02*
X150894523Y-57910533D01*
X150894523Y-57910533D02*
X150846904Y-58053390D01*
X150846904Y-58053390D02*
X150275476Y-58624819D01*
X150275476Y-58624819D02*
X150894523Y-58624819D01*
X151751666Y-57624819D02*
X151561190Y-57624819D01*
X151561190Y-57624819D02*
X151465952Y-57672438D01*
X151465952Y-57672438D02*
X151418333Y-57720057D01*
X151418333Y-57720057D02*
X151323095Y-57862914D01*
X151323095Y-57862914D02*
X151275476Y-58053390D01*
X151275476Y-58053390D02*
X151275476Y-58434342D01*
X151275476Y-58434342D02*
X151323095Y-58529580D01*
X151323095Y-58529580D02*
X151370714Y-58577200D01*
X151370714Y-58577200D02*
X151465952Y-58624819D01*
X151465952Y-58624819D02*
X151656428Y-58624819D01*
X151656428Y-58624819D02*
X151751666Y-58577200D01*
X151751666Y-58577200D02*
X151799285Y-58529580D01*
X151799285Y-58529580D02*
X151846904Y-58434342D01*
X151846904Y-58434342D02*
X151846904Y-58196247D01*
X151846904Y-58196247D02*
X151799285Y-58101009D01*
X151799285Y-58101009D02*
X151751666Y-58053390D01*
X151751666Y-58053390D02*
X151656428Y-58005771D01*
X151656428Y-58005771D02*
X151465952Y-58005771D01*
X151465952Y-58005771D02*
X151370714Y-58053390D01*
X151370714Y-58053390D02*
X151323095Y-58101009D01*
X151323095Y-58101009D02*
X151275476Y-58196247D01*
X145932142Y-71174819D02*
X145598809Y-70698628D01*
X145360714Y-71174819D02*
X145360714Y-70174819D01*
X145360714Y-70174819D02*
X145741666Y-70174819D01*
X145741666Y-70174819D02*
X145836904Y-70222438D01*
X145836904Y-70222438D02*
X145884523Y-70270057D01*
X145884523Y-70270057D02*
X145932142Y-70365295D01*
X145932142Y-70365295D02*
X145932142Y-70508152D01*
X145932142Y-70508152D02*
X145884523Y-70603390D01*
X145884523Y-70603390D02*
X145836904Y-70651009D01*
X145836904Y-70651009D02*
X145741666Y-70698628D01*
X145741666Y-70698628D02*
X145360714Y-70698628D01*
X146313095Y-70270057D02*
X146360714Y-70222438D01*
X146360714Y-70222438D02*
X146455952Y-70174819D01*
X146455952Y-70174819D02*
X146694047Y-70174819D01*
X146694047Y-70174819D02*
X146789285Y-70222438D01*
X146789285Y-70222438D02*
X146836904Y-70270057D01*
X146836904Y-70270057D02*
X146884523Y-70365295D01*
X146884523Y-70365295D02*
X146884523Y-70460533D01*
X146884523Y-70460533D02*
X146836904Y-70603390D01*
X146836904Y-70603390D02*
X146265476Y-71174819D01*
X146265476Y-71174819D02*
X146884523Y-71174819D01*
X147789285Y-70174819D02*
X147313095Y-70174819D01*
X147313095Y-70174819D02*
X147265476Y-70651009D01*
X147265476Y-70651009D02*
X147313095Y-70603390D01*
X147313095Y-70603390D02*
X147408333Y-70555771D01*
X147408333Y-70555771D02*
X147646428Y-70555771D01*
X147646428Y-70555771D02*
X147741666Y-70603390D01*
X147741666Y-70603390D02*
X147789285Y-70651009D01*
X147789285Y-70651009D02*
X147836904Y-70746247D01*
X147836904Y-70746247D02*
X147836904Y-70984342D01*
X147836904Y-70984342D02*
X147789285Y-71079580D01*
X147789285Y-71079580D02*
X147741666Y-71127200D01*
X147741666Y-71127200D02*
X147646428Y-71174819D01*
X147646428Y-71174819D02*
X147408333Y-71174819D01*
X147408333Y-71174819D02*
X147313095Y-71127200D01*
X147313095Y-71127200D02*
X147265476Y-71079580D01*
X96012142Y-64754819D02*
X95678809Y-64278628D01*
X95440714Y-64754819D02*
X95440714Y-63754819D01*
X95440714Y-63754819D02*
X95821666Y-63754819D01*
X95821666Y-63754819D02*
X95916904Y-63802438D01*
X95916904Y-63802438D02*
X95964523Y-63850057D01*
X95964523Y-63850057D02*
X96012142Y-63945295D01*
X96012142Y-63945295D02*
X96012142Y-64088152D01*
X96012142Y-64088152D02*
X95964523Y-64183390D01*
X95964523Y-64183390D02*
X95916904Y-64231009D01*
X95916904Y-64231009D02*
X95821666Y-64278628D01*
X95821666Y-64278628D02*
X95440714Y-64278628D01*
X96393095Y-63850057D02*
X96440714Y-63802438D01*
X96440714Y-63802438D02*
X96535952Y-63754819D01*
X96535952Y-63754819D02*
X96774047Y-63754819D01*
X96774047Y-63754819D02*
X96869285Y-63802438D01*
X96869285Y-63802438D02*
X96916904Y-63850057D01*
X96916904Y-63850057D02*
X96964523Y-63945295D01*
X96964523Y-63945295D02*
X96964523Y-64040533D01*
X96964523Y-64040533D02*
X96916904Y-64183390D01*
X96916904Y-64183390D02*
X96345476Y-64754819D01*
X96345476Y-64754819D02*
X96964523Y-64754819D01*
X97821666Y-64088152D02*
X97821666Y-64754819D01*
X97583571Y-63707200D02*
X97345476Y-64421485D01*
X97345476Y-64421485D02*
X97964523Y-64421485D01*
X96012142Y-62244819D02*
X95678809Y-61768628D01*
X95440714Y-62244819D02*
X95440714Y-61244819D01*
X95440714Y-61244819D02*
X95821666Y-61244819D01*
X95821666Y-61244819D02*
X95916904Y-61292438D01*
X95916904Y-61292438D02*
X95964523Y-61340057D01*
X95964523Y-61340057D02*
X96012142Y-61435295D01*
X96012142Y-61435295D02*
X96012142Y-61578152D01*
X96012142Y-61578152D02*
X95964523Y-61673390D01*
X95964523Y-61673390D02*
X95916904Y-61721009D01*
X95916904Y-61721009D02*
X95821666Y-61768628D01*
X95821666Y-61768628D02*
X95440714Y-61768628D01*
X96393095Y-61340057D02*
X96440714Y-61292438D01*
X96440714Y-61292438D02*
X96535952Y-61244819D01*
X96535952Y-61244819D02*
X96774047Y-61244819D01*
X96774047Y-61244819D02*
X96869285Y-61292438D01*
X96869285Y-61292438D02*
X96916904Y-61340057D01*
X96916904Y-61340057D02*
X96964523Y-61435295D01*
X96964523Y-61435295D02*
X96964523Y-61530533D01*
X96964523Y-61530533D02*
X96916904Y-61673390D01*
X96916904Y-61673390D02*
X96345476Y-62244819D01*
X96345476Y-62244819D02*
X96964523Y-62244819D01*
X97345476Y-61340057D02*
X97393095Y-61292438D01*
X97393095Y-61292438D02*
X97488333Y-61244819D01*
X97488333Y-61244819D02*
X97726428Y-61244819D01*
X97726428Y-61244819D02*
X97821666Y-61292438D01*
X97821666Y-61292438D02*
X97869285Y-61340057D01*
X97869285Y-61340057D02*
X97916904Y-61435295D01*
X97916904Y-61435295D02*
X97916904Y-61530533D01*
X97916904Y-61530533D02*
X97869285Y-61673390D01*
X97869285Y-61673390D02*
X97297857Y-62244819D01*
X97297857Y-62244819D02*
X97916904Y-62244819D01*
X96012142Y-59734819D02*
X95678809Y-59258628D01*
X95440714Y-59734819D02*
X95440714Y-58734819D01*
X95440714Y-58734819D02*
X95821666Y-58734819D01*
X95821666Y-58734819D02*
X95916904Y-58782438D01*
X95916904Y-58782438D02*
X95964523Y-58830057D01*
X95964523Y-58830057D02*
X96012142Y-58925295D01*
X96012142Y-58925295D02*
X96012142Y-59068152D01*
X96012142Y-59068152D02*
X95964523Y-59163390D01*
X95964523Y-59163390D02*
X95916904Y-59211009D01*
X95916904Y-59211009D02*
X95821666Y-59258628D01*
X95821666Y-59258628D02*
X95440714Y-59258628D01*
X96393095Y-58830057D02*
X96440714Y-58782438D01*
X96440714Y-58782438D02*
X96535952Y-58734819D01*
X96535952Y-58734819D02*
X96774047Y-58734819D01*
X96774047Y-58734819D02*
X96869285Y-58782438D01*
X96869285Y-58782438D02*
X96916904Y-58830057D01*
X96916904Y-58830057D02*
X96964523Y-58925295D01*
X96964523Y-58925295D02*
X96964523Y-59020533D01*
X96964523Y-59020533D02*
X96916904Y-59163390D01*
X96916904Y-59163390D02*
X96345476Y-59734819D01*
X96345476Y-59734819D02*
X96964523Y-59734819D01*
X97916904Y-59734819D02*
X97345476Y-59734819D01*
X97631190Y-59734819D02*
X97631190Y-58734819D01*
X97631190Y-58734819D02*
X97535952Y-58877676D01*
X97535952Y-58877676D02*
X97440714Y-58972914D01*
X97440714Y-58972914D02*
X97345476Y-59020533D01*
X96012142Y-57224819D02*
X95678809Y-56748628D01*
X95440714Y-57224819D02*
X95440714Y-56224819D01*
X95440714Y-56224819D02*
X95821666Y-56224819D01*
X95821666Y-56224819D02*
X95916904Y-56272438D01*
X95916904Y-56272438D02*
X95964523Y-56320057D01*
X95964523Y-56320057D02*
X96012142Y-56415295D01*
X96012142Y-56415295D02*
X96012142Y-56558152D01*
X96012142Y-56558152D02*
X95964523Y-56653390D01*
X95964523Y-56653390D02*
X95916904Y-56701009D01*
X95916904Y-56701009D02*
X95821666Y-56748628D01*
X95821666Y-56748628D02*
X95440714Y-56748628D01*
X96964523Y-57224819D02*
X96393095Y-57224819D01*
X96678809Y-57224819D02*
X96678809Y-56224819D01*
X96678809Y-56224819D02*
X96583571Y-56367676D01*
X96583571Y-56367676D02*
X96488333Y-56462914D01*
X96488333Y-56462914D02*
X96393095Y-56510533D01*
X97440714Y-57224819D02*
X97631190Y-57224819D01*
X97631190Y-57224819D02*
X97726428Y-57177200D01*
X97726428Y-57177200D02*
X97774047Y-57129580D01*
X97774047Y-57129580D02*
X97869285Y-56986723D01*
X97869285Y-56986723D02*
X97916904Y-56796247D01*
X97916904Y-56796247D02*
X97916904Y-56415295D01*
X97916904Y-56415295D02*
X97869285Y-56320057D01*
X97869285Y-56320057D02*
X97821666Y-56272438D01*
X97821666Y-56272438D02*
X97726428Y-56224819D01*
X97726428Y-56224819D02*
X97535952Y-56224819D01*
X97535952Y-56224819D02*
X97440714Y-56272438D01*
X97440714Y-56272438D02*
X97393095Y-56320057D01*
X97393095Y-56320057D02*
X97345476Y-56415295D01*
X97345476Y-56415295D02*
X97345476Y-56653390D01*
X97345476Y-56653390D02*
X97393095Y-56748628D01*
X97393095Y-56748628D02*
X97440714Y-56796247D01*
X97440714Y-56796247D02*
X97535952Y-56843866D01*
X97535952Y-56843866D02*
X97726428Y-56843866D01*
X97726428Y-56843866D02*
X97821666Y-56796247D01*
X97821666Y-56796247D02*
X97869285Y-56748628D01*
X97869285Y-56748628D02*
X97916904Y-56653390D01*
X92002142Y-69774819D02*
X91668809Y-69298628D01*
X91430714Y-69774819D02*
X91430714Y-68774819D01*
X91430714Y-68774819D02*
X91811666Y-68774819D01*
X91811666Y-68774819D02*
X91906904Y-68822438D01*
X91906904Y-68822438D02*
X91954523Y-68870057D01*
X91954523Y-68870057D02*
X92002142Y-68965295D01*
X92002142Y-68965295D02*
X92002142Y-69108152D01*
X92002142Y-69108152D02*
X91954523Y-69203390D01*
X91954523Y-69203390D02*
X91906904Y-69251009D01*
X91906904Y-69251009D02*
X91811666Y-69298628D01*
X91811666Y-69298628D02*
X91430714Y-69298628D01*
X92954523Y-69774819D02*
X92383095Y-69774819D01*
X92668809Y-69774819D02*
X92668809Y-68774819D01*
X92668809Y-68774819D02*
X92573571Y-68917676D01*
X92573571Y-68917676D02*
X92478333Y-69012914D01*
X92478333Y-69012914D02*
X92383095Y-69060533D01*
X93525952Y-69203390D02*
X93430714Y-69155771D01*
X93430714Y-69155771D02*
X93383095Y-69108152D01*
X93383095Y-69108152D02*
X93335476Y-69012914D01*
X93335476Y-69012914D02*
X93335476Y-68965295D01*
X93335476Y-68965295D02*
X93383095Y-68870057D01*
X93383095Y-68870057D02*
X93430714Y-68822438D01*
X93430714Y-68822438D02*
X93525952Y-68774819D01*
X93525952Y-68774819D02*
X93716428Y-68774819D01*
X93716428Y-68774819D02*
X93811666Y-68822438D01*
X93811666Y-68822438D02*
X93859285Y-68870057D01*
X93859285Y-68870057D02*
X93906904Y-68965295D01*
X93906904Y-68965295D02*
X93906904Y-69012914D01*
X93906904Y-69012914D02*
X93859285Y-69108152D01*
X93859285Y-69108152D02*
X93811666Y-69155771D01*
X93811666Y-69155771D02*
X93716428Y-69203390D01*
X93716428Y-69203390D02*
X93525952Y-69203390D01*
X93525952Y-69203390D02*
X93430714Y-69251009D01*
X93430714Y-69251009D02*
X93383095Y-69298628D01*
X93383095Y-69298628D02*
X93335476Y-69393866D01*
X93335476Y-69393866D02*
X93335476Y-69584342D01*
X93335476Y-69584342D02*
X93383095Y-69679580D01*
X93383095Y-69679580D02*
X93430714Y-69727200D01*
X93430714Y-69727200D02*
X93525952Y-69774819D01*
X93525952Y-69774819D02*
X93716428Y-69774819D01*
X93716428Y-69774819D02*
X93811666Y-69727200D01*
X93811666Y-69727200D02*
X93859285Y-69679580D01*
X93859285Y-69679580D02*
X93906904Y-69584342D01*
X93906904Y-69584342D02*
X93906904Y-69393866D01*
X93906904Y-69393866D02*
X93859285Y-69298628D01*
X93859285Y-69298628D02*
X93811666Y-69251009D01*
X93811666Y-69251009D02*
X93716428Y-69203390D01*
X92002142Y-67264819D02*
X91668809Y-66788628D01*
X91430714Y-67264819D02*
X91430714Y-66264819D01*
X91430714Y-66264819D02*
X91811666Y-66264819D01*
X91811666Y-66264819D02*
X91906904Y-66312438D01*
X91906904Y-66312438D02*
X91954523Y-66360057D01*
X91954523Y-66360057D02*
X92002142Y-66455295D01*
X92002142Y-66455295D02*
X92002142Y-66598152D01*
X92002142Y-66598152D02*
X91954523Y-66693390D01*
X91954523Y-66693390D02*
X91906904Y-66741009D01*
X91906904Y-66741009D02*
X91811666Y-66788628D01*
X91811666Y-66788628D02*
X91430714Y-66788628D01*
X92954523Y-67264819D02*
X92383095Y-67264819D01*
X92668809Y-67264819D02*
X92668809Y-66264819D01*
X92668809Y-66264819D02*
X92573571Y-66407676D01*
X92573571Y-66407676D02*
X92478333Y-66502914D01*
X92478333Y-66502914D02*
X92383095Y-66550533D01*
X93811666Y-66264819D02*
X93621190Y-66264819D01*
X93621190Y-66264819D02*
X93525952Y-66312438D01*
X93525952Y-66312438D02*
X93478333Y-66360057D01*
X93478333Y-66360057D02*
X93383095Y-66502914D01*
X93383095Y-66502914D02*
X93335476Y-66693390D01*
X93335476Y-66693390D02*
X93335476Y-67074342D01*
X93335476Y-67074342D02*
X93383095Y-67169580D01*
X93383095Y-67169580D02*
X93430714Y-67217200D01*
X93430714Y-67217200D02*
X93525952Y-67264819D01*
X93525952Y-67264819D02*
X93716428Y-67264819D01*
X93716428Y-67264819D02*
X93811666Y-67217200D01*
X93811666Y-67217200D02*
X93859285Y-67169580D01*
X93859285Y-67169580D02*
X93906904Y-67074342D01*
X93906904Y-67074342D02*
X93906904Y-66836247D01*
X93906904Y-66836247D02*
X93859285Y-66741009D01*
X93859285Y-66741009D02*
X93811666Y-66693390D01*
X93811666Y-66693390D02*
X93716428Y-66645771D01*
X93716428Y-66645771D02*
X93525952Y-66645771D01*
X93525952Y-66645771D02*
X93430714Y-66693390D01*
X93430714Y-66693390D02*
X93383095Y-66741009D01*
X93383095Y-66741009D02*
X93335476Y-66836247D01*
X92002142Y-64754819D02*
X91668809Y-64278628D01*
X91430714Y-64754819D02*
X91430714Y-63754819D01*
X91430714Y-63754819D02*
X91811666Y-63754819D01*
X91811666Y-63754819D02*
X91906904Y-63802438D01*
X91906904Y-63802438D02*
X91954523Y-63850057D01*
X91954523Y-63850057D02*
X92002142Y-63945295D01*
X92002142Y-63945295D02*
X92002142Y-64088152D01*
X92002142Y-64088152D02*
X91954523Y-64183390D01*
X91954523Y-64183390D02*
X91906904Y-64231009D01*
X91906904Y-64231009D02*
X91811666Y-64278628D01*
X91811666Y-64278628D02*
X91430714Y-64278628D01*
X92954523Y-64754819D02*
X92383095Y-64754819D01*
X92668809Y-64754819D02*
X92668809Y-63754819D01*
X92668809Y-63754819D02*
X92573571Y-63897676D01*
X92573571Y-63897676D02*
X92478333Y-63992914D01*
X92478333Y-63992914D02*
X92383095Y-64040533D01*
X93859285Y-63754819D02*
X93383095Y-63754819D01*
X93383095Y-63754819D02*
X93335476Y-64231009D01*
X93335476Y-64231009D02*
X93383095Y-64183390D01*
X93383095Y-64183390D02*
X93478333Y-64135771D01*
X93478333Y-64135771D02*
X93716428Y-64135771D01*
X93716428Y-64135771D02*
X93811666Y-64183390D01*
X93811666Y-64183390D02*
X93859285Y-64231009D01*
X93859285Y-64231009D02*
X93906904Y-64326247D01*
X93906904Y-64326247D02*
X93906904Y-64564342D01*
X93906904Y-64564342D02*
X93859285Y-64659580D01*
X93859285Y-64659580D02*
X93811666Y-64707200D01*
X93811666Y-64707200D02*
X93716428Y-64754819D01*
X93716428Y-64754819D02*
X93478333Y-64754819D01*
X93478333Y-64754819D02*
X93383095Y-64707200D01*
X93383095Y-64707200D02*
X93335476Y-64659580D01*
X92002142Y-62244819D02*
X91668809Y-61768628D01*
X91430714Y-62244819D02*
X91430714Y-61244819D01*
X91430714Y-61244819D02*
X91811666Y-61244819D01*
X91811666Y-61244819D02*
X91906904Y-61292438D01*
X91906904Y-61292438D02*
X91954523Y-61340057D01*
X91954523Y-61340057D02*
X92002142Y-61435295D01*
X92002142Y-61435295D02*
X92002142Y-61578152D01*
X92002142Y-61578152D02*
X91954523Y-61673390D01*
X91954523Y-61673390D02*
X91906904Y-61721009D01*
X91906904Y-61721009D02*
X91811666Y-61768628D01*
X91811666Y-61768628D02*
X91430714Y-61768628D01*
X92954523Y-62244819D02*
X92383095Y-62244819D01*
X92668809Y-62244819D02*
X92668809Y-61244819D01*
X92668809Y-61244819D02*
X92573571Y-61387676D01*
X92573571Y-61387676D02*
X92478333Y-61482914D01*
X92478333Y-61482914D02*
X92383095Y-61530533D01*
X93287857Y-61244819D02*
X93906904Y-61244819D01*
X93906904Y-61244819D02*
X93573571Y-61625771D01*
X93573571Y-61625771D02*
X93716428Y-61625771D01*
X93716428Y-61625771D02*
X93811666Y-61673390D01*
X93811666Y-61673390D02*
X93859285Y-61721009D01*
X93859285Y-61721009D02*
X93906904Y-61816247D01*
X93906904Y-61816247D02*
X93906904Y-62054342D01*
X93906904Y-62054342D02*
X93859285Y-62149580D01*
X93859285Y-62149580D02*
X93811666Y-62197200D01*
X93811666Y-62197200D02*
X93716428Y-62244819D01*
X93716428Y-62244819D02*
X93430714Y-62244819D01*
X93430714Y-62244819D02*
X93335476Y-62197200D01*
X93335476Y-62197200D02*
X93287857Y-62149580D01*
X92002142Y-59734819D02*
X91668809Y-59258628D01*
X91430714Y-59734819D02*
X91430714Y-58734819D01*
X91430714Y-58734819D02*
X91811666Y-58734819D01*
X91811666Y-58734819D02*
X91906904Y-58782438D01*
X91906904Y-58782438D02*
X91954523Y-58830057D01*
X91954523Y-58830057D02*
X92002142Y-58925295D01*
X92002142Y-58925295D02*
X92002142Y-59068152D01*
X92002142Y-59068152D02*
X91954523Y-59163390D01*
X91954523Y-59163390D02*
X91906904Y-59211009D01*
X91906904Y-59211009D02*
X91811666Y-59258628D01*
X91811666Y-59258628D02*
X91430714Y-59258628D01*
X92954523Y-59734819D02*
X92383095Y-59734819D01*
X92668809Y-59734819D02*
X92668809Y-58734819D01*
X92668809Y-58734819D02*
X92573571Y-58877676D01*
X92573571Y-58877676D02*
X92478333Y-58972914D01*
X92478333Y-58972914D02*
X92383095Y-59020533D01*
X93335476Y-58830057D02*
X93383095Y-58782438D01*
X93383095Y-58782438D02*
X93478333Y-58734819D01*
X93478333Y-58734819D02*
X93716428Y-58734819D01*
X93716428Y-58734819D02*
X93811666Y-58782438D01*
X93811666Y-58782438D02*
X93859285Y-58830057D01*
X93859285Y-58830057D02*
X93906904Y-58925295D01*
X93906904Y-58925295D02*
X93906904Y-59020533D01*
X93906904Y-59020533D02*
X93859285Y-59163390D01*
X93859285Y-59163390D02*
X93287857Y-59734819D01*
X93287857Y-59734819D02*
X93906904Y-59734819D01*
X92002142Y-57224819D02*
X91668809Y-56748628D01*
X91430714Y-57224819D02*
X91430714Y-56224819D01*
X91430714Y-56224819D02*
X91811666Y-56224819D01*
X91811666Y-56224819D02*
X91906904Y-56272438D01*
X91906904Y-56272438D02*
X91954523Y-56320057D01*
X91954523Y-56320057D02*
X92002142Y-56415295D01*
X92002142Y-56415295D02*
X92002142Y-56558152D01*
X92002142Y-56558152D02*
X91954523Y-56653390D01*
X91954523Y-56653390D02*
X91906904Y-56701009D01*
X91906904Y-56701009D02*
X91811666Y-56748628D01*
X91811666Y-56748628D02*
X91430714Y-56748628D01*
X92954523Y-57224819D02*
X92383095Y-57224819D01*
X92668809Y-57224819D02*
X92668809Y-56224819D01*
X92668809Y-56224819D02*
X92573571Y-56367676D01*
X92573571Y-56367676D02*
X92478333Y-56462914D01*
X92478333Y-56462914D02*
X92383095Y-56510533D01*
X93906904Y-57224819D02*
X93335476Y-57224819D01*
X93621190Y-57224819D02*
X93621190Y-56224819D01*
X93621190Y-56224819D02*
X93525952Y-56367676D01*
X93525952Y-56367676D02*
X93430714Y-56462914D01*
X93430714Y-56462914D02*
X93335476Y-56510533D01*
X87992142Y-69774819D02*
X87658809Y-69298628D01*
X87420714Y-69774819D02*
X87420714Y-68774819D01*
X87420714Y-68774819D02*
X87801666Y-68774819D01*
X87801666Y-68774819D02*
X87896904Y-68822438D01*
X87896904Y-68822438D02*
X87944523Y-68870057D01*
X87944523Y-68870057D02*
X87992142Y-68965295D01*
X87992142Y-68965295D02*
X87992142Y-69108152D01*
X87992142Y-69108152D02*
X87944523Y-69203390D01*
X87944523Y-69203390D02*
X87896904Y-69251009D01*
X87896904Y-69251009D02*
X87801666Y-69298628D01*
X87801666Y-69298628D02*
X87420714Y-69298628D01*
X88944523Y-69774819D02*
X88373095Y-69774819D01*
X88658809Y-69774819D02*
X88658809Y-68774819D01*
X88658809Y-68774819D02*
X88563571Y-68917676D01*
X88563571Y-68917676D02*
X88468333Y-69012914D01*
X88468333Y-69012914D02*
X88373095Y-69060533D01*
X89563571Y-68774819D02*
X89658809Y-68774819D01*
X89658809Y-68774819D02*
X89754047Y-68822438D01*
X89754047Y-68822438D02*
X89801666Y-68870057D01*
X89801666Y-68870057D02*
X89849285Y-68965295D01*
X89849285Y-68965295D02*
X89896904Y-69155771D01*
X89896904Y-69155771D02*
X89896904Y-69393866D01*
X89896904Y-69393866D02*
X89849285Y-69584342D01*
X89849285Y-69584342D02*
X89801666Y-69679580D01*
X89801666Y-69679580D02*
X89754047Y-69727200D01*
X89754047Y-69727200D02*
X89658809Y-69774819D01*
X89658809Y-69774819D02*
X89563571Y-69774819D01*
X89563571Y-69774819D02*
X89468333Y-69727200D01*
X89468333Y-69727200D02*
X89420714Y-69679580D01*
X89420714Y-69679580D02*
X89373095Y-69584342D01*
X89373095Y-69584342D02*
X89325476Y-69393866D01*
X89325476Y-69393866D02*
X89325476Y-69155771D01*
X89325476Y-69155771D02*
X89373095Y-68965295D01*
X89373095Y-68965295D02*
X89420714Y-68870057D01*
X89420714Y-68870057D02*
X89468333Y-68822438D01*
X89468333Y-68822438D02*
X89563571Y-68774819D01*
X88468333Y-67264819D02*
X88135000Y-66788628D01*
X87896905Y-67264819D02*
X87896905Y-66264819D01*
X87896905Y-66264819D02*
X88277857Y-66264819D01*
X88277857Y-66264819D02*
X88373095Y-66312438D01*
X88373095Y-66312438D02*
X88420714Y-66360057D01*
X88420714Y-66360057D02*
X88468333Y-66455295D01*
X88468333Y-66455295D02*
X88468333Y-66598152D01*
X88468333Y-66598152D02*
X88420714Y-66693390D01*
X88420714Y-66693390D02*
X88373095Y-66741009D01*
X88373095Y-66741009D02*
X88277857Y-66788628D01*
X88277857Y-66788628D02*
X87896905Y-66788628D01*
X88944524Y-67264819D02*
X89135000Y-67264819D01*
X89135000Y-67264819D02*
X89230238Y-67217200D01*
X89230238Y-67217200D02*
X89277857Y-67169580D01*
X89277857Y-67169580D02*
X89373095Y-67026723D01*
X89373095Y-67026723D02*
X89420714Y-66836247D01*
X89420714Y-66836247D02*
X89420714Y-66455295D01*
X89420714Y-66455295D02*
X89373095Y-66360057D01*
X89373095Y-66360057D02*
X89325476Y-66312438D01*
X89325476Y-66312438D02*
X89230238Y-66264819D01*
X89230238Y-66264819D02*
X89039762Y-66264819D01*
X89039762Y-66264819D02*
X88944524Y-66312438D01*
X88944524Y-66312438D02*
X88896905Y-66360057D01*
X88896905Y-66360057D02*
X88849286Y-66455295D01*
X88849286Y-66455295D02*
X88849286Y-66693390D01*
X88849286Y-66693390D02*
X88896905Y-66788628D01*
X88896905Y-66788628D02*
X88944524Y-66836247D01*
X88944524Y-66836247D02*
X89039762Y-66883866D01*
X89039762Y-66883866D02*
X89230238Y-66883866D01*
X89230238Y-66883866D02*
X89325476Y-66836247D01*
X89325476Y-66836247D02*
X89373095Y-66788628D01*
X89373095Y-66788628D02*
X89420714Y-66693390D01*
X164104761Y-73050057D02*
X164009523Y-73002438D01*
X164009523Y-73002438D02*
X163914285Y-72907200D01*
X163914285Y-72907200D02*
X163771428Y-72764342D01*
X163771428Y-72764342D02*
X163676190Y-72716723D01*
X163676190Y-72716723D02*
X163580952Y-72716723D01*
X163628571Y-72954819D02*
X163533333Y-72907200D01*
X163533333Y-72907200D02*
X163438095Y-72811961D01*
X163438095Y-72811961D02*
X163390476Y-72621485D01*
X163390476Y-72621485D02*
X163390476Y-72288152D01*
X163390476Y-72288152D02*
X163438095Y-72097676D01*
X163438095Y-72097676D02*
X163533333Y-72002438D01*
X163533333Y-72002438D02*
X163628571Y-71954819D01*
X163628571Y-71954819D02*
X163819047Y-71954819D01*
X163819047Y-71954819D02*
X163914285Y-72002438D01*
X163914285Y-72002438D02*
X164009523Y-72097676D01*
X164009523Y-72097676D02*
X164057142Y-72288152D01*
X164057142Y-72288152D02*
X164057142Y-72621485D01*
X164057142Y-72621485D02*
X164009523Y-72811961D01*
X164009523Y-72811961D02*
X163914285Y-72907200D01*
X163914285Y-72907200D02*
X163819047Y-72954819D01*
X163819047Y-72954819D02*
X163628571Y-72954819D01*
X164438095Y-72050057D02*
X164485714Y-72002438D01*
X164485714Y-72002438D02*
X164580952Y-71954819D01*
X164580952Y-71954819D02*
X164819047Y-71954819D01*
X164819047Y-71954819D02*
X164914285Y-72002438D01*
X164914285Y-72002438D02*
X164961904Y-72050057D01*
X164961904Y-72050057D02*
X165009523Y-72145295D01*
X165009523Y-72145295D02*
X165009523Y-72240533D01*
X165009523Y-72240533D02*
X164961904Y-72383390D01*
X164961904Y-72383390D02*
X164390476Y-72954819D01*
X164390476Y-72954819D02*
X165009523Y-72954819D01*
X162609761Y-64830057D02*
X162514523Y-64782438D01*
X162514523Y-64782438D02*
X162419285Y-64687200D01*
X162419285Y-64687200D02*
X162276428Y-64544342D01*
X162276428Y-64544342D02*
X162181190Y-64496723D01*
X162181190Y-64496723D02*
X162085952Y-64496723D01*
X162133571Y-64734819D02*
X162038333Y-64687200D01*
X162038333Y-64687200D02*
X161943095Y-64591961D01*
X161943095Y-64591961D02*
X161895476Y-64401485D01*
X161895476Y-64401485D02*
X161895476Y-64068152D01*
X161895476Y-64068152D02*
X161943095Y-63877676D01*
X161943095Y-63877676D02*
X162038333Y-63782438D01*
X162038333Y-63782438D02*
X162133571Y-63734819D01*
X162133571Y-63734819D02*
X162324047Y-63734819D01*
X162324047Y-63734819D02*
X162419285Y-63782438D01*
X162419285Y-63782438D02*
X162514523Y-63877676D01*
X162514523Y-63877676D02*
X162562142Y-64068152D01*
X162562142Y-64068152D02*
X162562142Y-64401485D01*
X162562142Y-64401485D02*
X162514523Y-64591961D01*
X162514523Y-64591961D02*
X162419285Y-64687200D01*
X162419285Y-64687200D02*
X162324047Y-64734819D01*
X162324047Y-64734819D02*
X162133571Y-64734819D01*
X163514523Y-64734819D02*
X162943095Y-64734819D01*
X163228809Y-64734819D02*
X163228809Y-63734819D01*
X163228809Y-63734819D02*
X163133571Y-63877676D01*
X163133571Y-63877676D02*
X163038333Y-63972914D01*
X163038333Y-63972914D02*
X162943095Y-64020533D01*
X135016666Y-84204819D02*
X135016666Y-84919104D01*
X135016666Y-84919104D02*
X134969047Y-85061961D01*
X134969047Y-85061961D02*
X134873809Y-85157200D01*
X134873809Y-85157200D02*
X134730952Y-85204819D01*
X134730952Y-85204819D02*
X134635714Y-85204819D01*
X135540476Y-85204819D02*
X135730952Y-85204819D01*
X135730952Y-85204819D02*
X135826190Y-85157200D01*
X135826190Y-85157200D02*
X135873809Y-85109580D01*
X135873809Y-85109580D02*
X135969047Y-84966723D01*
X135969047Y-84966723D02*
X136016666Y-84776247D01*
X136016666Y-84776247D02*
X136016666Y-84395295D01*
X136016666Y-84395295D02*
X135969047Y-84300057D01*
X135969047Y-84300057D02*
X135921428Y-84252438D01*
X135921428Y-84252438D02*
X135826190Y-84204819D01*
X135826190Y-84204819D02*
X135635714Y-84204819D01*
X135635714Y-84204819D02*
X135540476Y-84252438D01*
X135540476Y-84252438D02*
X135492857Y-84300057D01*
X135492857Y-84300057D02*
X135445238Y-84395295D01*
X135445238Y-84395295D02*
X135445238Y-84633390D01*
X135445238Y-84633390D02*
X135492857Y-84728628D01*
X135492857Y-84728628D02*
X135540476Y-84776247D01*
X135540476Y-84776247D02*
X135635714Y-84823866D01*
X135635714Y-84823866D02*
X135826190Y-84823866D01*
X135826190Y-84823866D02*
X135921428Y-84776247D01*
X135921428Y-84776247D02*
X135969047Y-84728628D01*
X135969047Y-84728628D02*
X136016666Y-84633390D01*
X227004819Y-87083333D02*
X227719104Y-87083333D01*
X227719104Y-87083333D02*
X227861961Y-87130952D01*
X227861961Y-87130952D02*
X227957200Y-87226190D01*
X227957200Y-87226190D02*
X228004819Y-87369047D01*
X228004819Y-87369047D02*
X228004819Y-87464285D01*
X227433390Y-86464285D02*
X227385771Y-86559523D01*
X227385771Y-86559523D02*
X227338152Y-86607142D01*
X227338152Y-86607142D02*
X227242914Y-86654761D01*
X227242914Y-86654761D02*
X227195295Y-86654761D01*
X227195295Y-86654761D02*
X227100057Y-86607142D01*
X227100057Y-86607142D02*
X227052438Y-86559523D01*
X227052438Y-86559523D02*
X227004819Y-86464285D01*
X227004819Y-86464285D02*
X227004819Y-86273809D01*
X227004819Y-86273809D02*
X227052438Y-86178571D01*
X227052438Y-86178571D02*
X227100057Y-86130952D01*
X227100057Y-86130952D02*
X227195295Y-86083333D01*
X227195295Y-86083333D02*
X227242914Y-86083333D01*
X227242914Y-86083333D02*
X227338152Y-86130952D01*
X227338152Y-86130952D02*
X227385771Y-86178571D01*
X227385771Y-86178571D02*
X227433390Y-86273809D01*
X227433390Y-86273809D02*
X227433390Y-86464285D01*
X227433390Y-86464285D02*
X227481009Y-86559523D01*
X227481009Y-86559523D02*
X227528628Y-86607142D01*
X227528628Y-86607142D02*
X227623866Y-86654761D01*
X227623866Y-86654761D02*
X227814342Y-86654761D01*
X227814342Y-86654761D02*
X227909580Y-86607142D01*
X227909580Y-86607142D02*
X227957200Y-86559523D01*
X227957200Y-86559523D02*
X228004819Y-86464285D01*
X228004819Y-86464285D02*
X228004819Y-86273809D01*
X228004819Y-86273809D02*
X227957200Y-86178571D01*
X227957200Y-86178571D02*
X227909580Y-86130952D01*
X227909580Y-86130952D02*
X227814342Y-86083333D01*
X227814342Y-86083333D02*
X227623866Y-86083333D01*
X227623866Y-86083333D02*
X227528628Y-86130952D01*
X227528628Y-86130952D02*
X227481009Y-86178571D01*
X227481009Y-86178571D02*
X227433390Y-86273809D01*
X115691666Y-85994819D02*
X115691666Y-86709104D01*
X115691666Y-86709104D02*
X115644047Y-86851961D01*
X115644047Y-86851961D02*
X115548809Y-86947200D01*
X115548809Y-86947200D02*
X115405952Y-86994819D01*
X115405952Y-86994819D02*
X115310714Y-86994819D01*
X116072619Y-85994819D02*
X116739285Y-85994819D01*
X116739285Y-85994819D02*
X116310714Y-86994819D01*
X177954819Y-38383333D02*
X178669104Y-38383333D01*
X178669104Y-38383333D02*
X178811961Y-38430952D01*
X178811961Y-38430952D02*
X178907200Y-38526190D01*
X178907200Y-38526190D02*
X178954819Y-38669047D01*
X178954819Y-38669047D02*
X178954819Y-38764285D01*
X177954819Y-37478571D02*
X177954819Y-37669047D01*
X177954819Y-37669047D02*
X178002438Y-37764285D01*
X178002438Y-37764285D02*
X178050057Y-37811904D01*
X178050057Y-37811904D02*
X178192914Y-37907142D01*
X178192914Y-37907142D02*
X178383390Y-37954761D01*
X178383390Y-37954761D02*
X178764342Y-37954761D01*
X178764342Y-37954761D02*
X178859580Y-37907142D01*
X178859580Y-37907142D02*
X178907200Y-37859523D01*
X178907200Y-37859523D02*
X178954819Y-37764285D01*
X178954819Y-37764285D02*
X178954819Y-37573809D01*
X178954819Y-37573809D02*
X178907200Y-37478571D01*
X178907200Y-37478571D02*
X178859580Y-37430952D01*
X178859580Y-37430952D02*
X178764342Y-37383333D01*
X178764342Y-37383333D02*
X178526247Y-37383333D01*
X178526247Y-37383333D02*
X178431009Y-37430952D01*
X178431009Y-37430952D02*
X178383390Y-37478571D01*
X178383390Y-37478571D02*
X178335771Y-37573809D01*
X178335771Y-37573809D02*
X178335771Y-37764285D01*
X178335771Y-37764285D02*
X178383390Y-37859523D01*
X178383390Y-37859523D02*
X178431009Y-37907142D01*
X178431009Y-37907142D02*
X178526247Y-37954761D01*
X165076666Y-49454819D02*
X165076666Y-50169104D01*
X165076666Y-50169104D02*
X165029047Y-50311961D01*
X165029047Y-50311961D02*
X164933809Y-50407200D01*
X164933809Y-50407200D02*
X164790952Y-50454819D01*
X164790952Y-50454819D02*
X164695714Y-50454819D01*
X165981428Y-49788152D02*
X165981428Y-50454819D01*
X165743333Y-49407200D02*
X165505238Y-50121485D01*
X165505238Y-50121485D02*
X166124285Y-50121485D01*
X136676666Y-49354819D02*
X136676666Y-50069104D01*
X136676666Y-50069104D02*
X136629047Y-50211961D01*
X136629047Y-50211961D02*
X136533809Y-50307200D01*
X136533809Y-50307200D02*
X136390952Y-50354819D01*
X136390952Y-50354819D02*
X136295714Y-50354819D01*
X137057619Y-49354819D02*
X137676666Y-49354819D01*
X137676666Y-49354819D02*
X137343333Y-49735771D01*
X137343333Y-49735771D02*
X137486190Y-49735771D01*
X137486190Y-49735771D02*
X137581428Y-49783390D01*
X137581428Y-49783390D02*
X137629047Y-49831009D01*
X137629047Y-49831009D02*
X137676666Y-49926247D01*
X137676666Y-49926247D02*
X137676666Y-50164342D01*
X137676666Y-50164342D02*
X137629047Y-50259580D01*
X137629047Y-50259580D02*
X137581428Y-50307200D01*
X137581428Y-50307200D02*
X137486190Y-50354819D01*
X137486190Y-50354819D02*
X137200476Y-50354819D01*
X137200476Y-50354819D02*
X137105238Y-50307200D01*
X137105238Y-50307200D02*
X137057619Y-50259580D01*
X106556666Y-49254819D02*
X106556666Y-49969104D01*
X106556666Y-49969104D02*
X106509047Y-50111961D01*
X106509047Y-50111961D02*
X106413809Y-50207200D01*
X106413809Y-50207200D02*
X106270952Y-50254819D01*
X106270952Y-50254819D02*
X106175714Y-50254819D01*
X106985238Y-49350057D02*
X107032857Y-49302438D01*
X107032857Y-49302438D02*
X107128095Y-49254819D01*
X107128095Y-49254819D02*
X107366190Y-49254819D01*
X107366190Y-49254819D02*
X107461428Y-49302438D01*
X107461428Y-49302438D02*
X107509047Y-49350057D01*
X107509047Y-49350057D02*
X107556666Y-49445295D01*
X107556666Y-49445295D02*
X107556666Y-49540533D01*
X107556666Y-49540533D02*
X107509047Y-49683390D01*
X107509047Y-49683390D02*
X106937619Y-50254819D01*
X106937619Y-50254819D02*
X107556666Y-50254819D01*
X78456666Y-49554819D02*
X78456666Y-50269104D01*
X78456666Y-50269104D02*
X78409047Y-50411961D01*
X78409047Y-50411961D02*
X78313809Y-50507200D01*
X78313809Y-50507200D02*
X78170952Y-50554819D01*
X78170952Y-50554819D02*
X78075714Y-50554819D01*
X79456666Y-50554819D02*
X78885238Y-50554819D01*
X79170952Y-50554819D02*
X79170952Y-49554819D01*
X79170952Y-49554819D02*
X79075714Y-49697676D01*
X79075714Y-49697676D02*
X78980476Y-49792914D01*
X78980476Y-49792914D02*
X78885238Y-49840533D01*
X212861905Y-61174819D02*
X212861905Y-60174819D01*
X212861905Y-60174819D02*
X213100000Y-60174819D01*
X213100000Y-60174819D02*
X213242857Y-60222438D01*
X213242857Y-60222438D02*
X213338095Y-60317676D01*
X213338095Y-60317676D02*
X213385714Y-60412914D01*
X213385714Y-60412914D02*
X213433333Y-60603390D01*
X213433333Y-60603390D02*
X213433333Y-60746247D01*
X213433333Y-60746247D02*
X213385714Y-60936723D01*
X213385714Y-60936723D02*
X213338095Y-61031961D01*
X213338095Y-61031961D02*
X213242857Y-61127200D01*
X213242857Y-61127200D02*
X213100000Y-61174819D01*
X213100000Y-61174819D02*
X212861905Y-61174819D01*
X214290476Y-60508152D02*
X214290476Y-61174819D01*
X214052381Y-60127200D02*
X213814286Y-60841485D01*
X213814286Y-60841485D02*
X214433333Y-60841485D01*
X204461905Y-61574819D02*
X204461905Y-60574819D01*
X204461905Y-60574819D02*
X204700000Y-60574819D01*
X204700000Y-60574819D02*
X204842857Y-60622438D01*
X204842857Y-60622438D02*
X204938095Y-60717676D01*
X204938095Y-60717676D02*
X204985714Y-60812914D01*
X204985714Y-60812914D02*
X205033333Y-61003390D01*
X205033333Y-61003390D02*
X205033333Y-61146247D01*
X205033333Y-61146247D02*
X204985714Y-61336723D01*
X204985714Y-61336723D02*
X204938095Y-61431961D01*
X204938095Y-61431961D02*
X204842857Y-61527200D01*
X204842857Y-61527200D02*
X204700000Y-61574819D01*
X204700000Y-61574819D02*
X204461905Y-61574819D01*
X205366667Y-60574819D02*
X205985714Y-60574819D01*
X205985714Y-60574819D02*
X205652381Y-60955771D01*
X205652381Y-60955771D02*
X205795238Y-60955771D01*
X205795238Y-60955771D02*
X205890476Y-61003390D01*
X205890476Y-61003390D02*
X205938095Y-61051009D01*
X205938095Y-61051009D02*
X205985714Y-61146247D01*
X205985714Y-61146247D02*
X205985714Y-61384342D01*
X205985714Y-61384342D02*
X205938095Y-61479580D01*
X205938095Y-61479580D02*
X205890476Y-61527200D01*
X205890476Y-61527200D02*
X205795238Y-61574819D01*
X205795238Y-61574819D02*
X205509524Y-61574819D01*
X205509524Y-61574819D02*
X205414286Y-61527200D01*
X205414286Y-61527200D02*
X205366667Y-61479580D01*
X146676905Y-78014819D02*
X146676905Y-77014819D01*
X146676905Y-77014819D02*
X146915000Y-77014819D01*
X146915000Y-77014819D02*
X147057857Y-77062438D01*
X147057857Y-77062438D02*
X147153095Y-77157676D01*
X147153095Y-77157676D02*
X147200714Y-77252914D01*
X147200714Y-77252914D02*
X147248333Y-77443390D01*
X147248333Y-77443390D02*
X147248333Y-77586247D01*
X147248333Y-77586247D02*
X147200714Y-77776723D01*
X147200714Y-77776723D02*
X147153095Y-77871961D01*
X147153095Y-77871961D02*
X147057857Y-77967200D01*
X147057857Y-77967200D02*
X146915000Y-78014819D01*
X146915000Y-78014819D02*
X146676905Y-78014819D01*
X147629286Y-77110057D02*
X147676905Y-77062438D01*
X147676905Y-77062438D02*
X147772143Y-77014819D01*
X147772143Y-77014819D02*
X148010238Y-77014819D01*
X148010238Y-77014819D02*
X148105476Y-77062438D01*
X148105476Y-77062438D02*
X148153095Y-77110057D01*
X148153095Y-77110057D02*
X148200714Y-77205295D01*
X148200714Y-77205295D02*
X148200714Y-77300533D01*
X148200714Y-77300533D02*
X148153095Y-77443390D01*
X148153095Y-77443390D02*
X147581667Y-78014819D01*
X147581667Y-78014819D02*
X148200714Y-78014819D01*
X146676905Y-73724819D02*
X146676905Y-72724819D01*
X146676905Y-72724819D02*
X146915000Y-72724819D01*
X146915000Y-72724819D02*
X147057857Y-72772438D01*
X147057857Y-72772438D02*
X147153095Y-72867676D01*
X147153095Y-72867676D02*
X147200714Y-72962914D01*
X147200714Y-72962914D02*
X147248333Y-73153390D01*
X147248333Y-73153390D02*
X147248333Y-73296247D01*
X147248333Y-73296247D02*
X147200714Y-73486723D01*
X147200714Y-73486723D02*
X147153095Y-73581961D01*
X147153095Y-73581961D02*
X147057857Y-73677200D01*
X147057857Y-73677200D02*
X146915000Y-73724819D01*
X146915000Y-73724819D02*
X146676905Y-73724819D01*
X148200714Y-73724819D02*
X147629286Y-73724819D01*
X147915000Y-73724819D02*
X147915000Y-72724819D01*
X147915000Y-72724819D02*
X147819762Y-72867676D01*
X147819762Y-72867676D02*
X147724524Y-72962914D01*
X147724524Y-72962914D02*
X147629286Y-73010533D01*
X145932142Y-68569580D02*
X145884523Y-68617200D01*
X145884523Y-68617200D02*
X145741666Y-68664819D01*
X145741666Y-68664819D02*
X145646428Y-68664819D01*
X145646428Y-68664819D02*
X145503571Y-68617200D01*
X145503571Y-68617200D02*
X145408333Y-68521961D01*
X145408333Y-68521961D02*
X145360714Y-68426723D01*
X145360714Y-68426723D02*
X145313095Y-68236247D01*
X145313095Y-68236247D02*
X145313095Y-68093390D01*
X145313095Y-68093390D02*
X145360714Y-67902914D01*
X145360714Y-67902914D02*
X145408333Y-67807676D01*
X145408333Y-67807676D02*
X145503571Y-67712438D01*
X145503571Y-67712438D02*
X145646428Y-67664819D01*
X145646428Y-67664819D02*
X145741666Y-67664819D01*
X145741666Y-67664819D02*
X145884523Y-67712438D01*
X145884523Y-67712438D02*
X145932142Y-67760057D01*
X146789285Y-67998152D02*
X146789285Y-68664819D01*
X146551190Y-67617200D02*
X146313095Y-68331485D01*
X146313095Y-68331485D02*
X146932142Y-68331485D01*
X147741666Y-67998152D02*
X147741666Y-68664819D01*
X147503571Y-67617200D02*
X147265476Y-68331485D01*
X147265476Y-68331485D02*
X147884523Y-68331485D01*
X145932142Y-66059580D02*
X145884523Y-66107200D01*
X145884523Y-66107200D02*
X145741666Y-66154819D01*
X145741666Y-66154819D02*
X145646428Y-66154819D01*
X145646428Y-66154819D02*
X145503571Y-66107200D01*
X145503571Y-66107200D02*
X145408333Y-66011961D01*
X145408333Y-66011961D02*
X145360714Y-65916723D01*
X145360714Y-65916723D02*
X145313095Y-65726247D01*
X145313095Y-65726247D02*
X145313095Y-65583390D01*
X145313095Y-65583390D02*
X145360714Y-65392914D01*
X145360714Y-65392914D02*
X145408333Y-65297676D01*
X145408333Y-65297676D02*
X145503571Y-65202438D01*
X145503571Y-65202438D02*
X145646428Y-65154819D01*
X145646428Y-65154819D02*
X145741666Y-65154819D01*
X145741666Y-65154819D02*
X145884523Y-65202438D01*
X145884523Y-65202438D02*
X145932142Y-65250057D01*
X146789285Y-65488152D02*
X146789285Y-66154819D01*
X146551190Y-65107200D02*
X146313095Y-65821485D01*
X146313095Y-65821485D02*
X146932142Y-65821485D01*
X147217857Y-65154819D02*
X147836904Y-65154819D01*
X147836904Y-65154819D02*
X147503571Y-65535771D01*
X147503571Y-65535771D02*
X147646428Y-65535771D01*
X147646428Y-65535771D02*
X147741666Y-65583390D01*
X147741666Y-65583390D02*
X147789285Y-65631009D01*
X147789285Y-65631009D02*
X147836904Y-65726247D01*
X147836904Y-65726247D02*
X147836904Y-65964342D01*
X147836904Y-65964342D02*
X147789285Y-66059580D01*
X147789285Y-66059580D02*
X147741666Y-66107200D01*
X147741666Y-66107200D02*
X147646428Y-66154819D01*
X147646428Y-66154819D02*
X147360714Y-66154819D01*
X147360714Y-66154819D02*
X147265476Y-66107200D01*
X147265476Y-66107200D02*
X147217857Y-66059580D01*
X145932142Y-63549580D02*
X145884523Y-63597200D01*
X145884523Y-63597200D02*
X145741666Y-63644819D01*
X145741666Y-63644819D02*
X145646428Y-63644819D01*
X145646428Y-63644819D02*
X145503571Y-63597200D01*
X145503571Y-63597200D02*
X145408333Y-63501961D01*
X145408333Y-63501961D02*
X145360714Y-63406723D01*
X145360714Y-63406723D02*
X145313095Y-63216247D01*
X145313095Y-63216247D02*
X145313095Y-63073390D01*
X145313095Y-63073390D02*
X145360714Y-62882914D01*
X145360714Y-62882914D02*
X145408333Y-62787676D01*
X145408333Y-62787676D02*
X145503571Y-62692438D01*
X145503571Y-62692438D02*
X145646428Y-62644819D01*
X145646428Y-62644819D02*
X145741666Y-62644819D01*
X145741666Y-62644819D02*
X145884523Y-62692438D01*
X145884523Y-62692438D02*
X145932142Y-62740057D01*
X146789285Y-62978152D02*
X146789285Y-63644819D01*
X146551190Y-62597200D02*
X146313095Y-63311485D01*
X146313095Y-63311485D02*
X146932142Y-63311485D01*
X147265476Y-62740057D02*
X147313095Y-62692438D01*
X147313095Y-62692438D02*
X147408333Y-62644819D01*
X147408333Y-62644819D02*
X147646428Y-62644819D01*
X147646428Y-62644819D02*
X147741666Y-62692438D01*
X147741666Y-62692438D02*
X147789285Y-62740057D01*
X147789285Y-62740057D02*
X147836904Y-62835295D01*
X147836904Y-62835295D02*
X147836904Y-62930533D01*
X147836904Y-62930533D02*
X147789285Y-63073390D01*
X147789285Y-63073390D02*
X147217857Y-63644819D01*
X147217857Y-63644819D02*
X147836904Y-63644819D01*
X145932142Y-61039580D02*
X145884523Y-61087200D01*
X145884523Y-61087200D02*
X145741666Y-61134819D01*
X145741666Y-61134819D02*
X145646428Y-61134819D01*
X145646428Y-61134819D02*
X145503571Y-61087200D01*
X145503571Y-61087200D02*
X145408333Y-60991961D01*
X145408333Y-60991961D02*
X145360714Y-60896723D01*
X145360714Y-60896723D02*
X145313095Y-60706247D01*
X145313095Y-60706247D02*
X145313095Y-60563390D01*
X145313095Y-60563390D02*
X145360714Y-60372914D01*
X145360714Y-60372914D02*
X145408333Y-60277676D01*
X145408333Y-60277676D02*
X145503571Y-60182438D01*
X145503571Y-60182438D02*
X145646428Y-60134819D01*
X145646428Y-60134819D02*
X145741666Y-60134819D01*
X145741666Y-60134819D02*
X145884523Y-60182438D01*
X145884523Y-60182438D02*
X145932142Y-60230057D01*
X146789285Y-60468152D02*
X146789285Y-61134819D01*
X146551190Y-60087200D02*
X146313095Y-60801485D01*
X146313095Y-60801485D02*
X146932142Y-60801485D01*
X147836904Y-61134819D02*
X147265476Y-61134819D01*
X147551190Y-61134819D02*
X147551190Y-60134819D01*
X147551190Y-60134819D02*
X147455952Y-60277676D01*
X147455952Y-60277676D02*
X147360714Y-60372914D01*
X147360714Y-60372914D02*
X147265476Y-60420533D01*
X145932142Y-58529580D02*
X145884523Y-58577200D01*
X145884523Y-58577200D02*
X145741666Y-58624819D01*
X145741666Y-58624819D02*
X145646428Y-58624819D01*
X145646428Y-58624819D02*
X145503571Y-58577200D01*
X145503571Y-58577200D02*
X145408333Y-58481961D01*
X145408333Y-58481961D02*
X145360714Y-58386723D01*
X145360714Y-58386723D02*
X145313095Y-58196247D01*
X145313095Y-58196247D02*
X145313095Y-58053390D01*
X145313095Y-58053390D02*
X145360714Y-57862914D01*
X145360714Y-57862914D02*
X145408333Y-57767676D01*
X145408333Y-57767676D02*
X145503571Y-57672438D01*
X145503571Y-57672438D02*
X145646428Y-57624819D01*
X145646428Y-57624819D02*
X145741666Y-57624819D01*
X145741666Y-57624819D02*
X145884523Y-57672438D01*
X145884523Y-57672438D02*
X145932142Y-57720057D01*
X146789285Y-57958152D02*
X146789285Y-58624819D01*
X146551190Y-57577200D02*
X146313095Y-58291485D01*
X146313095Y-58291485D02*
X146932142Y-58291485D01*
X147503571Y-57624819D02*
X147598809Y-57624819D01*
X147598809Y-57624819D02*
X147694047Y-57672438D01*
X147694047Y-57672438D02*
X147741666Y-57720057D01*
X147741666Y-57720057D02*
X147789285Y-57815295D01*
X147789285Y-57815295D02*
X147836904Y-58005771D01*
X147836904Y-58005771D02*
X147836904Y-58243866D01*
X147836904Y-58243866D02*
X147789285Y-58434342D01*
X147789285Y-58434342D02*
X147741666Y-58529580D01*
X147741666Y-58529580D02*
X147694047Y-58577200D01*
X147694047Y-58577200D02*
X147598809Y-58624819D01*
X147598809Y-58624819D02*
X147503571Y-58624819D01*
X147503571Y-58624819D02*
X147408333Y-58577200D01*
X147408333Y-58577200D02*
X147360714Y-58529580D01*
X147360714Y-58529580D02*
X147313095Y-58434342D01*
X147313095Y-58434342D02*
X147265476Y-58243866D01*
X147265476Y-58243866D02*
X147265476Y-58005771D01*
X147265476Y-58005771D02*
X147313095Y-57815295D01*
X147313095Y-57815295D02*
X147360714Y-57720057D01*
X147360714Y-57720057D02*
X147408333Y-57672438D01*
X147408333Y-57672438D02*
X147503571Y-57624819D01*
X87992142Y-64659580D02*
X87944523Y-64707200D01*
X87944523Y-64707200D02*
X87801666Y-64754819D01*
X87801666Y-64754819D02*
X87706428Y-64754819D01*
X87706428Y-64754819D02*
X87563571Y-64707200D01*
X87563571Y-64707200D02*
X87468333Y-64611961D01*
X87468333Y-64611961D02*
X87420714Y-64516723D01*
X87420714Y-64516723D02*
X87373095Y-64326247D01*
X87373095Y-64326247D02*
X87373095Y-64183390D01*
X87373095Y-64183390D02*
X87420714Y-63992914D01*
X87420714Y-63992914D02*
X87468333Y-63897676D01*
X87468333Y-63897676D02*
X87563571Y-63802438D01*
X87563571Y-63802438D02*
X87706428Y-63754819D01*
X87706428Y-63754819D02*
X87801666Y-63754819D01*
X87801666Y-63754819D02*
X87944523Y-63802438D01*
X87944523Y-63802438D02*
X87992142Y-63850057D01*
X88325476Y-63754819D02*
X88944523Y-63754819D01*
X88944523Y-63754819D02*
X88611190Y-64135771D01*
X88611190Y-64135771D02*
X88754047Y-64135771D01*
X88754047Y-64135771D02*
X88849285Y-64183390D01*
X88849285Y-64183390D02*
X88896904Y-64231009D01*
X88896904Y-64231009D02*
X88944523Y-64326247D01*
X88944523Y-64326247D02*
X88944523Y-64564342D01*
X88944523Y-64564342D02*
X88896904Y-64659580D01*
X88896904Y-64659580D02*
X88849285Y-64707200D01*
X88849285Y-64707200D02*
X88754047Y-64754819D01*
X88754047Y-64754819D02*
X88468333Y-64754819D01*
X88468333Y-64754819D02*
X88373095Y-64707200D01*
X88373095Y-64707200D02*
X88325476Y-64659580D01*
X89277857Y-63754819D02*
X89944523Y-63754819D01*
X89944523Y-63754819D02*
X89515952Y-64754819D01*
X87992142Y-62149580D02*
X87944523Y-62197200D01*
X87944523Y-62197200D02*
X87801666Y-62244819D01*
X87801666Y-62244819D02*
X87706428Y-62244819D01*
X87706428Y-62244819D02*
X87563571Y-62197200D01*
X87563571Y-62197200D02*
X87468333Y-62101961D01*
X87468333Y-62101961D02*
X87420714Y-62006723D01*
X87420714Y-62006723D02*
X87373095Y-61816247D01*
X87373095Y-61816247D02*
X87373095Y-61673390D01*
X87373095Y-61673390D02*
X87420714Y-61482914D01*
X87420714Y-61482914D02*
X87468333Y-61387676D01*
X87468333Y-61387676D02*
X87563571Y-61292438D01*
X87563571Y-61292438D02*
X87706428Y-61244819D01*
X87706428Y-61244819D02*
X87801666Y-61244819D01*
X87801666Y-61244819D02*
X87944523Y-61292438D01*
X87944523Y-61292438D02*
X87992142Y-61340057D01*
X88325476Y-61244819D02*
X88944523Y-61244819D01*
X88944523Y-61244819D02*
X88611190Y-61625771D01*
X88611190Y-61625771D02*
X88754047Y-61625771D01*
X88754047Y-61625771D02*
X88849285Y-61673390D01*
X88849285Y-61673390D02*
X88896904Y-61721009D01*
X88896904Y-61721009D02*
X88944523Y-61816247D01*
X88944523Y-61816247D02*
X88944523Y-62054342D01*
X88944523Y-62054342D02*
X88896904Y-62149580D01*
X88896904Y-62149580D02*
X88849285Y-62197200D01*
X88849285Y-62197200D02*
X88754047Y-62244819D01*
X88754047Y-62244819D02*
X88468333Y-62244819D01*
X88468333Y-62244819D02*
X88373095Y-62197200D01*
X88373095Y-62197200D02*
X88325476Y-62149580D01*
X89849285Y-61244819D02*
X89373095Y-61244819D01*
X89373095Y-61244819D02*
X89325476Y-61721009D01*
X89325476Y-61721009D02*
X89373095Y-61673390D01*
X89373095Y-61673390D02*
X89468333Y-61625771D01*
X89468333Y-61625771D02*
X89706428Y-61625771D01*
X89706428Y-61625771D02*
X89801666Y-61673390D01*
X89801666Y-61673390D02*
X89849285Y-61721009D01*
X89849285Y-61721009D02*
X89896904Y-61816247D01*
X89896904Y-61816247D02*
X89896904Y-62054342D01*
X89896904Y-62054342D02*
X89849285Y-62149580D01*
X89849285Y-62149580D02*
X89801666Y-62197200D01*
X89801666Y-62197200D02*
X89706428Y-62244819D01*
X89706428Y-62244819D02*
X89468333Y-62244819D01*
X89468333Y-62244819D02*
X89373095Y-62197200D01*
X89373095Y-62197200D02*
X89325476Y-62149580D01*
X87992142Y-59639580D02*
X87944523Y-59687200D01*
X87944523Y-59687200D02*
X87801666Y-59734819D01*
X87801666Y-59734819D02*
X87706428Y-59734819D01*
X87706428Y-59734819D02*
X87563571Y-59687200D01*
X87563571Y-59687200D02*
X87468333Y-59591961D01*
X87468333Y-59591961D02*
X87420714Y-59496723D01*
X87420714Y-59496723D02*
X87373095Y-59306247D01*
X87373095Y-59306247D02*
X87373095Y-59163390D01*
X87373095Y-59163390D02*
X87420714Y-58972914D01*
X87420714Y-58972914D02*
X87468333Y-58877676D01*
X87468333Y-58877676D02*
X87563571Y-58782438D01*
X87563571Y-58782438D02*
X87706428Y-58734819D01*
X87706428Y-58734819D02*
X87801666Y-58734819D01*
X87801666Y-58734819D02*
X87944523Y-58782438D01*
X87944523Y-58782438D02*
X87992142Y-58830057D01*
X88325476Y-58734819D02*
X88944523Y-58734819D01*
X88944523Y-58734819D02*
X88611190Y-59115771D01*
X88611190Y-59115771D02*
X88754047Y-59115771D01*
X88754047Y-59115771D02*
X88849285Y-59163390D01*
X88849285Y-59163390D02*
X88896904Y-59211009D01*
X88896904Y-59211009D02*
X88944523Y-59306247D01*
X88944523Y-59306247D02*
X88944523Y-59544342D01*
X88944523Y-59544342D02*
X88896904Y-59639580D01*
X88896904Y-59639580D02*
X88849285Y-59687200D01*
X88849285Y-59687200D02*
X88754047Y-59734819D01*
X88754047Y-59734819D02*
X88468333Y-59734819D01*
X88468333Y-59734819D02*
X88373095Y-59687200D01*
X88373095Y-59687200D02*
X88325476Y-59639580D01*
X89801666Y-59068152D02*
X89801666Y-59734819D01*
X89563571Y-58687200D02*
X89325476Y-59401485D01*
X89325476Y-59401485D02*
X89944523Y-59401485D01*
X87992142Y-57129580D02*
X87944523Y-57177200D01*
X87944523Y-57177200D02*
X87801666Y-57224819D01*
X87801666Y-57224819D02*
X87706428Y-57224819D01*
X87706428Y-57224819D02*
X87563571Y-57177200D01*
X87563571Y-57177200D02*
X87468333Y-57081961D01*
X87468333Y-57081961D02*
X87420714Y-56986723D01*
X87420714Y-56986723D02*
X87373095Y-56796247D01*
X87373095Y-56796247D02*
X87373095Y-56653390D01*
X87373095Y-56653390D02*
X87420714Y-56462914D01*
X87420714Y-56462914D02*
X87468333Y-56367676D01*
X87468333Y-56367676D02*
X87563571Y-56272438D01*
X87563571Y-56272438D02*
X87706428Y-56224819D01*
X87706428Y-56224819D02*
X87801666Y-56224819D01*
X87801666Y-56224819D02*
X87944523Y-56272438D01*
X87944523Y-56272438D02*
X87992142Y-56320057D01*
X88325476Y-56224819D02*
X88944523Y-56224819D01*
X88944523Y-56224819D02*
X88611190Y-56605771D01*
X88611190Y-56605771D02*
X88754047Y-56605771D01*
X88754047Y-56605771D02*
X88849285Y-56653390D01*
X88849285Y-56653390D02*
X88896904Y-56701009D01*
X88896904Y-56701009D02*
X88944523Y-56796247D01*
X88944523Y-56796247D02*
X88944523Y-57034342D01*
X88944523Y-57034342D02*
X88896904Y-57129580D01*
X88896904Y-57129580D02*
X88849285Y-57177200D01*
X88849285Y-57177200D02*
X88754047Y-57224819D01*
X88754047Y-57224819D02*
X88468333Y-57224819D01*
X88468333Y-57224819D02*
X88373095Y-57177200D01*
X88373095Y-57177200D02*
X88325476Y-57129580D01*
X89325476Y-56320057D02*
X89373095Y-56272438D01*
X89373095Y-56272438D02*
X89468333Y-56224819D01*
X89468333Y-56224819D02*
X89706428Y-56224819D01*
X89706428Y-56224819D02*
X89801666Y-56272438D01*
X89801666Y-56272438D02*
X89849285Y-56320057D01*
X89849285Y-56320057D02*
X89896904Y-56415295D01*
X89896904Y-56415295D02*
X89896904Y-56510533D01*
X89896904Y-56510533D02*
X89849285Y-56653390D01*
X89849285Y-56653390D02*
X89277857Y-57224819D01*
X89277857Y-57224819D02*
X89896904Y-57224819D01*
X83982142Y-69679580D02*
X83934523Y-69727200D01*
X83934523Y-69727200D02*
X83791666Y-69774819D01*
X83791666Y-69774819D02*
X83696428Y-69774819D01*
X83696428Y-69774819D02*
X83553571Y-69727200D01*
X83553571Y-69727200D02*
X83458333Y-69631961D01*
X83458333Y-69631961D02*
X83410714Y-69536723D01*
X83410714Y-69536723D02*
X83363095Y-69346247D01*
X83363095Y-69346247D02*
X83363095Y-69203390D01*
X83363095Y-69203390D02*
X83410714Y-69012914D01*
X83410714Y-69012914D02*
X83458333Y-68917676D01*
X83458333Y-68917676D02*
X83553571Y-68822438D01*
X83553571Y-68822438D02*
X83696428Y-68774819D01*
X83696428Y-68774819D02*
X83791666Y-68774819D01*
X83791666Y-68774819D02*
X83934523Y-68822438D01*
X83934523Y-68822438D02*
X83982142Y-68870057D01*
X84315476Y-68774819D02*
X84934523Y-68774819D01*
X84934523Y-68774819D02*
X84601190Y-69155771D01*
X84601190Y-69155771D02*
X84744047Y-69155771D01*
X84744047Y-69155771D02*
X84839285Y-69203390D01*
X84839285Y-69203390D02*
X84886904Y-69251009D01*
X84886904Y-69251009D02*
X84934523Y-69346247D01*
X84934523Y-69346247D02*
X84934523Y-69584342D01*
X84934523Y-69584342D02*
X84886904Y-69679580D01*
X84886904Y-69679580D02*
X84839285Y-69727200D01*
X84839285Y-69727200D02*
X84744047Y-69774819D01*
X84744047Y-69774819D02*
X84458333Y-69774819D01*
X84458333Y-69774819D02*
X84363095Y-69727200D01*
X84363095Y-69727200D02*
X84315476Y-69679580D01*
X85886904Y-69774819D02*
X85315476Y-69774819D01*
X85601190Y-69774819D02*
X85601190Y-68774819D01*
X85601190Y-68774819D02*
X85505952Y-68917676D01*
X85505952Y-68917676D02*
X85410714Y-69012914D01*
X85410714Y-69012914D02*
X85315476Y-69060533D01*
X83982142Y-67169580D02*
X83934523Y-67217200D01*
X83934523Y-67217200D02*
X83791666Y-67264819D01*
X83791666Y-67264819D02*
X83696428Y-67264819D01*
X83696428Y-67264819D02*
X83553571Y-67217200D01*
X83553571Y-67217200D02*
X83458333Y-67121961D01*
X83458333Y-67121961D02*
X83410714Y-67026723D01*
X83410714Y-67026723D02*
X83363095Y-66836247D01*
X83363095Y-66836247D02*
X83363095Y-66693390D01*
X83363095Y-66693390D02*
X83410714Y-66502914D01*
X83410714Y-66502914D02*
X83458333Y-66407676D01*
X83458333Y-66407676D02*
X83553571Y-66312438D01*
X83553571Y-66312438D02*
X83696428Y-66264819D01*
X83696428Y-66264819D02*
X83791666Y-66264819D01*
X83791666Y-66264819D02*
X83934523Y-66312438D01*
X83934523Y-66312438D02*
X83982142Y-66360057D01*
X84363095Y-66360057D02*
X84410714Y-66312438D01*
X84410714Y-66312438D02*
X84505952Y-66264819D01*
X84505952Y-66264819D02*
X84744047Y-66264819D01*
X84744047Y-66264819D02*
X84839285Y-66312438D01*
X84839285Y-66312438D02*
X84886904Y-66360057D01*
X84886904Y-66360057D02*
X84934523Y-66455295D01*
X84934523Y-66455295D02*
X84934523Y-66550533D01*
X84934523Y-66550533D02*
X84886904Y-66693390D01*
X84886904Y-66693390D02*
X84315476Y-67264819D01*
X84315476Y-67264819D02*
X84934523Y-67264819D01*
X85410714Y-67264819D02*
X85601190Y-67264819D01*
X85601190Y-67264819D02*
X85696428Y-67217200D01*
X85696428Y-67217200D02*
X85744047Y-67169580D01*
X85744047Y-67169580D02*
X85839285Y-67026723D01*
X85839285Y-67026723D02*
X85886904Y-66836247D01*
X85886904Y-66836247D02*
X85886904Y-66455295D01*
X85886904Y-66455295D02*
X85839285Y-66360057D01*
X85839285Y-66360057D02*
X85791666Y-66312438D01*
X85791666Y-66312438D02*
X85696428Y-66264819D01*
X85696428Y-66264819D02*
X85505952Y-66264819D01*
X85505952Y-66264819D02*
X85410714Y-66312438D01*
X85410714Y-66312438D02*
X85363095Y-66360057D01*
X85363095Y-66360057D02*
X85315476Y-66455295D01*
X85315476Y-66455295D02*
X85315476Y-66693390D01*
X85315476Y-66693390D02*
X85363095Y-66788628D01*
X85363095Y-66788628D02*
X85410714Y-66836247D01*
X85410714Y-66836247D02*
X85505952Y-66883866D01*
X85505952Y-66883866D02*
X85696428Y-66883866D01*
X85696428Y-66883866D02*
X85791666Y-66836247D01*
X85791666Y-66836247D02*
X85839285Y-66788628D01*
X85839285Y-66788628D02*
X85886904Y-66693390D01*
X83982142Y-64659580D02*
X83934523Y-64707200D01*
X83934523Y-64707200D02*
X83791666Y-64754819D01*
X83791666Y-64754819D02*
X83696428Y-64754819D01*
X83696428Y-64754819D02*
X83553571Y-64707200D01*
X83553571Y-64707200D02*
X83458333Y-64611961D01*
X83458333Y-64611961D02*
X83410714Y-64516723D01*
X83410714Y-64516723D02*
X83363095Y-64326247D01*
X83363095Y-64326247D02*
X83363095Y-64183390D01*
X83363095Y-64183390D02*
X83410714Y-63992914D01*
X83410714Y-63992914D02*
X83458333Y-63897676D01*
X83458333Y-63897676D02*
X83553571Y-63802438D01*
X83553571Y-63802438D02*
X83696428Y-63754819D01*
X83696428Y-63754819D02*
X83791666Y-63754819D01*
X83791666Y-63754819D02*
X83934523Y-63802438D01*
X83934523Y-63802438D02*
X83982142Y-63850057D01*
X84363095Y-63850057D02*
X84410714Y-63802438D01*
X84410714Y-63802438D02*
X84505952Y-63754819D01*
X84505952Y-63754819D02*
X84744047Y-63754819D01*
X84744047Y-63754819D02*
X84839285Y-63802438D01*
X84839285Y-63802438D02*
X84886904Y-63850057D01*
X84886904Y-63850057D02*
X84934523Y-63945295D01*
X84934523Y-63945295D02*
X84934523Y-64040533D01*
X84934523Y-64040533D02*
X84886904Y-64183390D01*
X84886904Y-64183390D02*
X84315476Y-64754819D01*
X84315476Y-64754819D02*
X84934523Y-64754819D01*
X85505952Y-64183390D02*
X85410714Y-64135771D01*
X85410714Y-64135771D02*
X85363095Y-64088152D01*
X85363095Y-64088152D02*
X85315476Y-63992914D01*
X85315476Y-63992914D02*
X85315476Y-63945295D01*
X85315476Y-63945295D02*
X85363095Y-63850057D01*
X85363095Y-63850057D02*
X85410714Y-63802438D01*
X85410714Y-63802438D02*
X85505952Y-63754819D01*
X85505952Y-63754819D02*
X85696428Y-63754819D01*
X85696428Y-63754819D02*
X85791666Y-63802438D01*
X85791666Y-63802438D02*
X85839285Y-63850057D01*
X85839285Y-63850057D02*
X85886904Y-63945295D01*
X85886904Y-63945295D02*
X85886904Y-63992914D01*
X85886904Y-63992914D02*
X85839285Y-64088152D01*
X85839285Y-64088152D02*
X85791666Y-64135771D01*
X85791666Y-64135771D02*
X85696428Y-64183390D01*
X85696428Y-64183390D02*
X85505952Y-64183390D01*
X85505952Y-64183390D02*
X85410714Y-64231009D01*
X85410714Y-64231009D02*
X85363095Y-64278628D01*
X85363095Y-64278628D02*
X85315476Y-64373866D01*
X85315476Y-64373866D02*
X85315476Y-64564342D01*
X85315476Y-64564342D02*
X85363095Y-64659580D01*
X85363095Y-64659580D02*
X85410714Y-64707200D01*
X85410714Y-64707200D02*
X85505952Y-64754819D01*
X85505952Y-64754819D02*
X85696428Y-64754819D01*
X85696428Y-64754819D02*
X85791666Y-64707200D01*
X85791666Y-64707200D02*
X85839285Y-64659580D01*
X85839285Y-64659580D02*
X85886904Y-64564342D01*
X85886904Y-64564342D02*
X85886904Y-64373866D01*
X85886904Y-64373866D02*
X85839285Y-64278628D01*
X85839285Y-64278628D02*
X85791666Y-64231009D01*
X85791666Y-64231009D02*
X85696428Y-64183390D01*
X83982142Y-62149580D02*
X83934523Y-62197200D01*
X83934523Y-62197200D02*
X83791666Y-62244819D01*
X83791666Y-62244819D02*
X83696428Y-62244819D01*
X83696428Y-62244819D02*
X83553571Y-62197200D01*
X83553571Y-62197200D02*
X83458333Y-62101961D01*
X83458333Y-62101961D02*
X83410714Y-62006723D01*
X83410714Y-62006723D02*
X83363095Y-61816247D01*
X83363095Y-61816247D02*
X83363095Y-61673390D01*
X83363095Y-61673390D02*
X83410714Y-61482914D01*
X83410714Y-61482914D02*
X83458333Y-61387676D01*
X83458333Y-61387676D02*
X83553571Y-61292438D01*
X83553571Y-61292438D02*
X83696428Y-61244819D01*
X83696428Y-61244819D02*
X83791666Y-61244819D01*
X83791666Y-61244819D02*
X83934523Y-61292438D01*
X83934523Y-61292438D02*
X83982142Y-61340057D01*
X84363095Y-61340057D02*
X84410714Y-61292438D01*
X84410714Y-61292438D02*
X84505952Y-61244819D01*
X84505952Y-61244819D02*
X84744047Y-61244819D01*
X84744047Y-61244819D02*
X84839285Y-61292438D01*
X84839285Y-61292438D02*
X84886904Y-61340057D01*
X84886904Y-61340057D02*
X84934523Y-61435295D01*
X84934523Y-61435295D02*
X84934523Y-61530533D01*
X84934523Y-61530533D02*
X84886904Y-61673390D01*
X84886904Y-61673390D02*
X84315476Y-62244819D01*
X84315476Y-62244819D02*
X84934523Y-62244819D01*
X85791666Y-61244819D02*
X85601190Y-61244819D01*
X85601190Y-61244819D02*
X85505952Y-61292438D01*
X85505952Y-61292438D02*
X85458333Y-61340057D01*
X85458333Y-61340057D02*
X85363095Y-61482914D01*
X85363095Y-61482914D02*
X85315476Y-61673390D01*
X85315476Y-61673390D02*
X85315476Y-62054342D01*
X85315476Y-62054342D02*
X85363095Y-62149580D01*
X85363095Y-62149580D02*
X85410714Y-62197200D01*
X85410714Y-62197200D02*
X85505952Y-62244819D01*
X85505952Y-62244819D02*
X85696428Y-62244819D01*
X85696428Y-62244819D02*
X85791666Y-62197200D01*
X85791666Y-62197200D02*
X85839285Y-62149580D01*
X85839285Y-62149580D02*
X85886904Y-62054342D01*
X85886904Y-62054342D02*
X85886904Y-61816247D01*
X85886904Y-61816247D02*
X85839285Y-61721009D01*
X85839285Y-61721009D02*
X85791666Y-61673390D01*
X85791666Y-61673390D02*
X85696428Y-61625771D01*
X85696428Y-61625771D02*
X85505952Y-61625771D01*
X85505952Y-61625771D02*
X85410714Y-61673390D01*
X85410714Y-61673390D02*
X85363095Y-61721009D01*
X85363095Y-61721009D02*
X85315476Y-61816247D01*
X83982142Y-59639580D02*
X83934523Y-59687200D01*
X83934523Y-59687200D02*
X83791666Y-59734819D01*
X83791666Y-59734819D02*
X83696428Y-59734819D01*
X83696428Y-59734819D02*
X83553571Y-59687200D01*
X83553571Y-59687200D02*
X83458333Y-59591961D01*
X83458333Y-59591961D02*
X83410714Y-59496723D01*
X83410714Y-59496723D02*
X83363095Y-59306247D01*
X83363095Y-59306247D02*
X83363095Y-59163390D01*
X83363095Y-59163390D02*
X83410714Y-58972914D01*
X83410714Y-58972914D02*
X83458333Y-58877676D01*
X83458333Y-58877676D02*
X83553571Y-58782438D01*
X83553571Y-58782438D02*
X83696428Y-58734819D01*
X83696428Y-58734819D02*
X83791666Y-58734819D01*
X83791666Y-58734819D02*
X83934523Y-58782438D01*
X83934523Y-58782438D02*
X83982142Y-58830057D01*
X84363095Y-58830057D02*
X84410714Y-58782438D01*
X84410714Y-58782438D02*
X84505952Y-58734819D01*
X84505952Y-58734819D02*
X84744047Y-58734819D01*
X84744047Y-58734819D02*
X84839285Y-58782438D01*
X84839285Y-58782438D02*
X84886904Y-58830057D01*
X84886904Y-58830057D02*
X84934523Y-58925295D01*
X84934523Y-58925295D02*
X84934523Y-59020533D01*
X84934523Y-59020533D02*
X84886904Y-59163390D01*
X84886904Y-59163390D02*
X84315476Y-59734819D01*
X84315476Y-59734819D02*
X84934523Y-59734819D01*
X85839285Y-58734819D02*
X85363095Y-58734819D01*
X85363095Y-58734819D02*
X85315476Y-59211009D01*
X85315476Y-59211009D02*
X85363095Y-59163390D01*
X85363095Y-59163390D02*
X85458333Y-59115771D01*
X85458333Y-59115771D02*
X85696428Y-59115771D01*
X85696428Y-59115771D02*
X85791666Y-59163390D01*
X85791666Y-59163390D02*
X85839285Y-59211009D01*
X85839285Y-59211009D02*
X85886904Y-59306247D01*
X85886904Y-59306247D02*
X85886904Y-59544342D01*
X85886904Y-59544342D02*
X85839285Y-59639580D01*
X85839285Y-59639580D02*
X85791666Y-59687200D01*
X85791666Y-59687200D02*
X85696428Y-59734819D01*
X85696428Y-59734819D02*
X85458333Y-59734819D01*
X85458333Y-59734819D02*
X85363095Y-59687200D01*
X85363095Y-59687200D02*
X85315476Y-59639580D01*
X83982142Y-57129580D02*
X83934523Y-57177200D01*
X83934523Y-57177200D02*
X83791666Y-57224819D01*
X83791666Y-57224819D02*
X83696428Y-57224819D01*
X83696428Y-57224819D02*
X83553571Y-57177200D01*
X83553571Y-57177200D02*
X83458333Y-57081961D01*
X83458333Y-57081961D02*
X83410714Y-56986723D01*
X83410714Y-56986723D02*
X83363095Y-56796247D01*
X83363095Y-56796247D02*
X83363095Y-56653390D01*
X83363095Y-56653390D02*
X83410714Y-56462914D01*
X83410714Y-56462914D02*
X83458333Y-56367676D01*
X83458333Y-56367676D02*
X83553571Y-56272438D01*
X83553571Y-56272438D02*
X83696428Y-56224819D01*
X83696428Y-56224819D02*
X83791666Y-56224819D01*
X83791666Y-56224819D02*
X83934523Y-56272438D01*
X83934523Y-56272438D02*
X83982142Y-56320057D01*
X84363095Y-56320057D02*
X84410714Y-56272438D01*
X84410714Y-56272438D02*
X84505952Y-56224819D01*
X84505952Y-56224819D02*
X84744047Y-56224819D01*
X84744047Y-56224819D02*
X84839285Y-56272438D01*
X84839285Y-56272438D02*
X84886904Y-56320057D01*
X84886904Y-56320057D02*
X84934523Y-56415295D01*
X84934523Y-56415295D02*
X84934523Y-56510533D01*
X84934523Y-56510533D02*
X84886904Y-56653390D01*
X84886904Y-56653390D02*
X84315476Y-57224819D01*
X84315476Y-57224819D02*
X84934523Y-57224819D01*
X85791666Y-56558152D02*
X85791666Y-57224819D01*
X85553571Y-56177200D02*
X85315476Y-56891485D01*
X85315476Y-56891485D02*
X85934523Y-56891485D01*
%TO.C,R8*%
D11*
X213782742Y-79852500D02*
X214257258Y-79852500D01*
X213782742Y-78807500D02*
X214257258Y-78807500D01*
%TO.C,C21*%
X205859420Y-89880000D02*
X206140580Y-89880000D01*
X205859420Y-88860000D02*
X206140580Y-88860000D01*
%TO.C,C22*%
X205859420Y-92390000D02*
X206140580Y-92390000D01*
X205859420Y-91370000D02*
X206140580Y-91370000D01*
%TO.C,C19*%
X205859420Y-84860000D02*
X206140580Y-84860000D01*
X205859420Y-83840000D02*
X206140580Y-83840000D01*
%TO.C,C20*%
X205859420Y-87370000D02*
X206140580Y-87370000D01*
X205859420Y-86350000D02*
X206140580Y-86350000D01*
%TO.C,C18*%
X205859420Y-82350000D02*
X206140580Y-82350000D01*
X205859420Y-81330000D02*
X206140580Y-81330000D01*
%TO.C,C17*%
X205859420Y-79840000D02*
X206140580Y-79840000D01*
X205859420Y-78820000D02*
X206140580Y-78820000D01*
%TO.C,C23*%
X205859420Y-94900000D02*
X206140580Y-94900000D01*
X205859420Y-93880000D02*
X206140580Y-93880000D01*
%TO.C,C16*%
X201849420Y-97410000D02*
X202130580Y-97410000D01*
X201849420Y-96390000D02*
X202130580Y-96390000D01*
%TO.C,C46*%
X205859420Y-97410000D02*
X206140580Y-97410000D01*
X205859420Y-96390000D02*
X206140580Y-96390000D01*
%TO.C,C47*%
X209869420Y-79840000D02*
X210150580Y-79840000D01*
X209869420Y-78820000D02*
X210150580Y-78820000D01*
%TO.C,R4*%
X209772742Y-89892500D02*
X210247258Y-89892500D01*
X209772742Y-88847500D02*
X210247258Y-88847500D01*
%TO.C,R5*%
X209772742Y-92402500D02*
X210247258Y-92402500D01*
X209772742Y-91357500D02*
X210247258Y-91357500D01*
%TO.C,R2*%
X209772742Y-84872500D02*
X210247258Y-84872500D01*
X209772742Y-83827500D02*
X210247258Y-83827500D01*
%TO.C,R1*%
X209772742Y-82362500D02*
X210247258Y-82362500D01*
X209772742Y-81317500D02*
X210247258Y-81317500D01*
%TO.C,R3*%
X209772742Y-87382500D02*
X210247258Y-87382500D01*
X209772742Y-86337500D02*
X210247258Y-86337500D01*
%TO.C,R6*%
X209772742Y-94912500D02*
X210247258Y-94912500D01*
X209772742Y-93867500D02*
X210247258Y-93867500D01*
%TO.C,R7*%
X209772742Y-97422500D02*
X210247258Y-97422500D01*
X209772742Y-96377500D02*
X210247258Y-96377500D01*
%TO.C,C2*%
X197839420Y-82350000D02*
X198120580Y-82350000D01*
X197839420Y-81330000D02*
X198120580Y-81330000D01*
%TO.C,C1*%
X197839420Y-79840000D02*
X198120580Y-79840000D01*
X197839420Y-78820000D02*
X198120580Y-78820000D01*
%TO.C,C5*%
X197839420Y-89880000D02*
X198120580Y-89880000D01*
X197839420Y-88860000D02*
X198120580Y-88860000D01*
%TO.C,C3*%
X197839420Y-84860000D02*
X198120580Y-84860000D01*
X197839420Y-83840000D02*
X198120580Y-83840000D01*
%TO.C,C4*%
X197839420Y-87370000D02*
X198120580Y-87370000D01*
X197839420Y-86350000D02*
X198120580Y-86350000D01*
%TO.C,C11*%
X201849420Y-84860000D02*
X202130580Y-84860000D01*
X201849420Y-83840000D02*
X202130580Y-83840000D01*
%TO.C,C14*%
X201849420Y-92390000D02*
X202130580Y-92390000D01*
X201849420Y-91370000D02*
X202130580Y-91370000D01*
%TO.C,C6*%
X197839420Y-92390000D02*
X198120580Y-92390000D01*
X197839420Y-91370000D02*
X198120580Y-91370000D01*
%TO.C,C7*%
X197839420Y-94900000D02*
X198120580Y-94900000D01*
X197839420Y-93880000D02*
X198120580Y-93880000D01*
%TO.C,C8*%
X197839420Y-97410000D02*
X198120580Y-97410000D01*
X197839420Y-96390000D02*
X198120580Y-96390000D01*
%TO.C,C9*%
X201849420Y-79840000D02*
X202130580Y-79840000D01*
X201849420Y-78820000D02*
X202130580Y-78820000D01*
%TO.C,C12*%
X201849420Y-87370000D02*
X202130580Y-87370000D01*
X201849420Y-86350000D02*
X202130580Y-86350000D01*
%TO.C,C10*%
X201849420Y-82350000D02*
X202130580Y-82350000D01*
X201849420Y-81330000D02*
X202130580Y-81330000D01*
%TO.C,C13*%
X201849420Y-89880000D02*
X202130580Y-89880000D01*
X201849420Y-88860000D02*
X202130580Y-88860000D01*
%TO.C,C15*%
X201849420Y-94900000D02*
X202130580Y-94900000D01*
X201849420Y-93880000D02*
X202130580Y-93880000D01*
%TO.C,R34*%
X213782742Y-89892500D02*
X214257258Y-89892500D01*
X213782742Y-88847500D02*
X214257258Y-88847500D01*
%TO.C,R32*%
X213782742Y-84872500D02*
X214257258Y-84872500D01*
X213782742Y-83827500D02*
X214257258Y-83827500D01*
%TO.C,R30*%
X213782742Y-82362500D02*
X214257258Y-82362500D01*
X213782742Y-81317500D02*
X214257258Y-81317500D01*
%TO.C,R33*%
X213782742Y-87382500D02*
X214257258Y-87382500D01*
X213782742Y-86337500D02*
X214257258Y-86337500D01*
%TO.C,R35*%
X213782742Y-92402500D02*
X214257258Y-92402500D01*
X213782742Y-91357500D02*
X214257258Y-91357500D01*
%TO.C,J5*%
X213295000Y-24730000D02*
G75*
G02*
X229515230Y-24719399I8120000J-15120000D01*
G01*
X229535000Y-25730000D02*
X229535000Y-24730000D01*
X229535000Y-25730000D02*
X232535000Y-25730000D01*
X213295000Y-25730000D02*
X213295000Y-24730000D01*
X210295000Y-25730000D02*
X213295000Y-25730000D01*
X234035000Y-28430000D02*
X234035000Y-35020000D01*
X232535000Y-28430000D02*
X232535000Y-25730000D01*
X232535000Y-28430000D02*
X234035000Y-28430000D01*
X210295000Y-28430000D02*
X210295000Y-25730000D01*
X208795000Y-28430000D02*
X210295000Y-28430000D01*
X208795000Y-28430000D02*
X208795000Y-35020000D01*
X234035000Y-35020000D02*
X232535000Y-35020000D01*
X232535000Y-35020000D02*
X232535000Y-40120000D01*
X210295000Y-35020000D02*
X208795000Y-35020000D01*
X210295000Y-35020000D02*
X210295000Y-40120000D01*
X232535000Y-40120000D02*
X229735000Y-40120000D01*
X229735000Y-40120000D02*
X229735000Y-46465000D01*
X213095000Y-40120000D02*
X213095000Y-45865000D01*
X210295000Y-40120000D02*
X213095000Y-40120000D01*
X213095000Y-48065000D02*
X213095000Y-53170000D01*
X229730000Y-48765000D02*
X229730000Y-53170000D01*
X222715000Y-53170000D02*
X229735000Y-53170000D01*
X213095000Y-53170000D02*
X220115000Y-53170000D01*
%TO.C,J11*%
X76400000Y-76000000D02*
X76400000Y-88000000D01*
X65400000Y-76000000D02*
X76400000Y-76000000D01*
X65400000Y-77500000D02*
X65400000Y-76000000D01*
X64200000Y-77500000D02*
X65400000Y-77500000D01*
X64200000Y-79000000D02*
X64200000Y-77500000D01*
X62400000Y-79000000D02*
X64200000Y-79000000D01*
X65400000Y-80000000D02*
X62400000Y-80000000D01*
X65400000Y-84000000D02*
X65400000Y-80000000D01*
X62400000Y-84000000D02*
X65400000Y-84000000D01*
X64200000Y-85000000D02*
X62400000Y-85000000D01*
X62400000Y-85000000D02*
X62400000Y-79000000D01*
X65400000Y-86500000D02*
X64200000Y-86500000D01*
X64200000Y-86500000D02*
X64200000Y-85000000D01*
X76400000Y-88000000D02*
X65400000Y-88000000D01*
X65400000Y-88000000D02*
X65400000Y-86500000D01*
%TO.C,J10*%
X76400000Y-63000000D02*
X76400000Y-75000000D01*
X65400000Y-63000000D02*
X76400000Y-63000000D01*
X65400000Y-64500000D02*
X65400000Y-63000000D01*
X64200000Y-64500000D02*
X65400000Y-64500000D01*
X64200000Y-66000000D02*
X64200000Y-64500000D01*
X62400000Y-66000000D02*
X64200000Y-66000000D01*
X65400000Y-67000000D02*
X62400000Y-67000000D01*
X65400000Y-71000000D02*
X65400000Y-67000000D01*
X62400000Y-71000000D02*
X65400000Y-71000000D01*
X64200000Y-72000000D02*
X62400000Y-72000000D01*
X62400000Y-72000000D02*
X62400000Y-66000000D01*
X65400000Y-73500000D02*
X64200000Y-73500000D01*
X64200000Y-73500000D02*
X64200000Y-72000000D01*
X76400000Y-75000000D02*
X65400000Y-75000000D01*
X65400000Y-75000000D02*
X65400000Y-73500000D01*
%TO.C,Y1*%
X169740000Y-71590000D02*
X169740000Y-76810000D01*
X169740000Y-76810000D02*
X182460000Y-76810000D01*
X182460000Y-71590000D02*
X169740000Y-71590000D01*
%TO.C,U4*%
X128340000Y-63327500D02*
X128790000Y-63327500D01*
X128340000Y-63777500D02*
X128340000Y-63327500D01*
X128340000Y-70547500D02*
X128340000Y-70097500D01*
X128790000Y-70547500D02*
X128340000Y-70547500D01*
X135110000Y-63327500D02*
X135560000Y-63327500D01*
X135560000Y-63327500D02*
X135560000Y-63777500D01*
X135560000Y-70097500D02*
X135560000Y-70547500D01*
X135560000Y-70547500D02*
X135110000Y-70547500D01*
X127700000Y-63777500D02*
X127360000Y-63307500D01*
X128040000Y-63307500D01*
X127700000Y-63777500D01*
G36*
X127700000Y-63777500D02*
G01*
X127360000Y-63307500D01*
X128040000Y-63307500D01*
X127700000Y-63777500D01*
G37*
%TO.C,U3*%
X101690000Y-75400000D02*
X101690000Y-71640000D01*
X108510000Y-75400000D02*
X108510000Y-71640000D01*
X101690000Y-71640000D02*
X102950000Y-71640000D01*
X108510000Y-71640000D02*
X107250000Y-71640000D01*
X101790000Y-76680000D02*
X101460000Y-76920000D01*
X101460000Y-76440000D01*
X101790000Y-76680000D01*
G36*
X101790000Y-76680000D02*
G01*
X101460000Y-76920000D01*
X101460000Y-76440000D01*
X101790000Y-76680000D01*
G37*
%TO.C,U2*%
X161615000Y-58805000D02*
X165735000Y-58805000D01*
X161615000Y-58900000D02*
X161615000Y-58805000D01*
X161615000Y-63925000D02*
X161615000Y-63830000D01*
X165735000Y-58805000D02*
X165735000Y-58900000D01*
X165735000Y-63830000D02*
X165735000Y-63925000D01*
X165735000Y-63925000D02*
X161615000Y-63925000D01*
X161075000Y-58895000D02*
X160835000Y-58565000D01*
X161315000Y-58565000D01*
X161075000Y-58895000D01*
G36*
X161075000Y-58895000D02*
G01*
X160835000Y-58565000D01*
X161315000Y-58565000D01*
X161075000Y-58895000D01*
G37*
%TO.C,U1*%
X172890000Y-57690000D02*
X173340000Y-57690000D01*
X172890000Y-58140000D02*
X172890000Y-57690000D01*
X172890000Y-64910000D02*
X172890000Y-64460000D01*
X173340000Y-64910000D02*
X172890000Y-64910000D01*
X179660000Y-57690000D02*
X180110000Y-57690000D01*
X180110000Y-57690000D02*
X180110000Y-58140000D01*
X180110000Y-64460000D02*
X180110000Y-64910000D01*
X180110000Y-64910000D02*
X179660000Y-64910000D01*
X172250000Y-58140000D02*
X171910000Y-57670000D01*
X172590000Y-57670000D01*
X172250000Y-58140000D01*
G36*
X172250000Y-58140000D02*
G01*
X171910000Y-57670000D01*
X172590000Y-57670000D01*
X172250000Y-58140000D01*
G37*
%TO.C,SW8*%
X217420000Y-90710000D02*
X217420000Y-84250000D01*
X217450000Y-90710000D02*
X217420000Y-90710000D01*
X219350000Y-90710000D02*
X221950000Y-90710000D01*
X223880000Y-90710000D02*
X223850000Y-90710000D01*
X223880000Y-90710000D02*
X223880000Y-84250000D01*
X217420000Y-84250000D02*
X217450000Y-84250000D01*
X219350000Y-84250000D02*
X221950000Y-84250000D01*
X223880000Y-84250000D02*
X223850000Y-84250000D01*
%TO.C,SW7*%
X218640000Y-64600000D02*
X220023000Y-64600000D01*
X218640000Y-64600000D02*
X218640000Y-63217000D01*
X218880000Y-64360000D02*
X223720000Y-64360000D01*
X218880000Y-64360000D02*
X218880000Y-54460000D01*
X223720000Y-64360000D02*
X223720000Y-54460000D01*
X220665000Y-60086667D02*
X221935000Y-60086667D01*
X218880000Y-54460000D02*
X223720000Y-54460000D01*
X220665000Y-60086667D02*
X221935000Y-60086667D01*
X221935000Y-61440000D01*
X220665000Y-61440000D01*
X220665000Y-60086667D01*
G36*
X220665000Y-60086667D02*
G01*
X221935000Y-60086667D01*
X221935000Y-61440000D01*
X220665000Y-61440000D01*
X220665000Y-60086667D01*
G37*
X220665000Y-57380000D02*
X221935000Y-57380000D01*
X221935000Y-61440000D01*
X220665000Y-61440000D01*
X220665000Y-57380000D01*
%TO.C,SW6*%
X192740000Y-65700000D02*
X194123000Y-65700000D01*
X192740000Y-65700000D02*
X192740000Y-64317000D01*
X192980000Y-65460000D02*
X197820000Y-65460000D01*
X192980000Y-65460000D02*
X192980000Y-55560000D01*
X197820000Y-65460000D02*
X197820000Y-55560000D01*
X194765000Y-61186667D02*
X196035000Y-61186667D01*
X192980000Y-55560000D02*
X197820000Y-55560000D01*
X194765000Y-61186667D02*
X196035000Y-61186667D01*
X196035000Y-62540000D01*
X194765000Y-62540000D01*
X194765000Y-61186667D01*
G36*
X194765000Y-61186667D02*
G01*
X196035000Y-61186667D01*
X196035000Y-62540000D01*
X194765000Y-62540000D01*
X194765000Y-61186667D01*
G37*
X194765000Y-58480000D02*
X196035000Y-58480000D01*
X196035000Y-62540000D01*
X194765000Y-62540000D01*
X194765000Y-58480000D01*
%TO.C,SW1*%
X225520000Y-74350000D02*
X225520000Y-67890000D01*
X225550000Y-74350000D02*
X225520000Y-74350000D01*
X227450000Y-74350000D02*
X230050000Y-74350000D01*
X231980000Y-74350000D02*
X231950000Y-74350000D01*
X231980000Y-74350000D02*
X231980000Y-67890000D01*
X225520000Y-67890000D02*
X225550000Y-67890000D01*
X227450000Y-67890000D02*
X230050000Y-67890000D01*
X231980000Y-67890000D02*
X231950000Y-67890000D01*
%TO.C,RV2*%
X102720000Y-101320000D02*
X97480000Y-101320000D01*
X97480000Y-94320000D02*
X97480000Y-101320000D01*
X102720000Y-94320000D02*
X102720000Y-101320000D01*
X103720000Y-94320000D02*
X96480000Y-94320000D01*
X96480000Y-89320000D02*
X96480000Y-94320000D01*
X103720000Y-89320000D02*
X103720000Y-94320000D01*
X104970000Y-89320000D02*
X95230000Y-89320000D01*
X95230000Y-83679000D02*
X95230000Y-89320000D01*
X104970000Y-83679000D02*
X104970000Y-89320000D01*
X104970000Y-83679000D02*
X95230000Y-83679000D01*
%TO.C,RV1*%
X86220000Y-101320000D02*
X80980000Y-101320000D01*
X80980000Y-94320000D02*
X80980000Y-101320000D01*
X86220000Y-94320000D02*
X86220000Y-101320000D01*
X87220000Y-94320000D02*
X79980000Y-94320000D01*
X79980000Y-89320000D02*
X79980000Y-94320000D01*
X87220000Y-89320000D02*
X87220000Y-94320000D01*
X88470000Y-89320000D02*
X78730000Y-89320000D01*
X78730000Y-83679000D02*
X78730000Y-89320000D01*
X88470000Y-83679000D02*
X88470000Y-89320000D01*
X88470000Y-83679000D02*
X78730000Y-83679000D01*
%TO.C,R31*%
X150347742Y-69117500D02*
X150822258Y-69117500D01*
X150347742Y-70162500D02*
X150822258Y-70162500D01*
%TO.C,R29*%
X150347742Y-66607500D02*
X150822258Y-66607500D01*
X150347742Y-67652500D02*
X150822258Y-67652500D01*
%TO.C,R28*%
X150347742Y-64097500D02*
X150822258Y-64097500D01*
X150347742Y-65142500D02*
X150822258Y-65142500D01*
%TO.C,R27*%
X150347742Y-61587500D02*
X150822258Y-61587500D01*
X150347742Y-62632500D02*
X150822258Y-62632500D01*
%TO.C,R26*%
X150347742Y-59077500D02*
X150822258Y-59077500D01*
X150347742Y-60122500D02*
X150822258Y-60122500D01*
%TO.C,R25*%
X146337742Y-71627500D02*
X146812258Y-71627500D01*
X146337742Y-72672500D02*
X146812258Y-72672500D01*
%TO.C,R24*%
X96417742Y-65207500D02*
X96892258Y-65207500D01*
X96417742Y-66252500D02*
X96892258Y-66252500D01*
%TO.C,R22*%
X96417742Y-62697500D02*
X96892258Y-62697500D01*
X96417742Y-63742500D02*
X96892258Y-63742500D01*
%TO.C,R21*%
X96417742Y-60187500D02*
X96892258Y-60187500D01*
X96417742Y-61232500D02*
X96892258Y-61232500D01*
%TO.C,R19*%
X96417742Y-57677500D02*
X96892258Y-57677500D01*
X96417742Y-58722500D02*
X96892258Y-58722500D01*
%TO.C,R18*%
X92407742Y-70227500D02*
X92882258Y-70227500D01*
X92407742Y-71272500D02*
X92882258Y-71272500D01*
%TO.C,R16*%
X92407742Y-67717500D02*
X92882258Y-67717500D01*
X92407742Y-68762500D02*
X92882258Y-68762500D01*
%TO.C,R15*%
X92407742Y-65207500D02*
X92882258Y-65207500D01*
X92407742Y-66252500D02*
X92882258Y-66252500D01*
%TO.C,R13*%
X92407742Y-62697500D02*
X92882258Y-62697500D01*
X92407742Y-63742500D02*
X92882258Y-63742500D01*
%TO.C,R12*%
X92407742Y-60187500D02*
X92882258Y-60187500D01*
X92407742Y-61232500D02*
X92882258Y-61232500D01*
%TO.C,R11*%
X92407742Y-57677500D02*
X92882258Y-57677500D01*
X92407742Y-58722500D02*
X92882258Y-58722500D01*
%TO.C,R10*%
X88397742Y-70227500D02*
X88872258Y-70227500D01*
X88397742Y-71272500D02*
X88872258Y-71272500D01*
%TO.C,R9*%
X88397742Y-67717500D02*
X88872258Y-67717500D01*
X88397742Y-68762500D02*
X88872258Y-68762500D01*
%TO.C,Q2*%
X163440000Y-73340000D02*
X164960000Y-73340000D01*
X163440000Y-73390000D02*
X163440000Y-73340000D01*
X163440000Y-75290000D02*
X163440000Y-74510000D01*
X163440000Y-76460000D02*
X163440000Y-76410000D01*
X164960000Y-73340000D02*
X164960000Y-74340000D01*
X164960000Y-75460000D02*
X164960000Y-76460000D01*
X164960000Y-76460000D02*
X163440000Y-76460000D01*
X162900000Y-74520000D02*
X163140000Y-74850000D01*
X162660000Y-74850000D01*
X162900000Y-74520000D01*
G36*
X163140000Y-74850000D02*
G01*
X162660000Y-74850000D01*
X162900000Y-74520000D01*
X163140000Y-74850000D01*
G37*
%TO.C,Q1*%
X160905000Y-69690000D02*
X164505000Y-69690000D01*
X160866522Y-69678478D02*
G75*
G02*
X162705000Y-65239999I1838478J1838478D01*
G01*
X162705000Y-65240000D02*
G75*
G02*
X164543478Y-69678478I0J-2600000D01*
G01*
%TO.C,J9*%
X126250000Y-85550000D02*
X126250000Y-86800000D01*
X126550000Y-88100000D02*
X127300000Y-88100000D01*
X127300000Y-88100000D02*
X127300000Y-91050000D01*
X127300000Y-91050000D02*
X135350000Y-91050000D01*
X127500000Y-85550000D02*
X126250000Y-85550000D01*
X143400000Y-88100000D02*
X143400000Y-91050000D01*
X143400000Y-91050000D02*
X135350000Y-91050000D01*
X144150000Y-88100000D02*
X143400000Y-88100000D01*
X126540000Y-85840000D02*
X144160000Y-85840000D01*
X144160000Y-91810000D01*
X126540000Y-91810000D01*
X126540000Y-85840000D01*
X126550000Y-85850000D02*
X128350000Y-85850000D01*
X128350000Y-86600000D01*
X126550000Y-86600000D01*
X126550000Y-85850000D01*
X129850000Y-85850000D02*
X140850000Y-85850000D01*
X140850000Y-86600000D01*
X129850000Y-86600000D01*
X129850000Y-85850000D01*
X142350000Y-85850000D02*
X144150000Y-85850000D01*
X144150000Y-86600000D01*
X142350000Y-86600000D01*
X142350000Y-85850000D01*
%TO.C,J8*%
X228350000Y-93350000D02*
X229600000Y-93350000D01*
X230900000Y-93050000D02*
X230900000Y-92300000D01*
X230900000Y-92300000D02*
X232240000Y-92300000D01*
X228350000Y-92100000D02*
X228350000Y-93350000D01*
X233850000Y-86750000D02*
X233850000Y-91240000D01*
X230900000Y-81200000D02*
X233850000Y-81200000D01*
X233850000Y-81200000D02*
X233850000Y-86750000D01*
X230900000Y-80450000D02*
X230900000Y-81200000D01*
X228640000Y-80440000D02*
X234610000Y-80440000D01*
X234610000Y-93060000D01*
X228640000Y-93060000D01*
X228640000Y-80440000D01*
X228650000Y-91250000D02*
X229400000Y-91250000D01*
X229400000Y-93050000D01*
X228650000Y-93050000D01*
X228650000Y-91250000D01*
X228650000Y-83750000D02*
X229400000Y-83750000D01*
X229400000Y-89750000D01*
X228650000Y-89750000D01*
X228650000Y-83750000D01*
X228650000Y-80450000D02*
X229400000Y-80450000D01*
X229400000Y-82250000D01*
X228650000Y-82250000D01*
X228650000Y-80450000D01*
%TO.C,J7*%
X111430000Y-90740000D02*
X111430000Y-91640000D01*
X111430000Y-94340000D02*
X111430000Y-97070000D01*
X111430000Y-97070000D02*
X120620000Y-97070000D01*
X111550000Y-87660000D02*
X120500000Y-87660000D01*
X120620000Y-90740000D02*
X120620000Y-91640000D01*
X120620000Y-94340000D02*
X120620000Y-97070000D01*
%TO.C,J6*%
X184165000Y-53270000D02*
X191185000Y-53270000D01*
X193785000Y-53270000D02*
X200805000Y-53270000D01*
X200800000Y-48865000D02*
X200800000Y-53270000D01*
X184165000Y-48165000D02*
X184165000Y-53270000D01*
X181365000Y-40220000D02*
X184165000Y-40220000D01*
X184165000Y-40220000D02*
X184165000Y-45965000D01*
X200805000Y-40220000D02*
X200805000Y-46565000D01*
X203605000Y-40220000D02*
X200805000Y-40220000D01*
X181365000Y-35120000D02*
X181365000Y-40220000D01*
X181365000Y-35120000D02*
X179865000Y-35120000D01*
X203605000Y-35120000D02*
X203605000Y-40220000D01*
X205105000Y-35120000D02*
X203605000Y-35120000D01*
X179865000Y-28530000D02*
X179865000Y-35120000D01*
X179865000Y-28530000D02*
X181365000Y-28530000D01*
X181365000Y-28530000D02*
X181365000Y-25830000D01*
X203605000Y-28530000D02*
X205105000Y-28530000D01*
X203605000Y-28530000D02*
X203605000Y-25830000D01*
X205105000Y-28530000D02*
X205105000Y-35120000D01*
X181365000Y-25830000D02*
X184365000Y-25830000D01*
X184365000Y-25830000D02*
X184365000Y-24830000D01*
X200605000Y-25830000D02*
X203605000Y-25830000D01*
X200605000Y-25830000D02*
X200605000Y-24830000D01*
X184365000Y-24830000D02*
G75*
G02*
X200585230Y-24819399I8120000J-15120000D01*
G01*
%TO.C,J4*%
X178330000Y-35690000D02*
X174630000Y-35690000D01*
X178330000Y-29100000D02*
X178330000Y-35690000D01*
X176530000Y-29100000D02*
X178330000Y-29100000D01*
X176530000Y-29100000D02*
X176530000Y-26400000D01*
X174630000Y-35690000D02*
X174630000Y-41340000D01*
X171830000Y-41340000D02*
X174630000Y-41340000D01*
X171830000Y-41340000D02*
X171830000Y-48540000D01*
X170410000Y-48540000D02*
X171830000Y-48540000D01*
X166110000Y-48540000D02*
X168010000Y-48540000D01*
X164710000Y-48540000D02*
X162810000Y-48540000D01*
X158990000Y-48540000D02*
X160410000Y-48540000D01*
X158990000Y-41340000D02*
X158990000Y-48540000D01*
X158990000Y-41340000D02*
X156190000Y-41340000D01*
X156190000Y-35690000D02*
X156190000Y-41340000D01*
X156190000Y-35690000D02*
X152790000Y-35690000D01*
X154290000Y-29100000D02*
X154290000Y-26400000D01*
X154290000Y-26400000D02*
X176530000Y-26400000D01*
X152790000Y-29100000D02*
X154290000Y-29100000D01*
X152790000Y-29100000D02*
X152790000Y-35690000D01*
%TO.C,J3*%
X149930000Y-35590000D02*
X146230000Y-35590000D01*
X149930000Y-29000000D02*
X149930000Y-35590000D01*
X148130000Y-29000000D02*
X149930000Y-29000000D01*
X148130000Y-29000000D02*
X148130000Y-26300000D01*
X146230000Y-35590000D02*
X146230000Y-41240000D01*
X143430000Y-41240000D02*
X146230000Y-41240000D01*
X143430000Y-41240000D02*
X143430000Y-48440000D01*
X142010000Y-48440000D02*
X143430000Y-48440000D01*
X137710000Y-48440000D02*
X139610000Y-48440000D01*
X136310000Y-48440000D02*
X134410000Y-48440000D01*
X130590000Y-48440000D02*
X132010000Y-48440000D01*
X130590000Y-41240000D02*
X130590000Y-48440000D01*
X130590000Y-41240000D02*
X127790000Y-41240000D01*
X127790000Y-35590000D02*
X127790000Y-41240000D01*
X127790000Y-35590000D02*
X124390000Y-35590000D01*
X125890000Y-29000000D02*
X125890000Y-26300000D01*
X125890000Y-26300000D02*
X148130000Y-26300000D01*
X124390000Y-29000000D02*
X125890000Y-29000000D01*
X124390000Y-29000000D02*
X124390000Y-35590000D01*
%TO.C,J2*%
X119810000Y-35490000D02*
X116110000Y-35490000D01*
X119810000Y-28900000D02*
X119810000Y-35490000D01*
X118010000Y-28900000D02*
X119810000Y-28900000D01*
X118010000Y-28900000D02*
X118010000Y-26200000D01*
X116110000Y-35490000D02*
X116110000Y-41140000D01*
X113310000Y-41140000D02*
X116110000Y-41140000D01*
X113310000Y-41140000D02*
X113310000Y-48340000D01*
X111890000Y-48340000D02*
X113310000Y-48340000D01*
X107590000Y-48340000D02*
X109490000Y-48340000D01*
X106190000Y-48340000D02*
X104290000Y-48340000D01*
X100470000Y-48340000D02*
X101890000Y-48340000D01*
X100470000Y-41140000D02*
X100470000Y-48340000D01*
X100470000Y-41140000D02*
X97670000Y-41140000D01*
X97670000Y-35490000D02*
X97670000Y-41140000D01*
X97670000Y-35490000D02*
X94270000Y-35490000D01*
X95770000Y-28900000D02*
X95770000Y-26200000D01*
X95770000Y-26200000D02*
X118010000Y-26200000D01*
X94270000Y-28900000D02*
X95770000Y-28900000D01*
X94270000Y-28900000D02*
X94270000Y-35490000D01*
%TO.C,J1*%
X91710000Y-35790000D02*
X88010000Y-35790000D01*
X91710000Y-29200000D02*
X91710000Y-35790000D01*
X89910000Y-29200000D02*
X91710000Y-29200000D01*
X89910000Y-29200000D02*
X89910000Y-26500000D01*
X88010000Y-35790000D02*
X88010000Y-41440000D01*
X85210000Y-41440000D02*
X88010000Y-41440000D01*
X85210000Y-41440000D02*
X85210000Y-48640000D01*
X83790000Y-48640000D02*
X85210000Y-48640000D01*
X79490000Y-48640000D02*
X81390000Y-48640000D01*
X78090000Y-48640000D02*
X76190000Y-48640000D01*
X72370000Y-48640000D02*
X73790000Y-48640000D01*
X72370000Y-41440000D02*
X72370000Y-48640000D01*
X72370000Y-41440000D02*
X69570000Y-41440000D01*
X69570000Y-35790000D02*
X69570000Y-41440000D01*
X69570000Y-35790000D02*
X66170000Y-35790000D01*
X67670000Y-29200000D02*
X67670000Y-26500000D01*
X67670000Y-26500000D02*
X89910000Y-26500000D01*
X66170000Y-29200000D02*
X67670000Y-29200000D01*
X66170000Y-29200000D02*
X66170000Y-35790000D01*
%TO.C,D4*%
X211315000Y-61415000D02*
X211315000Y-64585000D01*
X211315000Y-64585000D02*
X215200000Y-64585000D01*
X215200000Y-61415000D02*
X211315000Y-61415000D01*
%TO.C,D3*%
X202915000Y-61815000D02*
X202915000Y-64985000D01*
X202915000Y-64985000D02*
X206800000Y-64985000D01*
X206800000Y-61815000D02*
X202915000Y-61815000D01*
%TO.C,D2*%
X145130000Y-78255000D02*
X145130000Y-81425000D01*
X145130000Y-81425000D02*
X149015000Y-81425000D01*
X149015000Y-78255000D02*
X145130000Y-78255000D01*
%TO.C,D1*%
X145130000Y-73965000D02*
X145130000Y-77135000D01*
X145130000Y-77135000D02*
X149015000Y-77135000D01*
X149015000Y-73965000D02*
X145130000Y-73965000D01*
%TO.C,C44*%
X146434420Y-69130000D02*
X146715580Y-69130000D01*
X146434420Y-70150000D02*
X146715580Y-70150000D01*
%TO.C,C43*%
X146434420Y-66620000D02*
X146715580Y-66620000D01*
X146434420Y-67640000D02*
X146715580Y-67640000D01*
%TO.C,C42*%
X146434420Y-64110000D02*
X146715580Y-64110000D01*
X146434420Y-65130000D02*
X146715580Y-65130000D01*
%TO.C,C41*%
X146434420Y-61600000D02*
X146715580Y-61600000D01*
X146434420Y-62620000D02*
X146715580Y-62620000D01*
%TO.C,C40*%
X146434420Y-59090000D02*
X146715580Y-59090000D01*
X146434420Y-60110000D02*
X146715580Y-60110000D01*
%TO.C,C37*%
X88494420Y-65220000D02*
X88775580Y-65220000D01*
X88494420Y-66240000D02*
X88775580Y-66240000D01*
%TO.C,C35*%
X88494420Y-62710000D02*
X88775580Y-62710000D01*
X88494420Y-63730000D02*
X88775580Y-63730000D01*
%TO.C,C34*%
X88494420Y-60200000D02*
X88775580Y-60200000D01*
X88494420Y-61220000D02*
X88775580Y-61220000D01*
%TO.C,C32*%
X88494420Y-57690000D02*
X88775580Y-57690000D01*
X88494420Y-58710000D02*
X88775580Y-58710000D01*
%TO.C,C31*%
X84484420Y-70240000D02*
X84765580Y-70240000D01*
X84484420Y-71260000D02*
X84765580Y-71260000D01*
%TO.C,C29*%
X84484420Y-67730000D02*
X84765580Y-67730000D01*
X84484420Y-68750000D02*
X84765580Y-68750000D01*
%TO.C,C28*%
X84484420Y-65220000D02*
X84765580Y-65220000D01*
X84484420Y-66240000D02*
X84765580Y-66240000D01*
%TO.C,C26*%
X84484420Y-62710000D02*
X84765580Y-62710000D01*
X84484420Y-63730000D02*
X84765580Y-63730000D01*
%TO.C,C25*%
X84484420Y-60200000D02*
X84765580Y-60200000D01*
X84484420Y-61220000D02*
X84765580Y-61220000D01*
%TO.C,C24*%
X84484420Y-57690000D02*
X84765580Y-57690000D01*
X84484420Y-58710000D02*
X84765580Y-58710000D01*
%TD*%
M02*
