%TF.GenerationSoftware,KiCad,Pcbnew,10.0.4*%
%TF.CreationDate,2026-07-23T12:40:38+02:00*%
%TF.ProjectId,DSP-hw,4453502d-6877-42e6-9b69-6361645f7063,rev?*%
%TF.SameCoordinates,Original*%
%TF.FileFunction,Soldermask,Bot*%
%TF.FilePolarity,Negative*%
%FSLAX46Y46*%
G04 Gerber Fmt 4.6, Leading zero omitted, Abs format (unit mm)*
G04 Created by KiCad (PCBNEW 10.0.4) date 2026-07-23 12:40:38*
%MOMM*%
%LPD*%
G01*
G04 APERTURE LIST*
G04 Aperture macros list*
%AMRoundRect*
0 Rectangle with rounded corners*
0 $1 Rounding radius*
0 $2 $3 $4 $5 $6 $7 $8 $9 X,Y pos of 4 corners*
0 Add a 4 corners polygon primitive as box body*
4,1,4,$2,$3,$4,$5,$6,$7,$8,$9,$2,$3,0*
0 Add four circle primitives for the rounded corners*
1,1,$1+$1,$2,$3*
1,1,$1+$1,$4,$5*
1,1,$1+$1,$6,$7*
1,1,$1+$1,$8,$9*
0 Add four rect primitives between the rounded corners*
20,1,$1+$1,$2,$3,$4,$5,0*
20,1,$1+$1,$4,$5,$6,$7,0*
20,1,$1+$1,$6,$7,$8,$9,0*
20,1,$1+$1,$8,$9,$2,$3,0*%
G04 Aperture macros list end*
%ADD10C,3.400000*%
%ADD11C,2.700000*%
%ADD12C,3.200000*%
%ADD13C,2.900000*%
%ADD14C,1.600000*%
%ADD15C,1.200000*%
%ADD16O,2.200000X1.200000*%
%ADD17O,1.200000X2.200000*%
%ADD18RoundRect,0.250000X0.550000X-0.550000X0.550000X0.550000X-0.550000X0.550000X-0.550000X-0.550000X0*%
%ADD19R,1.800000X1.800000*%
%ADD20C,1.800000*%
%ADD21R,1.050000X1.500000*%
%ADD22O,1.050000X1.500000*%
%ADD23RoundRect,0.250000X-0.600000X-0.725000X0.600000X-0.725000X0.600000X0.725000X-0.600000X0.725000X0*%
%ADD24O,1.700000X1.950000*%
%ADD25RoundRect,0.250000X0.725000X-0.600000X0.725000X0.600000X-0.725000X0.600000X-0.725000X-0.600000X0*%
%ADD26O,1.950000X1.700000*%
%ADD27C,0.700000*%
%ADD28O,0.900000X2.400000*%
%ADD29O,0.900000X1.700000*%
G04 APERTURE END LIST*
D10*
%TO.C,J5*%
X225860000Y-44425000D03*
X216970000Y-44425000D03*
D11*
X218557500Y-51410000D03*
X224272500Y-51410000D03*
D12*
X213160000Y-35535000D03*
D11*
X221415000Y-52045000D03*
D13*
X228400000Y-47600000D03*
X214430000Y-46965000D03*
D14*
X227130000Y-34900000D03*
X215700000Y-34900000D03*
X221415000Y-38075000D03*
%TD*%
D15*
%TO.C,J11*%
X68700000Y-77000000D03*
X66200000Y-77000000D03*
X73700000Y-82000000D03*
X68700000Y-87000000D03*
X66200000Y-87000000D03*
D16*
X73700000Y-77000000D03*
D17*
X68700000Y-82000000D03*
D16*
X73700000Y-87000000D03*
%TD*%
D15*
%TO.C,J10*%
X68700000Y-64000000D03*
X66200000Y-64000000D03*
X73700000Y-69000000D03*
X68700000Y-74000000D03*
X66200000Y-74000000D03*
D16*
X73700000Y-64000000D03*
D17*
X68700000Y-69000000D03*
D16*
X73700000Y-74000000D03*
%TD*%
D18*
%TO.C,SW7*%
X221300000Y-63220000D03*
D14*
X221300000Y-55600000D03*
%TD*%
D18*
%TO.C,SW6*%
X195400000Y-64320000D03*
D14*
X195400000Y-56700000D03*
%TD*%
D19*
%TO.C,RV2*%
X97600000Y-85750000D03*
D20*
X100100000Y-85750000D03*
X102600000Y-85750000D03*
%TD*%
D19*
%TO.C,RV1*%
X81100000Y-85750000D03*
D20*
X83600000Y-85750000D03*
X86100000Y-85750000D03*
%TD*%
D21*
%TO.C,Q1*%
X161435000Y-67840000D03*
D22*
X162705000Y-67840000D03*
X163975000Y-67840000D03*
%TD*%
D23*
%TO.C,J9*%
X129100000Y-88300000D03*
D24*
X131600000Y-88300000D03*
X134100000Y-88300000D03*
X136600000Y-88300000D03*
X139100000Y-88300000D03*
X141600000Y-88300000D03*
%TD*%
D15*
%TO.C,J8*%
X233100000Y-92100000D03*
D25*
X231100000Y-90500000D03*
D26*
X231100000Y-88000000D03*
X231100000Y-85500000D03*
X231100000Y-83000000D03*
%TD*%
D27*
%TO.C,J7*%
X113050000Y-88340000D03*
X113900000Y-88340000D03*
X114750000Y-88340000D03*
X115600000Y-88340000D03*
X116450000Y-88340000D03*
X117300000Y-88340000D03*
X118150000Y-88340000D03*
X119000000Y-88340000D03*
X119000000Y-89690000D03*
X118150000Y-89690000D03*
X117300000Y-89690000D03*
X116450000Y-89690000D03*
X115600000Y-89690000D03*
X114750000Y-89690000D03*
X113900000Y-89690000D03*
X113050000Y-89690000D03*
D28*
X111700000Y-89320000D03*
D29*
X111700000Y-92700000D03*
D28*
X120350000Y-89320000D03*
D29*
X120350000Y-92700000D03*
%TD*%
D14*
%TO.C,J6*%
X192485000Y-38175000D03*
X186770000Y-35000000D03*
X198200000Y-35000000D03*
D13*
X185500000Y-47065000D03*
X199470000Y-47700000D03*
D11*
X192485000Y-52145000D03*
D12*
X184230000Y-35635000D03*
D11*
X195342500Y-51510000D03*
X189627500Y-51510000D03*
D10*
X188040000Y-44525000D03*
X196930000Y-44525000D03*
%TD*%
D14*
%TO.C,J4*%
X169220000Y-38110000D03*
X161600000Y-33030000D03*
D10*
X169220000Y-47000000D03*
X161600000Y-47000000D03*
D13*
X165410000Y-47000000D03*
X165410000Y-41920000D03*
%TD*%
D14*
%TO.C,J3*%
X140820000Y-38010000D03*
X133200000Y-32930000D03*
D10*
X140820000Y-46900000D03*
X133200000Y-46900000D03*
D13*
X137010000Y-46900000D03*
X137010000Y-41820000D03*
%TD*%
D14*
%TO.C,J2*%
X110700000Y-37910000D03*
X103080000Y-32830000D03*
D10*
X110700000Y-46800000D03*
X103080000Y-46800000D03*
D13*
X106890000Y-46800000D03*
X106890000Y-41720000D03*
%TD*%
D14*
%TO.C,J1*%
X82600000Y-38210000D03*
X74980000Y-33130000D03*
D10*
X82600000Y-47100000D03*
X74980000Y-47100000D03*
D13*
X78790000Y-47100000D03*
X78790000Y-42020000D03*
%TD*%
M02*
