%TF.GenerationSoftware,KiCad,Pcbnew,10.0.4*%
%TF.CreationDate,2026-07-28T16:27:08+02:00*%
%TF.ProjectId,DSP-hw,4453502d-6877-42e6-9b69-6361645f7063,rev?*%
%TF.SameCoordinates,Original*%
%TF.FileFunction,Soldermask,Bot*%
%TF.FilePolarity,Negative*%
%FSLAX46Y46*%
G04 Gerber Fmt 4.6, Leading zero omitted, Abs format (unit mm)*
G04 Created by KiCad (PCBNEW 10.0.4) date 2026-07-28 16:27:08*
%MOMM*%
%LPD*%
G01*
G04 APERTURE LIST*
G04 Aperture macros list*
%AMRoundRect*
0 Rectangle with rounded corners*
0 $1 Rounding radius*
0 $2 $3 $4 $5 $6 $7 $8 $9 X,Y pos of 4 corners*
0 Add a 4 corners polygon primitive as box body*
4,1,4,$2,$3,$4,$5,$6,$7,$8,$9,$2,$3,0*
0 Add four circle primitives for the rounded corners*
1,1,$1+$1,$2,$3*
1,1,$1+$1,$4,$5*
1,1,$1+$1,$6,$7*
1,1,$1+$1,$8,$9*
0 Add four rect primitives between the rounded corners*
20,1,$1+$1,$2,$3,$4,$5,0*
20,1,$1+$1,$4,$5,$6,$7,0*
20,1,$1+$1,$6,$7,$8,$9,0*
20,1,$1+$1,$8,$9,$2,$3,0*%
G04 Aperture macros list end*
%ADD10R,1.800000X1.800000*%
%ADD11C,1.800000*%
%ADD12C,1.200000*%
%ADD13C,1.100000*%
%ADD14O,2.300000X1.800000*%
%ADD15O,2.300000X2.000000*%
%ADD16RoundRect,0.250000X0.550000X0.550000X-0.550000X0.550000X-0.550000X-0.550000X0.550000X-0.550000X0*%
%ADD17C,1.600000*%
%ADD18C,3.400000*%
%ADD19C,2.900000*%
%ADD20C,2.700000*%
%ADD21C,3.200000*%
%ADD22C,0.650000*%
%ADD23O,1.000000X2.100000*%
%ADD24O,1.000000X1.800000*%
%ADD25R,1.050000X1.500000*%
%ADD26O,1.050000X1.500000*%
%ADD27RoundRect,0.250000X0.600000X0.725000X-0.600000X0.725000X-0.600000X-0.725000X0.600000X-0.725000X0*%
%ADD28O,1.700000X1.950000*%
%ADD29RoundRect,0.250000X-0.725000X0.600000X-0.725000X-0.600000X0.725000X-0.600000X0.725000X0.600000X0*%
%ADD30O,1.950000X1.700000*%
G04 APERTURE END LIST*
D10*
%TO.C,RV2*%
X88000000Y-83500000D03*
D11*
X90500000Y-83500000D03*
X93000000Y-83500000D03*
%TD*%
D12*
%TO.C,C30*%
X127150000Y-83050000D03*
X127150000Y-84550000D03*
%TD*%
D13*
%TO.C,J11*%
X64025000Y-66875000D03*
X64025000Y-61875000D03*
D14*
X68025000Y-62075000D03*
X68025000Y-66675000D03*
D15*
X60525000Y-67225000D03*
X60525000Y-61525000D03*
%TD*%
D16*
%TO.C,SW6*%
X201767500Y-56987500D03*
D17*
X194147500Y-56987500D03*
%TD*%
D16*
%TO.C,SW7*%
X230267500Y-56987500D03*
D17*
X222647500Y-56987500D03*
%TD*%
%TO.C,J3*%
X140620000Y-38080000D03*
X133000000Y-33000000D03*
D18*
X140620000Y-46970000D03*
X133000000Y-46970000D03*
D19*
X136810000Y-46970000D03*
X136810000Y-41890000D03*
%TD*%
D17*
%TO.C,C19*%
X134200000Y-84725000D03*
X134200000Y-86725000D03*
%TD*%
D10*
%TO.C,RV1*%
X66500000Y-83650000D03*
D11*
X69000000Y-83650000D03*
X71500000Y-83650000D03*
%TD*%
D17*
%TO.C,C20*%
X133100000Y-69500000D03*
X135100000Y-69500000D03*
%TD*%
D16*
%TO.C,U5*%
X128000000Y-76900000D03*
D17*
X128000000Y-74360000D03*
X128000000Y-71820000D03*
X128000000Y-69280000D03*
%TD*%
D13*
%TO.C,J10*%
X64025000Y-76625000D03*
X64025000Y-71625000D03*
D14*
X68025000Y-71825000D03*
X68025000Y-76425000D03*
D15*
X60525000Y-76975000D03*
X60525000Y-71275000D03*
%TD*%
D12*
%TO.C,C40*%
X165550000Y-62200000D03*
X167050000Y-62200000D03*
%TD*%
D17*
%TO.C,J5*%
X222755000Y-38540000D03*
X217040000Y-35365000D03*
X228470000Y-35365000D03*
D19*
X215770000Y-47430000D03*
X229740000Y-48065000D03*
D20*
X222755000Y-52510000D03*
D21*
X214500000Y-36000000D03*
D20*
X225612500Y-51875000D03*
X219897500Y-51875000D03*
D18*
X218310000Y-44890000D03*
X227200000Y-44890000D03*
%TD*%
D22*
%TO.C,J7*%
X114160000Y-89335000D03*
X119940000Y-89335000D03*
D23*
X112730000Y-88835000D03*
D24*
X112730000Y-93015000D03*
D23*
X121370000Y-88835000D03*
D24*
X121370000Y-93015000D03*
%TD*%
D17*
%TO.C,J1*%
X83500000Y-38110000D03*
X75880000Y-33030000D03*
D18*
X83500000Y-47000000D03*
X75880000Y-47000000D03*
D19*
X79690000Y-47000000D03*
X79690000Y-41920000D03*
%TD*%
D25*
%TO.C,Q1*%
X198800000Y-86700000D03*
D26*
X197530000Y-86700000D03*
X196260000Y-86700000D03*
%TD*%
D12*
%TO.C,J8*%
X223350000Y-88525000D03*
D27*
X221750000Y-90525000D03*
D28*
X219250000Y-90525000D03*
X216750000Y-90525000D03*
X214250000Y-90525000D03*
%TD*%
D17*
%TO.C,J4*%
X169220000Y-38110000D03*
X161600000Y-33030000D03*
D18*
X169220000Y-47000000D03*
X161600000Y-47000000D03*
D19*
X165410000Y-47000000D03*
X165410000Y-41920000D03*
%TD*%
D17*
%TO.C,J6*%
X193825000Y-38640000D03*
X188110000Y-35465000D03*
X199540000Y-35465000D03*
D19*
X186840000Y-47530000D03*
X200810000Y-48165000D03*
D20*
X193825000Y-52610000D03*
D21*
X185570000Y-36100000D03*
D20*
X196682500Y-51975000D03*
X190967500Y-51975000D03*
D18*
X189380000Y-44990000D03*
X198270000Y-44990000D03*
%TD*%
D29*
%TO.C,J9*%
X173900000Y-62000000D03*
D30*
X173900000Y-64500000D03*
X173900000Y-67000000D03*
X173900000Y-69500000D03*
X173900000Y-72000000D03*
X173900000Y-74500000D03*
%TD*%
D17*
%TO.C,J2*%
X112000000Y-38110000D03*
X104380000Y-33030000D03*
D18*
X112000000Y-47000000D03*
X104380000Y-47000000D03*
D19*
X108190000Y-47000000D03*
X108190000Y-41920000D03*
%TD*%
M02*
