%TF.GenerationSoftware,KiCad,Pcbnew,10.0.4*%
%TF.CreationDate,2026-07-27T16:09:17+02:00*%
%TF.ProjectId,DSP-hw,4453502d-6877-42e6-9b69-6361645f7063,rev?*%
%TF.SameCoordinates,Original*%
%TF.FileFunction,Soldermask,Top*%
%TF.FilePolarity,Negative*%
%FSLAX46Y46*%
G04 Gerber Fmt 4.6, Leading zero omitted, Abs format (unit mm)*
G04 Created by KiCad (PCBNEW 10.0.4) date 2026-07-27 16:09:17*
%MOMM*%
%LPD*%
G01*
G04 APERTURE LIST*
G04 Aperture macros list*
%AMRoundRect*
0 Rectangle with rounded corners*
0 $1 Rounding radius*
0 $2 $3 $4 $5 $6 $7 $8 $9 X,Y pos of 4 corners*
0 Add a 4 corners polygon primitive as box body*
4,1,4,$2,$3,$4,$5,$6,$7,$8,$9,$2,$3,0*
0 Add four circle primitives for the rounded corners*
1,1,$1+$1,$2,$3*
1,1,$1+$1,$4,$5*
1,1,$1+$1,$6,$7*
1,1,$1+$1,$8,$9*
0 Add four rect primitives between the rounded corners*
20,1,$1+$1,$2,$3,$4,$5,0*
20,1,$1+$1,$4,$5,$6,$7,0*
20,1,$1+$1,$6,$7,$8,$9,0*
20,1,$1+$1,$8,$9,$2,$3,0*%
%AMFreePoly0*
4,1,6,1.000000,0.000000,0.500000,-0.750000,-0.500000,-0.750000,-0.500000,0.750000,0.500000,0.750000,1.000000,0.000000,1.000000,0.000000,$1*%
%AMFreePoly1*
4,1,6,0.500000,-0.750000,-0.650000,-0.750000,-0.150000,0.000000,-0.650000,0.750000,0.500000,0.750000,0.500000,-0.750000,0.500000,-0.750000,$1*%
G04 Aperture macros list end*
%ADD10R,1.800000X1.800000*%
%ADD11C,1.800000*%
%ADD12FreePoly0,90.000000*%
%ADD13FreePoly1,90.000000*%
%ADD14RoundRect,0.225000X-0.250000X0.225000X-0.250000X-0.225000X0.250000X-0.225000X0.250000X0.225000X0*%
%ADD15RoundRect,0.250000X0.525000X0.400000X-0.525000X0.400000X-0.525000X-0.400000X0.525000X-0.400000X0*%
%ADD16C,1.200000*%
%ADD17RoundRect,0.225000X0.225000X0.250000X-0.225000X0.250000X-0.225000X-0.250000X0.225000X-0.250000X0*%
%ADD18RoundRect,0.200000X-0.275000X0.200000X-0.275000X-0.200000X0.275000X-0.200000X0.275000X0.200000X0*%
%ADD19RoundRect,0.075000X-0.700000X-0.075000X0.700000X-0.075000X0.700000X0.075000X-0.700000X0.075000X0*%
%ADD20RoundRect,0.075000X-0.075000X-0.700000X0.075000X-0.700000X0.075000X0.700000X-0.075000X0.700000X0*%
%ADD21RoundRect,0.200000X0.275000X-0.200000X0.275000X0.200000X-0.275000X0.200000X-0.275000X-0.200000X0*%
%ADD22RoundRect,0.250000X0.475000X-0.250000X0.475000X0.250000X-0.475000X0.250000X-0.475000X-0.250000X0*%
%ADD23RoundRect,0.250000X0.550000X0.550000X-0.550000X0.550000X-0.550000X-0.550000X0.550000X-0.550000X0*%
%ADD24C,1.600000*%
%ADD25RoundRect,0.225000X0.250000X-0.225000X0.250000X0.225000X-0.250000X0.225000X-0.250000X-0.225000X0*%
%ADD26RoundRect,0.250000X1.075000X-0.375000X1.075000X0.375000X-1.075000X0.375000X-1.075000X-0.375000X0*%
%ADD27RoundRect,0.250000X-0.250000X-0.475000X0.250000X-0.475000X0.250000X0.475000X-0.250000X0.475000X0*%
%ADD28RoundRect,0.200000X-0.200000X-0.275000X0.200000X-0.275000X0.200000X0.275000X-0.200000X0.275000X0*%
%ADD29RoundRect,0.200000X0.200000X0.275000X-0.200000X0.275000X-0.200000X-0.275000X0.200000X-0.275000X0*%
%ADD30RoundRect,0.150000X0.150000X-0.875000X0.150000X0.875000X-0.150000X0.875000X-0.150000X-0.875000X0*%
%ADD31C,3.400000*%
%ADD32C,2.900000*%
%ADD33RoundRect,0.150000X-0.587500X-0.150000X0.587500X-0.150000X0.587500X0.150000X-0.587500X0.150000X0*%
%ADD34RoundRect,0.250000X-1.100000X0.325000X-1.100000X-0.325000X1.100000X-0.325000X1.100000X0.325000X0*%
%ADD35RoundRect,0.250000X0.325000X1.100000X-0.325000X1.100000X-0.325000X-1.100000X0.325000X-1.100000X0*%
%ADD36RoundRect,0.150000X0.150000X-0.825000X0.150000X0.825000X-0.150000X0.825000X-0.150000X-0.825000X0*%
%ADD37RoundRect,0.250000X-0.750000X2.000000X-0.750000X-2.000000X0.750000X-2.000000X0.750000X2.000000X0*%
%ADD38RoundRect,0.225000X-0.225000X-0.250000X0.225000X-0.250000X0.225000X0.250000X-0.225000X0.250000X0*%
%ADD39C,0.700000*%
%ADD40O,0.900000X2.400000*%
%ADD41O,0.900000X1.700000*%
%ADD42C,2.700000*%
%ADD43C,3.200000*%
%ADD44RoundRect,0.375000X-0.375000X0.625000X-0.375000X-0.625000X0.375000X-0.625000X0.375000X0.625000X0*%
%ADD45RoundRect,0.500000X-1.400000X0.500000X-1.400000X-0.500000X1.400000X-0.500000X1.400000X0.500000X0*%
%ADD46RoundRect,0.250000X-0.525000X-0.400000X0.525000X-0.400000X0.525000X0.400000X-0.525000X0.400000X0*%
%ADD47RoundRect,0.075000X-0.662500X-0.075000X0.662500X-0.075000X0.662500X0.075000X-0.662500X0.075000X0*%
%ADD48RoundRect,0.075000X-0.075000X-0.662500X0.075000X-0.662500X0.075000X0.662500X-0.075000X0.662500X0*%
%ADD49RoundRect,0.250000X-0.475000X0.250000X-0.475000X-0.250000X0.475000X-0.250000X0.475000X0.250000X0*%
%ADD50O,2.200000X1.200000*%
%ADD51O,1.200000X2.200000*%
%ADD52R,1.050000X1.500000*%
%ADD53O,1.050000X1.500000*%
%ADD54RoundRect,0.250000X0.600000X0.725000X-0.600000X0.725000X-0.600000X-0.725000X0.600000X-0.725000X0*%
%ADD55O,1.700000X1.950000*%
%ADD56RoundRect,0.250000X0.250000X0.475000X-0.250000X0.475000X-0.250000X-0.475000X0.250000X-0.475000X0*%
%ADD57RoundRect,0.250000X-0.725000X0.600000X-0.725000X-0.600000X0.725000X-0.600000X0.725000X0.600000X0*%
%ADD58O,1.950000X1.700000*%
G04 APERTURE END LIST*
%TO.C,JP1*%
G36*
X111800000Y-72000000D02*
G01*
X113300000Y-72000000D01*
X113300000Y-74450000D01*
X111800000Y-74450000D01*
X111800000Y-72000000D01*
G37*
%TO.C,JP2*%
G36*
X114400000Y-72000000D02*
G01*
X115900000Y-72000000D01*
X115900000Y-74450000D01*
X114400000Y-74450000D01*
X114400000Y-72000000D01*
G37*
%TO.C,JP3*%
G36*
X117000000Y-72000000D02*
G01*
X118500000Y-72000000D01*
X118500000Y-74450000D01*
X117000000Y-74450000D01*
X117000000Y-72000000D01*
G37*
%TO.C,JP4*%
G36*
X119600000Y-72000000D02*
G01*
X121100000Y-72000000D01*
X121100000Y-74450000D01*
X119600000Y-74450000D01*
X119600000Y-72000000D01*
G37*
%TD*%
D10*
%TO.C,RV2*%
X88000000Y-83500000D03*
D11*
X90500000Y-83500000D03*
X93000000Y-83500000D03*
%TD*%
D12*
%TO.C,JP1*%
X112550000Y-73950000D03*
D13*
X112550000Y-72500000D03*
%TD*%
D14*
%TO.C,C3*%
X205200000Y-86330000D03*
X205200000Y-87880000D03*
%TD*%
D15*
%TO.C,SW2*%
X147680000Y-62950000D03*
X139720000Y-62950000D03*
X147680000Y-58450000D03*
X139720000Y-58450000D03*
%TD*%
D16*
%TO.C,C30*%
X127500000Y-82950000D03*
X127500000Y-84450000D03*
%TD*%
D17*
%TO.C,C7*%
X211875000Y-73300000D03*
X210325000Y-73300000D03*
%TD*%
D18*
%TO.C,R32*%
X151700000Y-89375000D03*
X151700000Y-91025000D03*
%TD*%
D17*
%TO.C,C33*%
X114775000Y-81100000D03*
X113225000Y-81100000D03*
%TD*%
D19*
%TO.C,U4*%
X151300000Y-63600000D03*
X151300000Y-64100000D03*
X151300000Y-64600000D03*
X151300000Y-65100000D03*
X151300000Y-65600000D03*
X151300000Y-66100000D03*
X151300000Y-66600000D03*
X151300000Y-67100000D03*
X151300000Y-67600000D03*
X151300000Y-68100000D03*
X151300000Y-68600000D03*
X151300000Y-69100000D03*
X151300000Y-69600000D03*
X151300000Y-70100000D03*
X151300000Y-70600000D03*
X151300000Y-71100000D03*
D20*
X153225000Y-73025000D03*
X153725000Y-73025000D03*
X154225000Y-73025000D03*
X154725000Y-73025000D03*
X155225000Y-73025000D03*
X155725000Y-73025000D03*
X156225000Y-73025000D03*
X156725000Y-73025000D03*
X157225000Y-73025000D03*
X157725000Y-73025000D03*
X158225000Y-73025000D03*
X158725000Y-73025000D03*
X159225000Y-73025000D03*
X159725000Y-73025000D03*
X160225000Y-73025000D03*
X160725000Y-73025000D03*
D19*
X162650000Y-71100000D03*
X162650000Y-70600000D03*
X162650000Y-70100000D03*
X162650000Y-69600000D03*
X162650000Y-69100000D03*
X162650000Y-68600000D03*
X162650000Y-68100000D03*
X162650000Y-67600000D03*
X162650000Y-67100000D03*
X162650000Y-66600000D03*
X162650000Y-66100000D03*
X162650000Y-65600000D03*
X162650000Y-65100000D03*
X162650000Y-64600000D03*
X162650000Y-64100000D03*
X162650000Y-63600000D03*
D20*
X160725000Y-61675000D03*
X160225000Y-61675000D03*
X159725000Y-61675000D03*
X159225000Y-61675000D03*
X158725000Y-61675000D03*
X158225000Y-61675000D03*
X157725000Y-61675000D03*
X157225000Y-61675000D03*
X156725000Y-61675000D03*
X156225000Y-61675000D03*
X155725000Y-61675000D03*
X155225000Y-61675000D03*
X154725000Y-61675000D03*
X154225000Y-61675000D03*
X153725000Y-61675000D03*
X153225000Y-61675000D03*
%TD*%
D17*
%TO.C,C37*%
X159475000Y-51200000D03*
X157925000Y-51200000D03*
%TD*%
D21*
%TO.C,R8*%
X183000000Y-85525000D03*
X183000000Y-83875000D03*
%TD*%
D22*
%TO.C,C15*%
X196200000Y-70375000D03*
X196200000Y-68475000D03*
%TD*%
%TO.C,C17*%
X202700000Y-70375000D03*
X202700000Y-68475000D03*
%TD*%
D14*
%TO.C,C22*%
X217800000Y-74125000D03*
X217800000Y-75675000D03*
%TD*%
D17*
%TO.C,C28*%
X74075000Y-51200000D03*
X72525000Y-51200000D03*
%TD*%
D23*
%TO.C,SW6*%
X201767500Y-56987500D03*
D24*
X194147500Y-56987500D03*
%TD*%
D14*
%TO.C,C48*%
X159700000Y-75075000D03*
X159700000Y-76625000D03*
%TD*%
D25*
%TO.C,C23*%
X217800000Y-78775000D03*
X217800000Y-77225000D03*
%TD*%
D17*
%TO.C,C45*%
X148475000Y-66350000D03*
X146925000Y-66350000D03*
%TD*%
D26*
%TO.C,D4*%
X233000000Y-92400000D03*
X233000000Y-89600000D03*
%TD*%
D18*
%TO.C,R27*%
X105500000Y-86175000D03*
X105500000Y-87825000D03*
%TD*%
D27*
%TO.C,C10*%
X192650000Y-77100000D03*
X194550000Y-77100000D03*
%TD*%
D18*
%TO.C,R29*%
X157275000Y-57125000D03*
X157275000Y-58775000D03*
%TD*%
D21*
%TO.C,R3*%
X192065000Y-83500000D03*
X192065000Y-81850000D03*
%TD*%
D28*
%TO.C,R26*%
X123675000Y-91000000D03*
X125325000Y-91000000D03*
%TD*%
%TO.C,R19*%
X134875000Y-50900000D03*
X136525000Y-50900000D03*
%TD*%
D23*
%TO.C,SW7*%
X230267500Y-56987500D03*
D24*
X222647500Y-56987500D03*
%TD*%
D29*
%TO.C,R33*%
X155025000Y-89400000D03*
X153375000Y-89400000D03*
%TD*%
D18*
%TO.C,R18*%
X104200000Y-51075000D03*
X104200000Y-52725000D03*
%TD*%
D17*
%TO.C,C44*%
X148475000Y-69850000D03*
X146925000Y-69850000D03*
%TD*%
D28*
%TO.C,R22*%
X163775000Y-51200000D03*
X165425000Y-51200000D03*
%TD*%
D30*
%TO.C,U6*%
X112130000Y-78000000D03*
X113400000Y-78000000D03*
X114670000Y-78000000D03*
X115940000Y-78000000D03*
X117210000Y-78000000D03*
X118480000Y-78000000D03*
X119750000Y-78000000D03*
X121020000Y-78000000D03*
X121020000Y-68700000D03*
X119750000Y-68700000D03*
X118480000Y-68700000D03*
X117210000Y-68700000D03*
X115940000Y-68700000D03*
X114670000Y-68700000D03*
X113400000Y-68700000D03*
X112130000Y-68700000D03*
%TD*%
D24*
%TO.C,J3*%
X140620000Y-38080000D03*
X133000000Y-33000000D03*
D31*
X140620000Y-46970000D03*
X133000000Y-46970000D03*
D32*
X136810000Y-46970000D03*
X136810000Y-41890000D03*
%TD*%
D25*
%TO.C,C36*%
X117100000Y-64975000D03*
X117100000Y-63425000D03*
%TD*%
D24*
%TO.C,C19*%
X134200000Y-84725000D03*
X134200000Y-86725000D03*
%TD*%
D10*
%TO.C,RV1*%
X66500000Y-83650000D03*
D11*
X69000000Y-83650000D03*
X71500000Y-83650000D03*
%TD*%
D24*
%TO.C,C20*%
X133100000Y-69500000D03*
X135100000Y-69500000D03*
%TD*%
D25*
%TO.C,C14*%
X194200000Y-69975000D03*
X194200000Y-68425000D03*
%TD*%
D23*
%TO.C,U5*%
X128000000Y-76900000D03*
D24*
X128000000Y-74360000D03*
X128000000Y-71820000D03*
X128000000Y-69280000D03*
%TD*%
D33*
%TO.C,Q2*%
X157262500Y-89450000D03*
X157262500Y-91350000D03*
X159137500Y-90400000D03*
%TD*%
D18*
%TO.C,R35*%
X233000000Y-86175000D03*
X233000000Y-87825000D03*
%TD*%
D34*
%TO.C,C25*%
X217400000Y-55725000D03*
X217400000Y-58675000D03*
%TD*%
D28*
%TO.C,R5*%
X192875000Y-75300000D03*
X194525000Y-75300000D03*
%TD*%
D17*
%TO.C,C47*%
X211875000Y-74800000D03*
X210325000Y-74800000D03*
%TD*%
D14*
%TO.C,C43*%
X154100000Y-75075000D03*
X154100000Y-76625000D03*
%TD*%
D35*
%TO.C,C32*%
X141475000Y-51100000D03*
X138525000Y-51100000D03*
%TD*%
D16*
%TO.C,C40*%
X165550000Y-62200000D03*
X167050000Y-62200000D03*
%TD*%
D36*
%TO.C,U2*%
X189660000Y-90650000D03*
X190930000Y-90650000D03*
X192200000Y-90650000D03*
X193470000Y-90650000D03*
X193470000Y-85700000D03*
X192200000Y-85700000D03*
X190930000Y-85700000D03*
X189660000Y-85700000D03*
%TD*%
D37*
%TO.C,Y1*%
X221400000Y-68550000D03*
X221400000Y-77050000D03*
%TD*%
D18*
%TO.C,R30*%
X213600000Y-68075000D03*
X213600000Y-69725000D03*
%TD*%
D38*
%TO.C,C21*%
X133525000Y-65300000D03*
X135075000Y-65300000D03*
%TD*%
D25*
%TO.C,C9*%
X202600000Y-87880000D03*
X202600000Y-86330000D03*
%TD*%
D14*
%TO.C,C18*%
X138500000Y-84750000D03*
X138500000Y-86300000D03*
%TD*%
D28*
%TO.C,R25*%
X123675000Y-87500000D03*
X125325000Y-87500000D03*
%TD*%
D25*
%TO.C,C16*%
X205200000Y-70175000D03*
X205200000Y-68625000D03*
%TD*%
D21*
%TO.C,R7*%
X175000000Y-85325000D03*
X175000000Y-83675000D03*
%TD*%
D35*
%TO.C,C26*%
X84275000Y-51100000D03*
X81325000Y-51100000D03*
%TD*%
D12*
%TO.C,JP2*%
X115150000Y-73950000D03*
D13*
X115150000Y-72500000D03*
%TD*%
D21*
%TO.C,R2*%
X193565000Y-83500000D03*
X193565000Y-81850000D03*
%TD*%
D18*
%TO.C,R34*%
X229000000Y-86175000D03*
X229000000Y-87825000D03*
%TD*%
D25*
%TO.C,C12*%
X198200000Y-69975000D03*
X198200000Y-68425000D03*
%TD*%
D12*
%TO.C,JP3*%
X117750000Y-73950000D03*
D13*
X117750000Y-72500000D03*
%TD*%
D28*
%TO.C,R13*%
X77875000Y-51200000D03*
X79525000Y-51200000D03*
%TD*%
D39*
%TO.C,J7*%
X113050000Y-88340000D03*
X113900000Y-88340000D03*
X114750000Y-88340000D03*
X115600000Y-88340000D03*
X116450000Y-88340000D03*
X117300000Y-88340000D03*
X118150000Y-88340000D03*
X119000000Y-88340000D03*
X119000000Y-89690000D03*
X118150000Y-89690000D03*
X117300000Y-89690000D03*
X116450000Y-89690000D03*
X115600000Y-89690000D03*
X114750000Y-89690000D03*
X113900000Y-89690000D03*
X113050000Y-89690000D03*
D40*
X111700000Y-89320000D03*
D41*
X111700000Y-92700000D03*
D40*
X120350000Y-89320000D03*
D41*
X120350000Y-92700000D03*
%TD*%
D18*
%TO.C,R15*%
X76000000Y-51175000D03*
X76000000Y-52825000D03*
%TD*%
D24*
%TO.C,J5*%
X222755000Y-38540000D03*
X217040000Y-35365000D03*
X228470000Y-35365000D03*
D32*
X215770000Y-47430000D03*
X229740000Y-48065000D03*
D42*
X222755000Y-52510000D03*
D43*
X214500000Y-36000000D03*
D42*
X225612500Y-51875000D03*
X219897500Y-51875000D03*
D31*
X218310000Y-44890000D03*
X227200000Y-44890000D03*
%TD*%
D38*
%TO.C,C41*%
X166400000Y-65250000D03*
X167950000Y-65250000D03*
%TD*%
D44*
%TO.C,U3*%
X138700000Y-74550000D03*
X136400000Y-74550000D03*
D45*
X136400000Y-80850000D03*
D44*
X134100000Y-74550000D03*
%TD*%
D29*
%TO.C,R11*%
X214725000Y-55700000D03*
X213075000Y-55700000D03*
%TD*%
D46*
%TO.C,SW8*%
X162340000Y-88250000D03*
X170300000Y-88250000D03*
X162340000Y-92750000D03*
X170300000Y-92750000D03*
%TD*%
D35*
%TO.C,C29*%
X112850000Y-51200000D03*
X109900000Y-51200000D03*
%TD*%
D47*
%TO.C,U1*%
X197437500Y-75050000D03*
X197437500Y-75550000D03*
X197437500Y-76050000D03*
X197437500Y-76550000D03*
X197437500Y-77050000D03*
X197437500Y-77550000D03*
X197437500Y-78050000D03*
X197437500Y-78550000D03*
X197437500Y-79050000D03*
X197437500Y-79550000D03*
X197437500Y-80050000D03*
X197437500Y-80550000D03*
D48*
X198850000Y-81962500D03*
X199350000Y-81962500D03*
X199850000Y-81962500D03*
X200350000Y-81962500D03*
X200850000Y-81962500D03*
X201350000Y-81962500D03*
X201850000Y-81962500D03*
X202350000Y-81962500D03*
X202850000Y-81962500D03*
X203350000Y-81962500D03*
X203850000Y-81962500D03*
X204350000Y-81962500D03*
D47*
X205762500Y-80550000D03*
X205762500Y-80050000D03*
X205762500Y-79550000D03*
X205762500Y-79050000D03*
X205762500Y-78550000D03*
X205762500Y-78050000D03*
X205762500Y-77550000D03*
X205762500Y-77050000D03*
X205762500Y-76550000D03*
X205762500Y-76050000D03*
X205762500Y-75550000D03*
X205762500Y-75050000D03*
D48*
X204350000Y-73637500D03*
X203850000Y-73637500D03*
X203350000Y-73637500D03*
X202850000Y-73637500D03*
X202350000Y-73637500D03*
X201850000Y-73637500D03*
X201350000Y-73637500D03*
X200850000Y-73637500D03*
X200350000Y-73637500D03*
X199850000Y-73637500D03*
X199350000Y-73637500D03*
X198850000Y-73637500D03*
%TD*%
D17*
%TO.C,C46*%
X211875000Y-71800000D03*
X210325000Y-71800000D03*
%TD*%
D49*
%TO.C,C4*%
X207200000Y-86150000D03*
X207200000Y-88050000D03*
%TD*%
D35*
%TO.C,C35*%
X170575000Y-51200000D03*
X167625000Y-51200000D03*
%TD*%
D16*
%TO.C,J10*%
X62500000Y-56000000D03*
X60000000Y-56000000D03*
X67500000Y-61000000D03*
X62500000Y-66000000D03*
X60000000Y-66000000D03*
D50*
X67500000Y-56000000D03*
D51*
X62500000Y-61000000D03*
D50*
X67500000Y-66000000D03*
%TD*%
D28*
%TO.C,R10*%
X184875000Y-58600000D03*
X186525000Y-58600000D03*
%TD*%
D18*
%TO.C,R21*%
X133000000Y-50875000D03*
X133000000Y-52525000D03*
%TD*%
D26*
%TO.C,D2*%
X105290000Y-92400000D03*
X105290000Y-89600000D03*
%TD*%
D17*
%TO.C,C34*%
X131075000Y-50900000D03*
X129525000Y-50900000D03*
%TD*%
D18*
%TO.C,R31*%
X101000000Y-86175000D03*
X101000000Y-87825000D03*
%TD*%
D24*
%TO.C,J1*%
X83500000Y-38110000D03*
X75880000Y-33030000D03*
D31*
X83500000Y-47000000D03*
X75880000Y-47000000D03*
D32*
X79690000Y-47000000D03*
X79690000Y-41920000D03*
%TD*%
D34*
%TO.C,C24*%
X189000000Y-55600000D03*
X189000000Y-58550000D03*
%TD*%
D18*
%TO.C,R28*%
X155775000Y-57125000D03*
X155775000Y-58775000D03*
%TD*%
%TO.C,R4*%
X190565000Y-81850000D03*
X190565000Y-83500000D03*
%TD*%
D52*
%TO.C,Q1*%
X198800000Y-86700000D03*
D53*
X197530000Y-86700000D03*
X196260000Y-86700000D03*
%TD*%
D26*
%TO.C,D1*%
X101000000Y-92400000D03*
X101000000Y-89600000D03*
%TD*%
D18*
%TO.C,R1*%
X201100000Y-86280000D03*
X201100000Y-87930000D03*
%TD*%
D16*
%TO.C,J8*%
X223350000Y-89225000D03*
D54*
X221750000Y-91225000D03*
D55*
X219250000Y-91225000D03*
X216750000Y-91225000D03*
X214250000Y-91225000D03*
%TD*%
D29*
%TO.C,R9*%
X186525000Y-55500000D03*
X184875000Y-55500000D03*
%TD*%
D24*
%TO.C,J4*%
X169220000Y-38110000D03*
X161600000Y-33030000D03*
D31*
X169220000Y-47000000D03*
X161600000Y-47000000D03*
D32*
X165410000Y-47000000D03*
X165410000Y-41920000D03*
%TD*%
D26*
%TO.C,D3*%
X229000000Y-92400000D03*
X229000000Y-89600000D03*
%TD*%
D29*
%TO.C,R6*%
X211825000Y-78600000D03*
X210175000Y-78600000D03*
%TD*%
D24*
%TO.C,J6*%
X193825000Y-38640000D03*
X188110000Y-35465000D03*
X199540000Y-35465000D03*
D32*
X186840000Y-47530000D03*
X200810000Y-48165000D03*
D42*
X193825000Y-52610000D03*
D43*
X185570000Y-36100000D03*
D42*
X196682500Y-51975000D03*
X190967500Y-51975000D03*
D31*
X189380000Y-44990000D03*
X198270000Y-44990000D03*
%TD*%
D12*
%TO.C,JP4*%
X120350000Y-73950000D03*
D13*
X120350000Y-72500000D03*
%TD*%
D28*
%TO.C,R16*%
X106175000Y-51200000D03*
X107825000Y-51200000D03*
%TD*%
D25*
%TO.C,C42*%
X152875000Y-58725000D03*
X152875000Y-57175000D03*
%TD*%
D15*
%TO.C,SW1*%
X182980000Y-92750000D03*
X175020000Y-92750000D03*
X182980000Y-88250000D03*
X175020000Y-88250000D03*
%TD*%
D17*
%TO.C,C31*%
X102175000Y-51200000D03*
X100625000Y-51200000D03*
%TD*%
D56*
%TO.C,C8*%
X212050000Y-76600000D03*
X210150000Y-76600000D03*
%TD*%
D22*
%TO.C,C13*%
X200200000Y-70375000D03*
X200200000Y-68475000D03*
%TD*%
D18*
%TO.C,R24*%
X161600000Y-51075000D03*
X161600000Y-52725000D03*
%TD*%
D49*
%TO.C,C11*%
X207700000Y-68450000D03*
X207700000Y-70350000D03*
%TD*%
D57*
%TO.C,J9*%
X173900000Y-62000000D03*
D58*
X173900000Y-64500000D03*
X173900000Y-67000000D03*
X173900000Y-69500000D03*
X173900000Y-72000000D03*
X173900000Y-74500000D03*
%TD*%
D16*
%TO.C,J11*%
X62500000Y-69000000D03*
X60000000Y-69000000D03*
X67500000Y-74000000D03*
X62500000Y-79000000D03*
X60000000Y-79000000D03*
D50*
X67500000Y-69000000D03*
D51*
X62500000Y-74000000D03*
D50*
X67500000Y-79000000D03*
%TD*%
D28*
%TO.C,R12*%
X213075000Y-58700000D03*
X214725000Y-58700000D03*
%TD*%
D24*
%TO.C,J2*%
X112000000Y-38110000D03*
X104380000Y-33030000D03*
D31*
X112000000Y-47000000D03*
X104380000Y-47000000D03*
D32*
X108190000Y-47000000D03*
X108190000Y-41920000D03*
%TD*%
M02*
